<svg width="1500" height="1096" viewBox="0 0 1500 1096" fill="none" xmlns="http://www.w3.org/2000/svg">
<path fill-rule="evenodd" clip-rule="evenodd" d="M0 455.29V910.58L19.25 921.159C103.514 967.469 190.756 1003.02 290 1031.5C413.234 1066.86 534.906 1086.39 680.5 1094.18C710.61 1095.79 818.39 1095.79 848.5 1094.18C994.192 1086.38 1115.68 1066.88 1239 1031.5C1323.49 1007.26 1397.01 978.675 1472.25 940.824L1500 926.863V463.431V0H750H0V455.29Z" fill="#F0DF20"/>
<mask id="mask0_84_109" style="mask-type:alpha" maskUnits="userSpaceOnUse" x="0" y="0" width="1500" height="1096">
<path fill-rule="evenodd" clip-rule="evenodd" d="M0 455.29V910.58L19.25 921.159C103.514 967.469 190.756 1003.02 290 1031.5C413.234 1066.86 534.906 1086.39 680.5 1094.18C710.61 1095.79 818.39 1095.79 848.5 1094.18C994.192 1086.38 1115.68 1066.88 1239 1031.5C1323.49 1007.26 1397.01 978.675 1472.25 940.824L1500 926.863V463.431V0H750H0V455.29Z" fill="#F0DF20"/>
</mask>
<g mask="url(#mask0_84_109)">
<circle cx="1438" cy="156" r="282" fill="#7D7300" fill-opacity="0.1"/>
<circle cx="974.5" cy="242.5" r="492.5" fill="#7D7300" fill-opacity="0.1"/>
</g>
</svg>
