<svg xmlns="http://www.w3.org/2000/svg" width="253.461" height="187.407" viewBox="0 0 253.461 187.407">
  <g id="Group_3401" data-name="Group 3401" transform="translate(0 0)">
    <path id="Path_12499" data-name="Path 12499" d="M1005.78,691.091c-.761-6.116-4.551-12.143-10.384-14.133a28.4,28.4,0,0,1,0,19.5c-.9,2.425-2.146,5.028-1.3,7.471a6.347,6.347,0,0,0,3.242,3.411,18.855,18.855,0,0,0,4.6,1.414l.309.256C1004.74,703.372,1006.541,697.208,1005.78,691.091Z" transform="translate(-761.188 -522.226)" fill="#f0f0f0"/>
    <path id="Path_12500" data-name="Path 12500" d="M999.388,676.721a24.273,24.273,0,0,1,6.034,13.661,10.45,10.45,0,0,1-.119,3.273,5.993,5.993,0,0,1-1.491,2.781,12.407,12.407,0,0,0-1.926,2.3,3.671,3.671,0,0,0-.179,3,9.54,9.54,0,0,0,2.113,3.152,9.364,9.364,0,0,1,2.347,3.5c.049.168.306.083.258-.085-.7-2.413-3.042-3.783-4.159-5.956a3.717,3.717,0,0,1-.251-3.262,9.627,9.627,0,0,1,1.911-2.377,6.4,6.4,0,0,0,1.559-2.664,9.661,9.661,0,0,0,.244-3.256,23.549,23.549,0,0,0-1.72-7.156,24.7,24.7,0,0,0-4.442-7.118C999.451,676.387,999.272,676.592,999.388,676.721Z" transform="translate(-765.237 -521.873)" fill="#fff"/>
    <path id="Path_12501" data-name="Path 12501" d="M1021.178,711.367a3.642,3.642,0,0,0,2.772-3.815c-.014-.174-.285-.161-.271.014a3.372,3.372,0,0,1-2.586,3.543c-.17.04-.084.3.085.258Z" transform="translate(-781.066 -544.503)" fill="#fff"/>
    <path id="Path_12502" data-name="Path 12502" d="M1008.15,738.239a7.019,7.019,0,0,1-3.134-4.042c-.049-.168-.307-.082-.258.085a7.3,7.3,0,0,0,3.27,4.2C1008.178,738.571,1008.3,738.328,1008.15,738.239Z" transform="translate(-769.186 -564.007)" fill="#fff"/>
    <path id="Path_12503" data-name="Path 12503" d="M1005.953,694.035a2.062,2.062,0,0,1-1.953-.1c-.149-.091-.271.152-.122.242a2.31,2.31,0,0,0,2.161.115.14.14,0,0,0,.086-.172.136.136,0,0,0-.172-.086Z" transform="translate(-768.497 -534.624)" fill="#fff"/>
    <path id="Path_12504" data-name="Path 12504" d="M933.581,715.818c.092.06.183.119.275.181a27.146,27.146,0,0,1,3.471,2.71c.085.076.17.154.252.232a28.615,28.615,0,0,1,6.215,8.508,27.792,27.792,0,0,1,1.522,3.939c.562,1.864,1.022,3.93,2.134,5.454a4.773,4.773,0,0,0,.371.459h10.049l.069-.032.4.018c-.016-.071-.034-.144-.05-.216-.009-.041-.021-.083-.03-.124s-.014-.055-.019-.08c0-.009,0-.018-.007-.025,0-.025-.011-.048-.016-.071q-.151-.616-.312-1.231s0,0,0,0a40.865,40.865,0,0,0-3.439-9.028c-.046-.085-.092-.172-.142-.257a26.534,26.534,0,0,0-2.382-3.613,23.43,23.43,0,0,0-1.561-1.786A19.5,19.5,0,0,0,945.5,717.2a15.481,15.481,0,0,0-11.628-1.47C933.776,715.756,933.679,715.785,933.581,715.818Z" transform="translate(-717.153 -550.161)" fill="#f0f0f0"/>
    <path id="Path_12505" data-name="Path 12505" d="M933.344,717.316a24.272,24.272,0,0,1,13.042,7.274,10.453,10.453,0,0,1,1.876,2.685,6,6,0,0,1,.484,3.118,12.407,12.407,0,0,0-.15,3,3.671,3.671,0,0,0,1.661,2.5,9.536,9.536,0,0,0,3.585,1.245,9.364,9.364,0,0,1,3.984,1.385c.14.1.295-.119.155-.223-2.011-1.505-4.707-1.189-6.907-2.252a3.717,3.717,0,0,1-2.165-2.453,9.628,9.628,0,0,1,.094-3.048,6.4,6.4,0,0,0-.359-3.066,9.66,9.66,0,0,0-1.765-2.747,23.552,23.552,0,0,0-5.682-4.678,24.7,24.7,0,0,0-7.832-3.009c-.171-.034-.191.237-.021.271Z" transform="translate(-716.894 -551.532)" fill="#fff"/>
    <path id="Path_12506" data-name="Path 12506" d="M977.384,727.449a3.641,3.641,0,0,0-.083-4.715c-.116-.131-.325.043-.208.174a3.372,3.372,0,0,1,.069,4.386C977.049,727.429,977.273,727.583,977.384,727.449Z" transform="translate(-748.939 -555.659)" fill="#fff"/>
    <path id="Path_12507" data-name="Path 12507" d="M977.37,761.121a7.019,7.019,0,0,1-4.936-1.34c-.141-.1-.295.119-.155.223a7.3,7.3,0,0,0,5.14,1.384C977.592,761.369,977.543,761.1,977.37,761.121Z" transform="translate(-745.404 -582.758)" fill="#fff"/>
    <path id="Path_12508" data-name="Path 12508" d="M949,724.05a2.062,2.062,0,0,1-1.62,1.1c-.174.017-.125.284.048.267a2.31,2.31,0,0,0,1.794-1.21.14.14,0,0,0-.034-.189A.136.136,0,0,0,949,724.05Z" transform="translate(-727.162 -556.612)" fill="#fff"/>
    <path id="Path_12509" data-name="Path 12509" d="M225.694,287.414c-9.026,4.761-16.138,14.161-15.8,24.36a47.016,47.016,0,0,1,30.193-11.418c4.28-.032,9.043.378,12.333-2.359a10.51,10.51,0,0,0,3.383-7.019,31.216,31.216,0,0,0-.5-7.95l.215-.629C245.321,281.834,234.72,282.654,225.694,287.414Z" transform="translate(-188.052 -233.648)" fill="#f0f0f0"/>
    <path id="Path_12510" data-name="Path 12510" d="M209.5,312.082a40.186,40.186,0,0,1,17.619-17.346A17.3,17.3,0,0,1,232.257,293a9.925,9.925,0,0,1,5.179.68,20.543,20.543,0,0,0,4.7,1.632,6.077,6.077,0,0,0,4.745-1.478,15.79,15.79,0,0,0,3.644-5.119c1.066-2.078,2.14-4.253,4.052-5.688.232-.174-.052-.523-.283-.35-3.327,2.5-4.077,6.927-6.788,9.929a6.155,6.155,0,0,1-4.9,2.3,15.938,15.938,0,0,1-4.8-1.566,10.59,10.59,0,0,0-5.039-.854,16,16,0,0,0-5.185,1.529,38.987,38.987,0,0,0-10.074,6.855,40.9,40.9,0,0,0-8.421,11.048c-.133.256.288.413.421.159Z" transform="translate(-187.448 -233.935)" fill="#fff"/>
    <path id="Path_12511" data-name="Path 12511" d="M246.107,324.5a6.029,6.029,0,0,0-7.531-2.058c-.262.123-.082.536.18.412a5.583,5.583,0,0,1,7,1.929C245.919,325.023,246.268,324.738,246.107,324.5Z" transform="translate(-208.938 -262.622)" fill="#fff"/>
    <path id="Path_12512" data-name="Path 12512" d="M299.6,321.674a11.621,11.621,0,0,1-4.424,7.222c-.231.175.052.524.283.35a12.087,12.087,0,0,0,4.588-7.524c.05-.286-.4-.331-.447-.047Z" transform="translate(-250.348 -262.337)" fill="#fff"/>
    <path id="Path_12513" data-name="Path 12513" d="M229.657,362.181a3.413,3.413,0,0,1,.991,3.083c-.054.285.394.33.447.047a3.824,3.824,0,0,0-1.088-3.413.232.232,0,0,0-.316-.033.226.226,0,0,0-.033.316Z" transform="translate(-202.475 -291.825)" fill="#fff"/>
    <path id="Path_12514" data-name="Path 12514" d="M297.732,332.219c.039-.177.077-.354.119-.532a44.944,44.944,0,0,1,2.163-6.962c.067-.176.138-.353.211-.526a47.382,47.382,0,0,1,9.534-14.609,46,46,0,0,1,5.208-4.665c2.557-1.962,5.486-3.885,7.2-6.5a7.891,7.891,0,0,0,.492-.844l-5.886-15.561c-.031-.029-.059-.059-.09-.088l-.207-.632c-.1.067-.2.138-.3.2-.058.038-.116.08-.174.119-.039.027-.077.054-.113.075l-.035.025c-.036.022-.068.046-.1.067q-.865.595-1.724,1.2s0,0-.006.006a67.657,67.657,0,0,0-11.967,10.614c-.1.121-.213.243-.314.371a43.917,43.917,0,0,0-4.2,5.805,38.817,38.817,0,0,0-1.851,3.464,32.28,32.28,0,0,0-2.8,9.7c-.836,6.7.48,13.584,4.536,18.868C297.522,331.954,297.625,332.085,297.732,332.219Z" transform="translate(-248.56 -232.959)" fill="#f0f0f0"/>
    <path id="Path_12515" data-name="Path 12515" d="M309.561,332.667a40.186,40.186,0,0,1,3.625-24.458,17.308,17.308,0,0,1,3.059-4.477,9.926,9.926,0,0,1,4.545-2.575,20.542,20.542,0,0,0,4.733-1.525,6.077,6.077,0,0,0,2.9-4.037,15.79,15.79,0,0,0-.173-6.281c-.4-2.3-.852-4.684-.189-6.981.08-.278-.356-.387-.436-.109-1.153,4,.915,7.985.558,12.015a6.155,6.155,0,0,1-2.531,4.789,15.941,15.941,0,0,1-4.776,1.639,10.591,10.591,0,0,0-4.538,2.352,16,16,0,0,0-3.22,4.343A38.987,38.987,0,0,0,309.2,318.9a40.9,40.9,0,0,0-.072,13.891c.048.285.479.156.432-.126Z" transform="translate(-260.205 -233.517)" fill="#fff"/>
    <path id="Path_12516" data-name="Path 12516" d="M300.918,387.238a6.029,6.029,0,0,0-7.252,2.891c-.135.256.257.477.392.221a5.583,5.583,0,0,1,6.752-2.675C301.083,387.768,301.19,387.331,300.918,387.238Z" transform="translate(-249.288 -310.179)" fill="#fff"/>
    <path id="Path_12517" data-name="Path 12517" d="M350.824,352.57A11.621,11.621,0,0,1,351.64,361c-.079.279.357.387.436.109a12.087,12.087,0,0,0-.867-8.77C351.077,352.08,350.693,352.314,350.824,352.57Z" transform="translate(-291.077 -284.813)" fill="#fff"/>
    <path id="Path_12518" data-name="Path 12518" d="M309.577,434.43a3.413,3.413,0,0,1,2.647,1.865c.129.26.513.026.385-.232a3.824,3.824,0,0,0-2.924-2.07.232.232,0,0,0-.273.164.226.226,0,0,0,.164.273Z" transform="translate(-260.816 -344.59)" fill="#fff"/>
    <path id="Path_12519" data-name="Path 12519" d="M425.635,139.272h-.873V115.363a13.838,13.838,0,0,0-13.838-13.838H360.27a13.838,13.838,0,0,0-13.838,13.838V246.531a13.838,13.838,0,0,0,13.838,13.838h50.655a13.838,13.838,0,0,0,13.838-13.838v-90.24h.873Z" transform="translate(-287.885 -101.524)" fill="#3f3d56"/>
    <path id="Path_12520" data-name="Path 12520" d="M421.865,114.913h-6.612a4.91,4.91,0,0,1-4.546,6.764h-29.02a4.91,4.91,0,0,1-4.546-6.764h-6.176a10.334,10.334,0,0,0-10.334,10.334V256.222a10.334,10.334,0,0,0,10.334,10.334h50.9A10.334,10.334,0,0,0,432.2,256.222h0V125.246a10.334,10.334,0,0,0-10.334-10.334Z" transform="translate(-298.267 -111.312)" fill="#fff"/>
    <path id="Path_12521" data-name="Path 12521" d="M410.852,234.87a30.494,30.494,0,1,1,30.494-30.494,30.494,30.494,0,0,1-30.494,30.494Zm0-60.45a29.956,29.956,0,1,0,29.956,29.956,29.956,29.956,0,0,0-29.956-29.956Z" transform="translate(-312.689 -154.425)" fill="#3f3d56"/>
    <path id="Path_12522" data-name="Path 12522" d="M377.045,285.389a6.356,6.356,0,0,0-12.363,2.522,7.668,7.668,0,0,0-15.1,2.38,4.681,4.681,0,0,0-9.107-.774v-.075a1.143,1.143,0,0,0-1.547,1,1.859,1.859,0,0,0,1.214,1.677,5.455,5.455,0,0,0,2.169.292l27.515-.035c2.13,0,4.479-.086,6.045-1.531A5.256,5.256,0,0,0,377.045,285.389Z" transform="translate(-282.397 -232.804)" fill="#e4e4e4"/>
    <path id="Path_12523" data-name="Path 12523" d="M508.256,343.986a3.31,3.31,0,0,0-6.439,1.313,3.994,3.994,0,0,0-7.866,1.24,2.438,2.438,0,0,0-4.743-.4V346.1a.6.6,0,0,0-.805.523.968.968,0,0,0,.632.874,2.84,2.84,0,0,0,1.13.152l14.33-.018a4.543,4.543,0,0,0,3.148-.8A2.738,2.738,0,0,0,508.256,343.986Z" transform="translate(-391.682 -277.159)" fill="#e4e4e4"/>
    <circle id="Ellipse_470" data-name="Ellipse 470" cx="10.499" cy="10.499" r="10.499" transform="translate(93.709 21.953)" fill="#ff6582"/>
    <path id="Path_12524" data-name="Path 12524" d="M520.214,223.863a6.356,6.356,0,0,0-12.363,2.522,7.668,7.668,0,0,0-15.1,2.38,4.681,4.681,0,0,0-9.107-.775v-.075a1.143,1.143,0,0,0-1.547,1,1.859,1.859,0,0,0,1.213,1.677,5.454,5.454,0,0,0,2.169.292l27.515-.035c2.13,0,4.479-.086,6.045-1.531A5.256,5.256,0,0,0,520.214,223.863Z" transform="translate(-387.068 -187.822)" fill="#e4e4e4"/>
    <path id="Path_12525" data-name="Path 12525" d="M539.381,292.387l2.022-1.617a2.143,2.143,0,0,0-2.481,1.362,3.445,3.445,0,0,0-2.563.158l4.046,1.469A3.062,3.062,0,0,0,539.381,292.387Z" transform="translate(-426.742 -239.865)" fill="#3f3d56"/>
    <path id="Path_12526" data-name="Path 12526" d="M442.358,351.547l2.022-1.617a2.143,2.143,0,0,0-2.481,1.362,3.445,3.445,0,0,0-2.564.158l4.046,1.469A3.062,3.062,0,0,0,442.358,351.547Z" transform="translate(-355.808 -283.117)" fill="#3f3d56"/>
    <path id="Path_12527" data-name="Path 12527" d="M425.793,249.792l2.022-1.617a2.143,2.143,0,0,0-2.481,1.362,3.445,3.445,0,0,0-2.564.158l4.046,1.469A3.062,3.062,0,0,0,425.793,249.792Z" transform="translate(-343.697 -208.724)" fill="#3f3d56"/>
    <ellipse id="Ellipse_471" data-name="Ellipse 471" cx="17.817" cy="1.909" rx="17.817" ry="1.909" transform="translate(78.755 131.4)" fill="#f0f0f0"/>
    <path id="Path_12528" data-name="Path 12528" d="M137.787,482.977H221.36a9.084,9.084,0,0,1,3.028,17.649V506.9l-5.753-5.753H137.787a9.084,9.084,0,1,1,0-18.168Z" transform="translate(-128.703 -380.406)" fill="#74be4b"/>
    <path id="Path_12529" data-name="Path 12529" d="M175.478,505.584h73.58a.606.606,0,1,0,0-1.211h-73.58a.606.606,0,0,0,0,1.211Z" transform="translate(-162.458 -396.048)" fill="#fff"/>
    <path id="Path_12530" data-name="Path 12530" d="M175.478,522.476h73.58a.606.606,0,1,0,0-1.211h-73.58a.606.606,0,0,0,0,1.211Z" transform="translate(-162.458 -408.398)" fill="#fff"/>
    <path id="Path_12531" data-name="Path 12531" d="M839.43,508.261a3.162,3.162,0,0,0,.869-4.77l3.676-28.564-6.87.288L835.652,503.2a3.179,3.179,0,0,0,3.778,5.059Z" transform="translate(-644.833 -374.52)" fill="#ffb6b6"/>
    <path id="Path_12532" data-name="Path 12532" d="M821.048,373.388l.883,14.6-5.961,15.742-2.848-4.211,2.714-15.314-.753-9.8Z" transform="translate(-594.477 -272.985)" fill="#ffb6b6"/>
    <path id="Path_12533" data-name="Path 12533" d="M785.262,539.8l.731,37.543-3.209.5-6.937-38.426Z" transform="translate(-567.226 -394.371)" fill="#ffb6b6"/>
    <path id="Path_12534" data-name="Path 12534" d="M733.457,542.646l5.023,37.213h3.247l.974-39.035Z" transform="translate(-536.234 -395.398)" fill="#ffb6b6"/>
    <circle id="Ellipse_472" data-name="Ellipse 472" cx="6.678" cy="6.678" r="6.678" transform="translate(199.996 67.955)" fill="#ffb6b6"/>
    <path id="Path_12535" data-name="Path 12535" d="M887.728,354.792c.227.5.584.187,1-.154a5.015,5.015,0,0,0,1.489-2.58,9.679,9.679,0,0,0,.119-4.838,7.684,7.684,0,0,0-2.515-4.1,5.142,5.142,0,0,0-.931-.621,6.151,6.151,0,0,0-3.683-.409,12.856,12.856,0,0,0-4.614,1.655,4.963,4.963,0,0,0-1.643,1.4,2.205,2.205,0,0,0-.3,2.063.35.35,0,0,0,.106.153.4.4,0,0,0,.291.032,10.933,10.933,0,0,1,3.039.01.9.9,0,0,1,.717.362,4.991,4.991,0,0,1,.133.6c.228.611,1.237.461,1.616.991.238.333.133.806.3,1.18.267.6,1.081.7,1.729.592a3.133,3.133,0,0,1,1.932,0,2.234,2.234,0,0,1,.947,1.574A13.234,13.234,0,0,0,887.728,354.792Z" transform="translate(-675.435 -277.329)" fill="#2f2e41"/>
    <path id="Path_12536" data-name="Path 12536" d="M744.933,454.118l2.8,6.552-2.8,8.816v9.126l-10.732.065-.237-11.222-1.444,11.222H721.592l-2.023-22.493,2.9-5.323Z" transform="translate(-526.08 -329.626)" fill="#2f2e41"/>
    <path id="Path_12537" data-name="Path 12537" d="M859.312,412.041l-.79,1.463s-6.81,1.327-10.251,5.075l4.618,9.43-4.277,27.31,25.217-1.681.895-21.027L878.52,417.9s-6.578-4.512-9.417-4.037l-.993-1.826Z" transform="translate(-654.783 -328.544)" fill="#74be4b"/>
    <path id="Path_12538" data-name="Path 12538" d="M849.968,437.338l-6.482-.982s-1.774,10.408-1.76,12.784l7.823,1.248Z" transform="translate(-649.998 -346.321)" fill="#74be4b"/>
    <path id="Path_12539" data-name="Path 12539" d="M944.384,434.511l3.1-.664s1.195,3.792,3.167,12.722l-8.051,2.81Z" transform="translate(-723.745 -344.487)" fill="#74be4b"/>
    <path id="Path_12540" data-name="Path 12540" d="M863.549,783.854H851.887v-.148a4.539,4.539,0,0,1,4.539-4.539h7.124Z" transform="translate(-657.426 -596.951)" fill="#2f2e41"/>
    <path id="Path_12541" data-name="Path 12541" d="M915.987,777.368l-11.525,1.785-.023-.146a4.539,4.539,0,0,1,3.791-5.18h0l7.039-1.09Z" transform="translate(-695.808 -592.25)" fill="#2f2e41"/>
    <path id="Path_12542" data-name="Path 12542" d="M791.018,797.014H688.569a.269.269,0,1,1,0-.538H791.018a.269.269,0,1,1,0,.538Z" transform="translate(-537.827 -609.606)" fill="#cacaca"/>
  </g>
</svg>
