<svg id="cloud-upload-fill" xmlns="http://www.w3.org/2000/svg" width="23.93" height="22.434" viewBox="0 0 23.93 22.434">
  <path id="Path_12485" data-name="Path 12485" d="M11.965,0A8.271,8.271,0,0,0,6.59,2.007,6.289,6.289,0,0,0,4.4,5.572,5.544,5.544,0,0,0,0,10.945a5.583,5.583,0,0,0,5.655,5.507h5.562V8.536l-3.21,3.211a.749.749,0,1,1-1.059-1.059L11.435,6.2a.748.748,0,0,1,1.059,0l4.487,4.487a.749.749,0,1,1-1.059,1.059L12.713,8.536v7.916h6.264a4.891,4.891,0,0,0,4.954-4.827,4.869,4.869,0,0,0-4.239-4.777A7.681,7.681,0,0,0,11.965,0Zm-.748,21.687V16.452h1.5v5.235a.748.748,0,0,1-1.5,0Z" fill="#101276" fill-rule="evenodd"/>
</svg>
