<svg xmlns="http://www.w3.org/2000/svg" width="177.718" height="120.718" viewBox="0 0 177.718 120.718">
  <g id="Group_3411" data-name="Group 3411" transform="translate(-99 -124.991)">
    <g id="Group_3224" data-name="Group 3224" transform="translate(0 -31)">
      <g id="Group_3221" data-name="Group 3221" transform="translate(155.497 191.114)">
        <path id="Path_12439" data-name="Path 12439" d="M41.78,57.13a7.12,7.12,0,0,1-4.2-1.39l-4.32-3.16a3.12,3.12,0,0,0-3.7,0l-4.32,3.16a7.14,7.14,0,0,1-11.31-6.53l.58-5.32a3.11,3.11,0,0,0-1.85-3.2L7.77,38.53a7.13,7.13,0,0,1,0-13.06l4.89-2.16a3.11,3.11,0,0,0,1.85-3.2l-.58-5.32A7.14,7.14,0,0,1,25.24,8.26l4.32,3.16a3.12,3.12,0,0,0,3.7,0l4.32-3.16A7,7,0,0,1,43,7a7.25,7.25,0,0,1,4.75,3.13,2,2,0,1,1-3.34,2.2,3.23,3.23,0,0,0-2.12-1.39,3,3,0,0,0-2.37.57L35.6,14.67a7.13,7.13,0,0,1-8.43,0l-4.31-3.16a3.13,3.13,0,0,0-5,2.87l.58,5.31A7.11,7.11,0,0,1,14.28,27l-4.9,2.16a3.14,3.14,0,0,0,0,5.74l4.9,2.1a7.11,7.11,0,0,1,4.21,7.3l-.58,5.31a3.13,3.13,0,0,0,5,2.87l4.31-3.16a7.13,7.13,0,0,1,8.43,0l4.32,3.16a3.13,3.13,0,0,0,5-2.87l-.58-5.31A7.1,7.1,0,0,1,48.54,37l4.9-2.16a3.14,3.14,0,0,0,0-5.74L50.78,28a2,2,0,1,1,1.61-3.66l2.66,1.17a7.13,7.13,0,0,1,0,13.06l-4.89,2.16a3.13,3.13,0,0,0-1.86,3.2l.58,5.32a7,7,0,0,1-3.52,6.95,7.17,7.17,0,0,1-3.58.93Z" fill="#101276"/>
        <path id="Path_12440" data-name="Path 12440" d="M31.64,39a2,2,0,0,1-1.42-.59L21.61,29.8A2,2,0,1,1,24.44,27l7.2,7.2L57.08,8.72a2,2,0,0,1,2.82,2.83L33.05,38.4A2,2,0,0,1,31.64,39Z" fill="#f60"/>
      </g>
      <path id="Path_12441" data-name="Path 12441" d="M7.171,291.18a1.335,1.335,0,0,0-1.135.691l-1.7,3.116-3.114,1.7a1.336,1.336,0,0,0,0,2.348l3.114,1.7,1.7,3.115a1.335,1.335,0,0,0,2.347,0l1.706-3.115,3.1-1.7a1.336,1.336,0,0,0,0-2.348l-3.1-1.7-1.706-3.115a1.335,1.335,0,0,0-1.213-.692Zm.039,4.111.72,1.312a1.335,1.335,0,0,0,.532.532l1.312.72-1.312.72a1.336,1.336,0,0,0-.532.532l-.72,1.31-.709-1.31a1.336,1.336,0,0,0-.532-.532l-1.312-.72,1.312-.72A1.337,1.337,0,0,0,6.5,296.6Zm13.356,1.229a1.336,1.336,0,1,0,1.335,1.336,1.336,1.336,0,0,0-1.335-1.336Zm-.034,8.009-.005,0a1.335,1.335,0,0,0-1.135.7l-1.7,3.1-3.114,1.706a1.336,1.336,0,0,0,0,2.348l3.114,1.7,1.7,3.115a1.335,1.335,0,0,0,2.347,0l1.7-3.115,3.114-1.7a1.336,1.336,0,0,0,0-2.348l-3.114-1.706-1.7-3.1a1.336,1.336,0,0,0-1.208-.7Zm.034,4.122.72,1.312a1.336,1.336,0,0,0,.532.532l1.312.72-1.312.71a1.337,1.337,0,0,0-.532.532l-.72,1.312-.72-1.312a1.336,1.336,0,0,0-.532-.532L18,311.214l1.309-.72a1.336,1.336,0,0,0,.532-.532ZM7.213,309.876a1.336,1.336,0,1,0,1.335,1.336,1.336,1.336,0,0,0-1.335-1.336Z" transform="translate(100.471 -121.829)" fill="#f60" opacity="0.5"/>
      <path id="Path_12442" data-name="Path 12442" d="M7.171,291.18a1.335,1.335,0,0,0-1.135.691l-1.7,3.116-3.114,1.7a1.336,1.336,0,0,0,0,2.348l3.114,1.7,1.7,3.115a1.335,1.335,0,0,0,2.347,0l1.706-3.115,3.1-1.7a1.336,1.336,0,0,0,0-2.348l-3.1-1.7-1.706-3.115a1.335,1.335,0,0,0-1.213-.692Zm.039,4.111.72,1.312a1.335,1.335,0,0,0,.532.532l1.312.72-1.312.72a1.336,1.336,0,0,0-.532.532l-.72,1.31-.709-1.31a1.336,1.336,0,0,0-.532-.532l-1.312-.72,1.312-.72A1.337,1.337,0,0,0,6.5,296.6Zm13.356,1.229a1.336,1.336,0,1,0,1.335,1.336,1.336,1.336,0,0,0-1.335-1.336Zm-.034,8.009-.005,0a1.335,1.335,0,0,0-1.135.7l-1.7,3.1-3.114,1.706a1.336,1.336,0,0,0,0,2.348l3.114,1.7,1.7,3.115a1.335,1.335,0,0,0,2.347,0l1.7-3.115,3.114-1.7a1.336,1.336,0,0,0,0-2.348l-3.114-1.706-1.7-3.1a1.336,1.336,0,0,0-1.208-.7Zm.034,4.122.72,1.312a1.336,1.336,0,0,0,.532.532l1.312.72-1.312.71a1.337,1.337,0,0,0-.532.532l-.72,1.312-.72-1.312a1.336,1.336,0,0,0-.532-.532L18,311.214l1.309-.72a1.336,1.336,0,0,0,.532-.532ZM7.213,309.876a1.336,1.336,0,1,0,1.335,1.336,1.336,1.336,0,0,0-1.335-1.336Z" transform="translate(239.471 -135.188)" fill="#101276" opacity="0.5"/>
      <path id="Path_12444" data-name="Path 12444" d="M7.171,291.18a1.335,1.335,0,0,0-1.135.691l-1.7,3.116-3.114,1.7a1.336,1.336,0,0,0,0,2.348l3.114,1.7,1.7,3.115a1.335,1.335,0,0,0,2.347,0l1.706-3.115,3.1-1.7a1.336,1.336,0,0,0,0-2.348l-3.1-1.7-1.706-3.115a1.335,1.335,0,0,0-1.213-.692Zm.039,4.111.72,1.312a1.335,1.335,0,0,0,.532.532l1.312.72-1.312.72a1.336,1.336,0,0,0-.532.532l-.72,1.31-.709-1.31a1.336,1.336,0,0,0-.532-.532l-1.312-.72,1.312-.72A1.337,1.337,0,0,0,6.5,296.6Zm13.356,1.229a1.336,1.336,0,1,0,1.335,1.336,1.336,1.336,0,0,0-1.335-1.336Zm-.034,8.009-.005,0a1.335,1.335,0,0,0-1.135.7l-1.7,3.1-3.114,1.706a1.336,1.336,0,0,0,0,2.348l3.114,1.7,1.7,3.115a1.335,1.335,0,0,0,2.347,0l1.7-3.115,3.114-1.7a1.336,1.336,0,0,0,0-2.348l-3.114-1.706-1.7-3.1a1.336,1.336,0,0,0-1.208-.7Zm.034,4.122.72,1.312a1.336,1.336,0,0,0,.532.532l1.312.72-1.312.71a1.337,1.337,0,0,0-.532.532l-.72,1.312-.72-1.312a1.336,1.336,0,0,0-.532-.532L18,311.214l1.309-.72a1.336,1.336,0,0,0,.532-.532ZM7.213,309.876a1.336,1.336,0,1,0,1.335,1.336,1.336,1.336,0,0,0-1.335-1.336Z" transform="translate(98.471 -41.188)" fill="#101276" opacity="0.5"/>
      <path id="Path_12443" data-name="Path 12443" d="M7.171,291.18a1.335,1.335,0,0,0-1.135.691l-1.7,3.116-3.114,1.7a1.336,1.336,0,0,0,0,2.348l3.114,1.7,1.7,3.115a1.335,1.335,0,0,0,2.347,0l1.706-3.115,3.1-1.7a1.336,1.336,0,0,0,0-2.348l-3.1-1.7-1.706-3.115a1.335,1.335,0,0,0-1.213-.692Zm.039,4.111.72,1.312a1.335,1.335,0,0,0,.532.532l1.312.72-1.312.72a1.336,1.336,0,0,0-.532.532l-.72,1.31-.709-1.31a1.336,1.336,0,0,0-.532-.532l-1.312-.72,1.312-.72A1.337,1.337,0,0,0,6.5,296.6Zm13.356,1.229a1.336,1.336,0,1,0,1.335,1.336,1.336,1.336,0,0,0-1.335-1.336Zm-.034,8.009-.005,0a1.335,1.335,0,0,0-1.135.7l-1.7,3.1-3.114,1.706a1.336,1.336,0,0,0,0,2.348l3.114,1.7,1.7,3.115a1.335,1.335,0,0,0,2.347,0l1.7-3.115,3.114-1.7a1.336,1.336,0,0,0,0-2.348l-3.114-1.706-1.7-3.1a1.336,1.336,0,0,0-1.208-.7Zm.034,4.122.72,1.312a1.336,1.336,0,0,0,.532.532l1.312.72-1.312.71a1.337,1.337,0,0,0-.532.532l-.72,1.312-.72-1.312a1.336,1.336,0,0,0-.532-.532L18,311.214l1.309-.72a1.336,1.336,0,0,0,.532-.532ZM7.213,309.876a1.336,1.336,0,1,0,1.335,1.336,1.336,1.336,0,0,0-1.335-1.336Z" transform="translate(249.471 -65.652)" fill="#f60" opacity="0.5"/>
    </g>
  </g>
</svg>
