<svg xmlns="http://www.w3.org/2000/svg" width="200.664" height="187.678" viewBox="0 0 200.664 187.678">
  <g id="Group_3455" data-name="Group 3455" transform="translate(0 -0.004)">
    <path id="Path_12491" data-name="Path 12491" d="M462.829,659.788a.352.352,0,0,1-.353.353H262.518a.353.353,0,1,1,0-.707H462.476a.352.352,0,0,1,.353.353Z" transform="translate(-262.165 -503.393)" fill="#ccc"/>
    <circle id="Ellipse_477" data-name="Ellipse 477" cx="63.852" cy="63.852" r="63.852" transform="translate(19.007 13.624)" fill="#e6e6e6"/>
    <path id="Path_12492" data-name="Path 12492" d="M466.048,264.834a54.867,54.867,0,0,1-22.176,44.105c-.46.344-.93.68-1.4,1.007a54.951,54.951,0,0,1-62.729,0c-.472-.327-.941-.662-1.4-1.007a54.948,54.948,0,0,1,0-88.211c.46-.345.93-.68,1.4-1.007a54.952,54.952,0,0,1,62.729,0c.472.327.941.662,1.4,1.007A54.867,54.867,0,0,1,466.048,264.834Z" transform="translate(-328.247 -187.358)" fill="#fff"/>
    <circle id="Ellipse_478" data-name="Ellipse 478" cx="50.191" cy="50.191" r="50.191" transform="translate(32.668 27.286)" fill="#3eabf4"/>
    <path id="Path_12493" data-name="Path 12493" d="M531.2,226.365c-.761,0-1.517.02-2.27.053a50.189,50.189,0,0,1-2.125,100.134c1.449.126,2.914.194,4.4.194a50.191,50.191,0,1,0,0-100.381Z" transform="translate(-448.211 -198.939)" opacity="0.2"/>
    <path id="Path_12494" data-name="Path 12494" d="M537.8,213.892a1.636,1.636,0,0,0-1.633,1.633v7.128a1.633,1.633,0,0,0,3.267,0v-7.128A1.636,1.636,0,0,0,537.8,213.892Z" transform="translate(-454.789 -190.17)" fill="#fff"/>
    <path id="Path_12495" data-name="Path 12495" d="M634.561,243.991c-.46-.344-.93-.68-1.4-1.007a1.632,1.632,0,0,0-1.455.71l-4.012,5.889a1.633,1.633,0,1,0,2.7,1.838l4.012-5.889A1.623,1.623,0,0,0,634.561,243.991Z" transform="translate(-518.936 -210.62)" fill="#fff"/>
    <path id="Path_12496" data-name="Path 12496" d="M689.792,334.393a1.631,1.631,0,0,0-2.126-.9l-6.6,2.682a1.633,1.633,0,1,0,1.23,3.026l6.6-2.682a1.637,1.637,0,0,0,.9-2.129Z" transform="translate(-555.938 -274.169)" fill="#fff"/>
    <path id="Path_12497" data-name="Path 12497" d="M437.405,249.583l-4.012-5.889a1.632,1.632,0,0,0-1.455-.71c-.472.327-.941.662-1.4,1.007a1.623,1.623,0,0,0,.157,1.541l4.012,5.889a1.633,1.633,0,0,0,2.7-1.838Z" transform="translate(-380.444 -210.62)" fill="#fff"/>
    <path id="Path_12498" data-name="Path 12498" d="M377.9,336.178l-6.6-2.682a1.633,1.633,0,1,0-1.23,3.026l6.6,2.682a1.633,1.633,0,0,0,1.23-3.026Z" transform="translate(-337.301 -274.169)" fill="#fff"/>
    <path id="Path_12499" data-name="Path 12499" d="M537.8,540.892a1.636,1.636,0,0,0-1.633,1.633v7.128a1.633,1.633,0,1,0,3.267,0v-7.128A1.636,1.636,0,0,0,537.8,540.892Z" transform="translate(-454.789 -420.056)" fill="#fff"/>
    <path id="Path_12500" data-name="Path 12500" d="M634.4,522.581l-4.012-5.889a1.633,1.633,0,1,0-2.7,1.838l4.012,5.889a1.633,1.633,0,0,0,1.455.71c.472-.327.941-.662,1.4-1.007A1.623,1.623,0,0,0,634.4,522.581Z" transform="translate(-518.936 -402.541)" fill="#fff"/>
    <path id="Path_12501" data-name="Path 12501" d="M688.9,439.178l-6.6-2.682a1.633,1.633,0,0,0-1.23,3.026l6.6,2.682a1.633,1.633,0,0,0,1.229-3.026Z" transform="translate(-555.938 -346.58)" fill="#fff"/>
    <path id="Path_12502" data-name="Path 12502" d="M436.975,516.261a1.633,1.633,0,0,0-2.269.431l-4.012,5.889a1.623,1.623,0,0,0-.157,1.541c.46.344.93.68,1.4,1.007a1.632,1.632,0,0,0,1.455-.71l4.012-5.889a1.633,1.633,0,0,0-.431-2.269Z" transform="translate(-380.444 -402.541)" fill="#fff"/>
    <path id="Path_12503" data-name="Path 12503" d="M378.792,437.393a1.631,1.631,0,0,0-2.126-.9l-6.6,2.682a1.633,1.633,0,1,0,1.229,3.026l6.605-2.682a1.637,1.637,0,0,0,.9-2.129Z" transform="translate(-337.301 -346.579)" fill="#fff"/>
    <path id="Path_12504" data-name="Path 12504" d="M464.13,385.434a3.419,3.419,0,0,1-2.794,3.94L432.35,394.3a3.415,3.415,0,1,1-1.145-6.734l28.985-4.93A3.419,3.419,0,0,1,464.13,385.434Z" transform="translate(-379.004 -308.768)" fill="#3f3d56"/>
    <path id="Path_12505" data-name="Path 12505" d="M568.642,418.026a2.23,2.23,0,0,1-3.15.012l-31.2-30.957a2.227,2.227,0,0,1,3.138-3.162l31.2,30.958A2.23,2.23,0,0,1,568.642,418.026Z" transform="translate(-453.009 -309.247)" fill="#3f3d56"/>
    <circle id="Ellipse_479" data-name="Ellipse 479" cx="3.861" cy="3.861" r="3.861" transform="translate(78.998 73.616)" fill="#ccc"/>
    <path id="Path_12506" data-name="Path 12506" d="M373.936,144.556c-5.926,9.317-14.969,15.5-26.12,19.563a2.1,2.1,0,0,1-2.935-.421h0a18.414,18.414,0,1,1,29.308-22.3l.168.224A2.1,2.1,0,0,1,373.936,144.556Z" transform="translate(-317.671 -134.027)" fill="#e6e6e6"/>
    <path id="Path_12507" data-name="Path 12507" d="M628.465,141.4a18.414,18.414,0,1,1,29.308,22.3h0a2.1,2.1,0,0,1-2.935.421c-10.352-3.963-18.841-10.822-26.12-19.563a2.1,2.1,0,0,1-.421-2.935Z" transform="translate(-519.267 -134.027)" fill="#e6e6e6"/>
    <path id="Path_12508" data-name="Path 12508" d="M619.129,580.67a1.636,1.636,0,0,0-.628,2.223l9.427,16.846a1.633,1.633,0,0,0,2.851-1.6L621.352,581.3A1.636,1.636,0,0,0,619.129,580.67Z" transform="translate(-512.529 -447.875)" fill="#e6e6e6"/>
    <path id="Path_12509" data-name="Path 12509" d="M430.926,581.3,421.5,598.141a1.633,1.633,0,0,0,2.851,1.6l9.427-16.846a1.633,1.633,0,0,0-2.851-1.6Z" transform="translate(-374.033 -447.872)" fill="#e6e6e6"/>
    <circle id="Ellipse_480" data-name="Ellipse 480" cx="5.049" cy="5.049" r="5.049" transform="translate(112.26 146.08)" fill="#e6e6e6"/>
    <circle id="Ellipse_481" data-name="Ellipse 481" cx="5.049" cy="5.049" r="5.049" transform="translate(115.824 16.891)" fill="#e6e6e6"/>
    <circle id="Ellipse_482" data-name="Ellipse 482" cx="5.049" cy="5.049" r="5.049" transform="translate(77.513 5.012)" fill="#e6e6e6"/>
    <circle id="Ellipse_483" data-name="Ellipse 483" cx="5.049" cy="5.049" r="5.049" transform="translate(40.983 16.297)" fill="#e6e6e6"/>
    <circle id="Ellipse_484" data-name="Ellipse 484" cx="5.049" cy="5.049" r="5.049" transform="translate(44.25 146.08)" fill="#e6e6e6"/>
    <path id="Path_12510" data-name="Path 12510" d="M642.86,481.441a2.529,2.529,0,0,0,3.846.5l7.922,4.245-.425-4.651-7.458-3.318a2.543,2.543,0,0,0-3.885,3.226Z" transform="translate(-529.512 -375.501)" fill="#ffb7b7"/>
    <path id="Path_12511" data-name="Path 12511" d="M663.264,486.055l3.1-4.285,14.956,7.07,18.611-3.492a6.377,6.377,0,0,1,7.552,6.255h0a6.383,6.383,0,0,1-6.365,6.388l-21.328.04Z" transform="translate(-544.143 -378.492)" fill="#3f3d56"/>
    <path id="Path_12512" data-name="Path 12512" d="M377.563,576.764l-3.141-1.5,4.315-13.129,4.636,2.217Z" transform="translate(-263.224 -395.185)" fill="#ffb7b7"/>
    <path id="Path_12513" data-name="Path 12513" d="M699.031,708.965c-.228.143-.457.284-.688.424-.459.281-.923.558-1.387.831-.233.136-.468.272-.7.406v.007l-.014,0,0,0-.355.088-.51-1.347-.235-.621-.332-.879-.609-1.608-3.207-8.467,4.986-1.23.187.764h0l.092.378L698,704.78l.355,1.444.012.044.215.863.185.747.205.835Z" transform="translate(-563.634 -529.502)" fill="#ffb7b7"/>
    <path id="Path_12514" data-name="Path 12514" d="M719.993,602.324c-.316.508-.639,1.013-.964,1.513q-.907,1.4-1.862,2.755s0,0,0,0a6.521,6.521,0,0,1-1.223.893c-.018.014-.039.023-.058.035a4.508,4.508,0,0,1-1.029.413l-.39.1c-.466.111-.927.205-1.387.288q-1.225.218-2.427.314c-.065.007-.129.012-.194.016a37.538,37.538,0,0,1-9.87-.787c-1.657-.314-3.348-.69-5.1-1.08-.572-.129-1.147-.256-1.728-.383l-.136-.03c-.831-.182-1.675-.362-2.54-.54-1.089-.224-2.213-.441-3.38-.646l.083,1.645a12.383,12.383,0,0,0,.78,3.7,6.383,6.383,0,0,1,.06,5.013l-.4,1.163a3.971,3.971,0,0,1-.408,3.514l-.081.122,3.348,8.47.217.549h-1.714l-2.109,0H683.9l-5.157-10.346-.247-.494V618.5l.533-19.881c.007-.175.021-.353.044-.528a6.044,6.044,0,0,1,2.3-4.07,5.821,5.821,0,0,1,4.335-1.186l1.765.228,3.606.466,2.54.33.051.007,7.491.969.538-2.192.1-.037,3.154-1.156,10.908-4,.028-.009.718-.263.085.138c.025.042.051.083.074.125a21.383,21.383,0,0,1,1.723,4,62.793,62.793,0,0,1,1.811,6.915q.031.152.055.277l.007.025c.007.039.012.065.014.072A6.451,6.451,0,0,1,719.993,602.324Z" transform="translate(-554.853 -452.597)" fill="#2f2e41"/>
    <path id="Path_12515" data-name="Path 12515" d="M696.966,587.626c-.035-.148-.078-.3-.125-.443a31.569,31.569,0,0,0-1.278-3.235c-.544-1.2-1.2-2.485-1.975-3.876q-.564-1.011-1.214-2.1-.325-.547-.676-1.114a.588.588,0,0,0-.03-.051l-.067-.111-10.793,1.444-4.019.538-.24,2-.058.5s0,0,0,0l-.161,1.352v0l-.215,1.786-.018,0-5.964-.773-6.146-.8-3.3-.427a5.818,5.818,0,0,0-4.335,1.186,6.048,6.048,0,0,0-2.3,4.07c-.021.161-.035.328-.042.491l-3.115,7.381a47.62,47.62,0,0,0-3.521,13.852l-2.284,7.3.325.03,4.841.45,1.278.12,2.815-4.109c.321-.468.625-.951.909-1.444a21.938,21.938,0,0,0,1.244-2.5l6.089-14.489q.706.121,1.4.231,3.2.519,6.146.847a72.422,72.422,0,0,0,16.833.164q2.073-.253,4.008-.664.71-.149,1.4-.321c.108-.025.215-.051.321-.078a5.888,5.888,0,0,0,4.118-3.848A6.007,6.007,0,0,0,696.966,587.626Z" transform="translate(-531.366 -445.226)" fill="#2f2e41"/>
    <path id="Path_12516" data-name="Path 12516" d="M622.528,733.745l-3.4-1.629-.533-.256-.851,2.09-5.943,1.308a1.41,1.41,0,0,0-.231,2.683l5.807,2.37,1.844-1.659-.452,2.226,2.187.893,2.4-7.63Z" transform="translate(-507.185 -554.309)" fill="#2f2e41"/>
    <path id="Path_12517" data-name="Path 12517" d="M458.7,593.34l.217.549H458.7Z" transform="translate(-322.475 -417.124)" fill="#2f2e41"/>
    <path id="Path_12518" data-name="Path 12518" d="M700.826,728.9l-3.561,1.234-.559.193.866,2.084-3.3,5.111a1.41,1.41,0,0,0,1.724,2.069l5.794-2.4.143-2.476,1.245,1.9,2.182-.9-3.665-7.108Z" transform="translate(-565.781 -552.02)" fill="#2f2e41"/>
    <path id="Path_12519" data-name="Path 12519" d="M769.376,522.563a1.308,1.308,0,0,1-.607-.151l-18.792-9.819-.217-.889-.409-2.813.006-.026,1.787-8.239c-.033-.071-.1-.187-.179-.318-.8-1.352-3.226-5.466,1.408-11.131l8.136-9.486,6.983-.3.079.1a18.188,18.188,0,0,1,3.092,16.9l-.727,13.132.78,2.652a7.318,7.318,0,0,1-.214,4.735l.179,4.294a1.312,1.312,0,0,1-1.305,1.364Z" transform="translate(-604.664 -376.82)" fill="#3f3d56"/>
    <path id="Path_12520" data-name="Path 12520" d="M752.778,633.774a2.529,2.529,0,0,0,.631-3.826l4.518-7.77-4.663.263-3.575,7.338a2.543,2.543,0,0,0,3.089,4Z" transform="translate(-604.366 -477.201)" fill="#ffb7b7"/>
    <path id="Path_12521" data-name="Path 12521" d="M758.149,537.815l-4.175-3.252,7.586-14.7-2.843-18.722a6.377,6.377,0,0,1,6.514-7.33h0a6.383,6.383,0,0,1,6.163,6.583l-.7,21.317Z" transform="translate(-607.913 -386.955)" fill="#3f3d56"/>
    <path id="a1ca5f83-7fa1-45b1-9d3b-bf096f25c0e5" d="M771.842,428.842v-6.91a9.259,9.259,0,0,1,18.518-.012v.012c1.632,3.4.611,5.017,0,6.91a1.245,1.245,0,0,1-1.243,1.243H773.086A1.245,1.245,0,0,1,771.842,428.842Z" transform="translate(-620.475 -329.912)" fill="#2f2e41"/>
    <circle id="Ellipse_485" data-name="Ellipse 485" cx="6.931" cy="6.931" r="6.931" transform="translate(150.659 85.863)" fill="#ffb7b7"/>
    <path id="Path_12522" data-name="Path 12522" d="M779.975,427.828c-.063-.01-.126-.023-.188-.033-1.081-.192-2.162-.38-3.24-.575l-.1-2.443-1.306,2.189a10.958,10.958,0,0,1-8.388-.8,23.679,23.679,0,0,1-2.513-1.385,9.185,9.185,0,0,1,4.513-6.5c.1-.056.2-.106.294-.155h0a0,0,0,0,0,0,0c.169-.079.341-.155.512-.225a7.635,7.635,0,0,1,8.014,1.554A9.12,9.12,0,0,1,779.975,427.828Z" transform="translate(-615.132 -333.218)" fill="#2f2e41"/>
  </g>
</svg>
