<svg xmlns="http://www.w3.org/2000/svg" width="18.314" height="18.314" viewBox="0 0 18.314 18.314">
  <g id="add" transform="translate(-6.25 -6.25)">
    <path id="Path_12478" data-name="Path 12478" d="M17.741,24.064a.866.866,0,0,1-.866-.866V7.616a.866.866,0,1,1,1.731,0V23.2A.866.866,0,0,1,17.741,24.064Z" transform="translate(-2.334 0)" fill="#f60"/>
    <path id="Path_12478_-_Outline" data-name="Path 12478 - Outline" d="M17.741,24.564A1.367,1.367,0,0,1,16.375,23.2V7.616a1.366,1.366,0,0,1,2.731,0V23.2A1.367,1.367,0,0,1,17.741,24.564Zm0-17.314a.366.366,0,0,0-.366.366V23.2a.366.366,0,0,0,.731,0V7.616A.366.366,0,0,0,17.741,7.25Z" transform="translate(-2.334 0)" fill="#f60"/>
    <path id="Path_12479" data-name="Path 12479" d="M23.2,18.606H7.616a.866.866,0,1,1,0-1.731H23.2a.866.866,0,1,1,0,1.731Z" transform="translate(0 -2.334)" fill="#f60"/>
    <path id="Path_12479_-_Outline" data-name="Path 12479 - Outline" d="M23.2,19.106H7.616a1.366,1.366,0,0,1,0-2.731H23.2a1.366,1.366,0,0,1,0,2.731ZM7.616,17.375a.366.366,0,0,0,0,.731H23.2a.366.366,0,0,0,0-.731Z" transform="translate(0 -2.334)" fill="#f60"/>
  </g>
</svg>
