<svg width="23" height="19" viewBox="0 0 23 19" fill="none" xmlns="http://www.w3.org/2000/svg">
<g clip-path="url(#clip0_1272_3970)">
<path d="M11.2637 2.93438L12.4637 1.73438L13.3967 2.66738L12.1967 3.86737L11.2637 2.93438Z" fill="#313201"/>
<path d="M7.76935 3.36523C6.71126 3.36735 5.6971 3.78861 4.94891 4.5368C4.20073 5.28499 3.77946 6.29914 3.77735 7.35723C3.77593 8.17384 4.02861 8.97066 4.50035 9.63723C5.26737 8.98892 6.17621 8.53023 7.15335 8.29823L7.79335 7.49323C8.44546 6.6696 9.29222 6.02113 10.2573 5.60623C10.557 5.4787 10.8651 5.37178 11.1793 5.28623C10.8231 4.70073 10.3225 4.21656 9.72535 3.88018C9.12823 3.5438 8.4547 3.36648 7.76935 3.36523Z" fill="#313201"/>
<path d="M7.0918 0.37207H8.4498V2.36107H7.0918V0.37207Z" fill="#313201"/>
<path d="M0.785156 6.67773H2.77416V8.03673H0.785156V6.67773Z" fill="#313201"/>
<path d="M3.19213 10.6952L3.15313 10.6562L1.95312 11.8563L2.88413 12.7873L4.08413 11.5872L3.19213 10.6952Z" fill="#313201"/>
<path d="M3.07948 1.7373L4.27948 2.9373L3.34648 3.8703L2.14648 2.6703L3.07948 1.7373Z" fill="#313201"/>
<path d="M18.9072 11.2674C18.6461 9.94738 17.9353 8.75878 16.8959 7.90426C15.8564 7.04975 14.5528 6.58222 13.2072 6.5814C12.4093 6.54899 11.6147 6.70208 10.886 7.02863C10.1572 7.35519 9.51409 7.84631 9.00721 8.4634C10.4224 8.53877 11.7627 9.12297 12.7812 10.1084C13.5283 10.8491 14.0658 11.7745 14.3392 12.7904H12.9452C12.628 11.8797 12.0337 11.0912 11.2457 10.5352C10.4577 9.97931 9.51553 9.6839 8.55121 9.6904C8.26295 9.69203 7.97544 9.71981 7.69221 9.7734C6.55271 9.98743 5.53409 10.619 4.83571 11.5445C4.13734 12.47 3.80947 13.6228 3.91629 14.7773C4.02311 15.9318 4.55692 17.0049 5.41325 17.7865C6.26958 18.5681 7.38678 19.0021 8.54621 19.0034H18.6392C19.6463 19.0098 20.6161 18.6233 21.3428 17.9262C22.0696 17.229 22.4959 16.276 22.5313 15.2695C22.5667 14.2631 22.2084 13.2825 21.5325 12.536C20.8565 11.7894 19.9162 11.3358 18.9112 11.2714L18.9072 11.2674Z" fill="#313201"/>
</g>
<defs>
<clipPath id="clip0_1272_3970">
<rect width="21.731" height="18.627" fill="white" transform="translate(0.785156 0.37207)"/>
</clipPath>
</defs>
</svg>
