<svg xmlns="http://www.w3.org/2000/svg" width="31.714" height="34.285" viewBox="0 0 31.714 34.285">
  <path id="audio" d="M23.571,7.753a11.491,11.491,0,0,1,0,21.3v2.4a13.744,13.744,0,0,0,0-26.1v2.4Zm0,5.656a6.578,6.578,0,0,1,0,9.989v2.438a8.585,8.585,0,0,0,0-14.862v2.437ZM3.857,25.268h6.857l7.714,9.441a1.985,1.985,0,0,0,3.429-.259V2.426A2.012,2.012,0,0,0,18.428,2.1l-7.714,9.474H3.857c-2.195,0-2.571.4-2.571,2.541V22.7c0,2.093.429,2.573,2.571,2.573Z" transform="translate(-1.286 -1.287)" fill="#101276"/>
</svg>
