<?xml version="1.0" encoding="UTF-8"?>
<svg xmlns="http://www.w3.org/2000/svg" xmlns:xlink="http://www.w3.org/1999/xlink" width="449pt" height="162.8pt" viewBox="0 0 449 162.8" version="1.1">
<g id="surface1">
<path style=" stroke:none;fill-rule:evenodd;fill:rgb(10.594177%,9.812927%,9.423828%);fill-opacity:1;" d="M 0.0546875 162.75 L 449.019531 162.75 L 449.019531 -0.0585938 L 0.0546875 -0.0585938 Z M 0.0546875 162.75 "/>
<path style=" stroke:none;fill-rule:evenodd;fill:rgb(100%,100%,100%);fill-opacity:1;" d="M 29.910156 87.335938 L 29.910156 80.582031 L 35.265625 80.582031 L 35.265625 48.003906 L 29.910156 48.003906 L 29.910156 41.253906 L 51.328125 41.253906 C 61.152344 41.253906 67.144531 45.777344 67.144531 53.644531 C 67.144531 58.804688 64.109375 61.984375 60.273438 63.496094 C 65.785156 65.003906 69.707031 68.898438 69.707031 74.222656 C 69.707031 82.640625 63.148438 87.332031 52.445313 87.332031 L 29.910156 87.332031 Z M 42.613281 48.003906 L 42.613281 60.558594 L 50.605469 60.558594 C 56.597656 60.558594 59.714844 58.335938 59.714844 54.28125 C 59.714844 50.148438 56.519531 48.003906 50.527344 48.003906 Z M 42.613281 80.582031 L 51.722656 80.582031 C 58.757813 80.582031 62.273438 78.273438 62.273438 73.824219 C 62.273438 69.460938 58.515625 67.074219 51.164063 67.074219 L 42.613281 67.074219 Z M 42.613281 80.582031 "/>
<path style=" stroke:none;fill-rule:evenodd;fill:rgb(100%,100%,100%);fill-opacity:1;" d="M 108.539063 63.339844 C 107.738281 60.636719 105.742188 59.046875 103.105469 59.046875 C 96.957031 59.046875 91.121094 63.574219 91.121094 71.839844 L 91.121094 80.582031 L 102.945313 80.582031 L 102.945313 87.335938 L 76.578125 87.335938 L 76.578125 80.582031 L 84.089844 80.582031 L 84.089844 60.238281 L 78.175781 60.238281 L 78.175781 53.484375 L 91.039063 53.484375 L 91.039063 59.210938 C 93.195313 55.234375 97.589844 52.371094 103.421875 52.371094 C 109.976563 52.371094 114.050781 56.105469 115.253906 61.429688 Z M 108.539063 63.339844 "/>
<path style=" stroke:none;fill-rule:evenodd;fill:rgb(100%,100%,100%);fill-opacity:1;" d="M 144.496094 67.628906 L 144.496094 65.722656 C 144.496094 60.953125 140.660156 58.96875 136.503906 58.96875 C 132.589844 58.96875 129.234375 60.554688 126.515625 63.019531 L 121.882813 58.015625 C 125.078125 55.074219 129.632813 52.371094 136.503906 52.371094 C 145.054688 52.371094 151.6875 56.902344 151.6875 65.480469 L 151.6875 80.582031 L 156.640625 80.582031 L 156.640625 87.335938 L 144.496094 87.335938 L 144.496094 83.757813 C 142.660156 86.695313 137.703125 88.445313 132.828125 88.445313 C 125.796875 88.445313 119.726563 84.867188 119.726563 77.796875 C 119.726563 69.460938 127.960938 66.277344 135.464844 66.277344 C 139.144531 66.277344 142.179688 66.992188 144.496094 67.628906 Z M 144.496094 73.664063 C 142.257813 72.871094 138.902344 72.234375 135.785156 72.234375 C 131.3125 72.234375 126.996094 73.664063 126.996094 77.71875 C 126.996094 80.734375 129.714844 82.164063 133.464844 82.164063 C 138.660156 82.164063 144.492188 79.386719 144.492188 74.617188 L 144.492188 73.664063 Z M 144.496094 73.664063 "/>
<path style=" stroke:none;fill-rule:evenodd;fill:rgb(100%,100%,100%);fill-opacity:1;" d="M 199.308594 80.582031 L 199.308594 87.335938 L 164.953125 87.335938 L 164.953125 80.582031 L 179.175781 80.582031 L 179.175781 60.238281 L 168.308594 60.238281 L 168.308594 53.484375 L 186.210938 53.484375 L 186.210938 80.582031 Z M 178.296875 46.730469 L 186.207031 46.730469 L 186.207031 36.402344 L 178.296875 36.402344 Z M 178.296875 46.730469 "/>
<path style=" stroke:none;fill-rule:evenodd;fill:rgb(100%,100%,100%);fill-opacity:1;" d="M 207.785156 80.582031 L 212.976563 80.582031 L 212.976563 60.238281 L 208.101563 60.238281 L 208.101563 53.484375 L 219.929688 53.484375 L 219.929688 57.851563 C 222.007813 54.515625 226.320313 52.371094 231.59375 52.371094 C 239.183594 52.371094 244.617188 57.140625 244.617188 64.847656 L 244.617188 80.582031 L 249.8125 80.582031 L 249.8125 87.332031 L 232.15625 87.332031 L 232.15625 80.582031 L 237.589844 80.582031 L 237.589844 66.753906 C 237.589844 60.878906 233.992188 59.210938 230.714844 59.210938 C 225.363281 59.210938 220.007813 63.179688 220.007813 69.296875 L 220.007813 80.582031 L 225.441406 80.582031 L 225.441406 87.335938 L 207.785156 87.335938 Z M 207.785156 80.582031 "/>
<path style=" stroke:none;fill-rule:evenodd;fill:rgb(100%,100%,100%);fill-opacity:1;" d="M 259.480469 60.238281 L 250.613281 60.238281 L 250.613281 53.484375 L 259.480469 53.484375 L 259.480469 41.253906 L 266.511719 41.253906 L 266.511719 53.484375 L 283.050781 53.484375 L 283.050781 60.238281 L 266.511719 60.238281 L 266.511719 74.464844 C 266.511719 79.707031 270.191406 81.851563 274.421875 81.851563 C 278.421875 81.851563 281.773438 79.628906 284.253906 77.160156 L 288.96875 82.007813 C 285.851563 85.347656 281.058594 88.445313 274.425781 88.445313 C 265.878906 88.445313 259.484375 83.757813 259.484375 74.699219 L 259.484375 60.238281 Z M 259.480469 60.238281 "/>
<path style=" stroke:none;fill-rule:evenodd;fill:rgb(100%,100%,100%);fill-opacity:1;" d="M 327.320313 63.339844 C 326.519531 60.636719 324.527344 59.046875 321.886719 59.046875 C 315.734375 59.046875 309.902344 63.574219 309.902344 71.839844 L 309.902344 80.582031 L 321.730469 80.582031 L 321.730469 87.335938 L 295.359375 87.335938 L 295.359375 80.582031 L 302.871094 80.582031 L 302.871094 60.238281 L 296.960938 60.238281 L 296.960938 53.484375 L 309.820313 53.484375 L 309.820313 59.210938 C 311.980469 55.234375 316.371094 52.371094 322.210938 52.371094 C 328.757813 52.371094 332.835938 56.105469 334.03125 61.429688 Z M 327.320313 63.339844 "/>
<path style=" stroke:none;fill-rule:evenodd;fill:rgb(100%,100%,100%);fill-opacity:1;" d="M 374.628906 82.164063 C 371.113281 85.820313 364.878906 88.445313 357.925781 88.445313 C 346.503906 88.445313 338.507813 80.816406 338.507813 70.410156 C 338.507813 60.003906 346.261719 52.371094 357.046875 52.371094 C 367.753906 52.371094 375.265625 60.558594 375.265625 71.679688 L 375.265625 72.871094 L 345.941406 72.871094 C 347.136719 78.511719 351.855469 81.925781 358.007813 81.925781 C 363.121094 81.925781 367.511719 79.863281 369.914063 77.242188 Z M 346.261719 66.914063 L 367.191406 66.914063 C 366.15625 62.066406 361.839844 58.808594 357.046875 58.808594 C 351.613281 58.808594 347.464844 62.144531 346.261719 66.914063 Z M 346.261719 66.914063 "/>
<path style=" stroke:none;fill-rule:evenodd;fill:rgb(100%,100%,100%);fill-opacity:1;" d="M 418.335938 82.164063 C 414.820313 85.820313 408.589844 88.445313 401.636719 88.445313 C 390.214844 88.445313 382.21875 80.816406 382.21875 70.410156 C 382.21875 60.003906 389.96875 52.371094 400.757813 52.371094 C 411.464844 52.371094 418.976563 60.558594 418.976563 71.679688 L 418.976563 72.871094 L 389.648438 72.871094 C 390.847656 78.511719 395.5625 81.925781 401.714844 81.925781 C 406.828125 81.925781 411.222656 79.863281 413.621094 77.242188 Z M 389.96875 66.914063 L 410.902344 66.914063 C 409.863281 62.066406 405.550781 58.808594 400.757813 58.808594 C 395.324219 58.808594 391.171875 62.144531 389.96875 66.914063 Z M 389.96875 66.914063 "/>
<path style=" stroke:none;fill-rule:evenodd;fill:rgb(100%,100%,100%);fill-opacity:1;" d="M 225.425781 108.507813 L 221.699219 115.652344 L 226.894531 115.652344 Z M 220.78125 117.425781 L 218.984375 120.886719 L 216.769531 120.886719 L 224.839844 105.769531 L 226.828125 105.769531 L 230.09375 120.886719 L 227.988281 120.886719 L 227.265625 117.425781 Z M 220.78125 117.425781 "/>
<path style=" stroke:none;fill-rule:evenodd;fill:rgb(100%,100%,100%);fill-opacity:1;" d="M 359.175781 119.570313 C 359.96875 119.570313 360.628906 119.421875 361.148438 119.121094 C 361.675781 118.820313 362.0625 118.4375 362.308594 117.96875 C 362.558594 117.503906 362.683594 117.023438 362.683594 116.523438 C 362.683594 116.089844 362.5625 115.714844 362.320313 115.394531 C 362.085938 115.085938 361.671875 114.777344 361.085938 114.488281 L 359.175781 113.675781 C 358.09375 113.195313 357.316406 112.667969 356.84375 112.097656 C 356.367188 111.53125 356.132813 110.839844 356.132813 110.015625 C 356.132813 109.128906 356.355469 108.339844 356.8125 107.660156 C 357.261719 106.980469 357.894531 106.464844 358.710938 106.09375 C 359.515625 105.730469 360.449219 105.546875 361.503906 105.546875 C 362.378906 105.5625 363.144531 105.683594 363.800781 105.90625 C 364.460938 106.132813 365.035156 106.472656 365.53125 106.925781 L 365.203125 108.964844 C 364.078125 107.941406 362.769531 107.421875 361.28125 107.410156 C 360.378906 107.410156 359.632813 107.636719 359.058594 108.089844 C 358.480469 108.542969 358.191406 109.117188 358.191406 109.820313 C 358.191406 110.214844 358.335938 110.550781 358.617188 110.832031 C 358.902344 111.105469 359.425781 111.417969 360.183594 111.769531 L 362.046875 112.601563 C 363.054688 113.097656 363.769531 113.636719 364.183594 114.214844 C 364.601563 114.789063 364.808594 115.480469 364.808594 116.28125 C 364.808594 117.207031 364.613281 118.050781 364.21875 118.828125 C 363.824219 119.597656 363.1875 120.230469 362.308594 120.71875 C 361.433594 121.214844 360.308594 121.457031 358.9375 121.457031 C 357.050781 121.457031 355.570313 120.976563 354.488281 120.03125 L 354.839844 117.859375 C 356.136719 119.003906 357.589844 119.570313 359.175781 119.570313 Z M 359.175781 119.570313 "/>
<path style=" stroke:none;fill-rule:evenodd;fill:rgb(100%,100%,100%);fill-opacity:1;" d="M 369.730469 112.480469 C 369.035156 113.089844 368.566406 113.820313 368.316406 114.683594 L 374.671875 114.683594 C 374.6875 114.566406 374.691406 114.40625 374.691406 114.207031 C 374.691406 113.382813 374.476563 112.742188 374.035156 112.273438 C 373.597656 111.804688 372.976563 111.578125 372.171875 111.578125 C 371.238281 111.578125 370.425781 111.878906 369.730469 112.480469 Z M 375.492188 111.121094 C 376.214844 111.917969 376.578125 112.957031 376.578125 114.222656 C 376.578125 114.648438 376.554688 114.996094 376.511719 115.273438 C 376.46875 115.554688 376.394531 115.882813 376.296875 116.261719 L 368.054688 116.261719 C 368.011719 117.355469 368.296875 118.207031 368.90625 118.792969 C 369.519531 119.382813 370.355469 119.679688 371.40625 119.679688 C 372.136719 119.679688 372.800781 119.589844 373.402344 119.40625 C 374.003906 119.222656 374.589844 118.953125 375.175781 118.585938 L 374.914063 120.226563 C 373.789063 120.988281 372.460938 121.367188 370.925781 121.367188 C 369.921875 121.367188 369.046875 121.152344 368.304688 120.71875 C 367.570313 120.289063 367.003906 119.695313 366.617188 118.933594 C 366.230469 118.175781 366.039063 117.320313 366.039063 116.371094 C 366.039063 115.433594 366.269531 114.46875 366.738281 113.46875 C 367.210938 112.46875 367.921875 111.628906 368.863281 110.945313 C 369.8125 110.269531 370.980469 109.929688 372.371094 109.929688 C 373.730469 109.929688 374.769531 110.332031 375.492188 111.121094 Z M 375.492188 111.121094 "/>
<path style=" stroke:none;fill-rule:evenodd;fill:rgb(100%,100%,100%);fill-opacity:1;" d="M 383.339844 111.921875 C 382.472656 111.921875 381.742188 112.234375 381.144531 112.855469 C 380.546875 113.472656 380.148438 114.378906 379.964844 115.558594 L 379.105469 120.972656 L 377.15625 120.972656 L 378.84375 110.277344 L 380.726563 110.277344 L 380.441406 112.097656 C 381.320313 110.839844 382.371094 110.214844 383.597656 110.214844 C 383.90625 110.214844 384.191406 110.234375 384.453125 110.277344 L 384.191406 111.988281 C 383.925781 111.945313 383.640625 111.921875 383.339844 111.921875 Z M 383.339844 111.921875 "/>
<path style=" stroke:none;fill-rule:evenodd;fill:rgb(100%,100%,100%);fill-opacity:1;" d="M 389.195313 120.972656 L 387.378906 120.972656 L 384.839844 110.28125 L 386.785156 110.28125 L 388.605469 118.628906 L 393.050781 110.28125 L 395.089844 110.28125 Z M 389.195313 120.972656 "/>
<path style=" stroke:none;fill-rule:evenodd;fill:rgb(100%,100%,100%);fill-opacity:1;" d="M 396.511719 108.21875 C 396.3125 108.015625 396.214844 107.761719 396.214844 107.457031 C 396.214844 107.078125 396.359375 106.746094 396.652344 106.464844 C 396.945313 106.1875 397.28125 106.050781 397.660156 106.050781 C 397.96875 106.050781 398.21875 106.152344 398.421875 106.355469 C 398.613281 106.5625 398.714844 106.816406 398.714844 107.128906 C 398.714844 107.488281 398.566406 107.8125 398.273438 108.097656 C 397.984375 108.382813 397.644531 108.527344 397.265625 108.527344 C 396.964844 108.527344 396.710938 108.425781 396.511719 108.21875 Z M 396.28125 120.972656 L 394.328125 120.972656 L 395.972656 110.28125 L 397.945313 110.28125 Z M 396.28125 120.972656 "/>
<path style=" stroke:none;fill-rule:evenodd;fill:rgb(100%,100%,100%);fill-opacity:1;" d="M 400.847656 120.714844 C 400.128906 120.273438 399.566406 119.675781 399.160156 118.921875 C 398.753906 118.171875 398.546875 117.34375 398.546875 116.4375 C 398.546875 115.296875 398.804688 114.230469 399.324219 113.238281 C 399.84375 112.242188 400.59375 111.445313 401.585938 110.839844 C 402.566406 110.234375 403.726563 109.929688 405.054688 109.929688 C 406.339844 109.929688 407.382813 110.253906 408.1875 110.894531 L 407.859375 112.886719 C 407.113281 112.097656 406.140625 111.707031 404.945313 111.707031 C 404.097656 111.707031 403.339844 111.917969 402.675781 112.351563 C 402.011719 112.78125 401.496094 113.347656 401.132813 114.046875 C 400.765625 114.753906 400.585938 115.503906 400.585938 116.304688 C 400.585938 117.285156 400.859375 118.078125 401.421875 118.683594 C 401.972656 119.289063 402.730469 119.589844 403.695313 119.589844 C 404.296875 119.589844 404.894531 119.480469 405.492188 119.261719 C 406.089844 119.042969 406.628906 118.722656 407.089844 118.300781 L 406.785156 120.316406 C 406.214844 120.695313 405.644531 120.964844 405.078125 121.128906 C 404.507813 121.285156 403.898438 121.367188 403.257813 121.367188 C 402.367188 121.367188 401.5625 121.148438 400.847656 120.714844 Z M 400.847656 120.714844 "/>
<path style=" stroke:none;fill-rule:evenodd;fill:rgb(100%,100%,100%);fill-opacity:1;" d="M 412.128906 112.480469 C 411.433594 113.089844 410.964844 113.820313 410.714844 114.683594 L 417.070313 114.683594 C 417.085938 114.566406 417.089844 114.40625 417.089844 114.207031 C 417.089844 113.382813 416.871094 112.742188 416.433594 112.273438 C 415.996094 111.804688 415.378906 111.578125 414.570313 111.578125 C 413.636719 111.578125 412.820313 111.878906 412.128906 112.480469 Z M 417.890625 111.121094 C 418.613281 111.917969 418.976563 112.957031 418.976563 114.222656 C 418.976563 114.648438 418.953125 114.996094 418.910156 115.273438 C 418.867188 115.554688 418.796875 115.882813 418.691406 116.261719 L 410.449219 116.261719 C 410.40625 117.355469 410.691406 118.207031 411.304688 118.792969 C 411.921875 119.382813 412.753906 119.679688 413.804688 119.679688 C 414.535156 119.679688 415.199219 119.589844 415.800781 119.40625 C 416.398438 119.222656 416.988281 118.953125 417.574219 118.585938 L 417.308594 120.226563 C 416.183594 120.988281 414.855469 121.367188 413.320313 121.367188 C 412.316406 121.367188 411.441406 121.152344 410.703125 120.71875 C 409.964844 120.289063 409.402344 119.695313 409.015625 118.933594 C 408.628906 118.175781 408.433594 117.320313 408.433594 116.371094 C 408.433594 115.433594 408.671875 114.46875 409.136719 113.46875 C 409.605469 112.46875 410.3125 111.628906 411.261719 110.945313 C 412.214844 110.269531 413.378906 109.929688 414.765625 109.929688 C 416.128906 109.929688 417.171875 110.332031 417.890625 111.121094 Z M 417.890625 111.121094 "/>
<path style=" stroke:none;fill-rule:evenodd;fill:rgb(100%,100%,100%);fill-opacity:1;" d="M 312.941406 105.703125 C 312.488281 108.679688 310.214844 108.679688 308.015625 108.679688 L 306.761719 108.679688 L 307.640625 103.121094 C 307.691406 102.785156 307.984375 102.535156 308.324219 102.535156 L 308.898438 102.535156 C 310.394531 102.535156 311.808594 102.535156 312.535156 103.390625 C 312.972656 103.898438 313.105469 104.65625 312.941406 105.703125 Z M 311.984375 97.933594 L 303.691406 97.933594 C 303.128906 97.933594 302.640625 98.347656 302.550781 98.90625 L 299.199219 120.171875 C 299.132813 120.589844 299.460938 120.96875 299.882813 120.96875 L 304.136719 120.96875 C 304.535156 120.96875 304.871094 120.679688 304.933594 120.289063 L 305.882813 114.261719 C 305.972656 113.707031 306.453125 113.289063 307.023438 113.289063 L 309.644531 113.289063 C 315.109375 113.289063 318.261719 110.644531 319.089844 105.40625 C 319.460938 103.113281 319.101563 101.3125 318.027344 100.054688 C 316.847656 98.667969 314.757813 97.933594 311.984375 97.933594 Z M 311.984375 97.933594 "/>
<path style=" stroke:none;fill-rule:evenodd;fill:rgb(100%,100%,100%);fill-opacity:1;" d="M 253.796875 105.703125 C 253.339844 108.679688 251.066406 108.679688 248.867188 108.679688 L 247.617188 108.679688 L 248.492188 103.121094 C 248.546875 102.785156 248.839844 102.535156 249.175781 102.535156 L 249.753906 102.535156 C 251.246094 102.535156 252.660156 102.535156 253.386719 103.390625 C 253.824219 103.898438 253.960938 104.65625 253.796875 105.703125 Z M 252.839844 97.933594 L 244.546875 97.933594 C 243.976563 97.933594 243.492188 98.347656 243.40625 98.90625 L 240.050781 120.171875 C 239.984375 120.589844 240.308594 120.96875 240.734375 120.96875 L 244.691406 120.96875 C 245.261719 120.96875 245.742188 120.558594 245.835938 119.996094 L 246.738281 114.261719 C 246.824219 113.707031 247.308594 113.289063 247.878906 113.289063 L 250.503906 113.289063 C 255.964844 113.289063 259.113281 110.644531 259.9375 105.40625 C 260.308594 103.113281 259.953125 101.3125 258.878906 100.054688 C 257.699219 98.667969 255.609375 97.933594 252.839844 97.933594 Z M 252.839844 97.933594 "/>
<path style=" stroke:none;fill-rule:evenodd;fill:rgb(100%,100%,100%);fill-opacity:1;" d="M 272.089844 113.339844 C 271.703125 115.605469 269.902344 117.128906 267.605469 117.128906 C 266.453125 117.128906 265.53125 116.757813 264.9375 116.054688 C 264.351563 115.359375 264.128906 114.367188 264.316406 113.265625 C 264.675781 111.015625 266.503906 109.445313 268.765625 109.445313 C 269.894531 109.445313 270.808594 109.820313 271.414063 110.527344 C 272.023438 111.238281 272.261719 112.238281 272.089844 113.339844 Z M 277.621094 105.605469 L 273.652344 105.605469 C 273.3125 105.605469 273.019531 105.851563 272.96875 106.1875 L 272.796875 107.300781 L 272.515625 106.898438 C 271.65625 105.648438 269.738281 105.230469 267.824219 105.230469 C 263.4375 105.230469 259.691406 108.554688 258.964844 113.21875 C 258.585938 115.546875 259.121094 117.769531 260.441406 119.320313 C 261.652344 120.746094 263.378906 121.339844 265.441406 121.339844 C 268.976563 121.339844 270.9375 119.066406 270.9375 119.066406 L 270.761719 120.171875 C 270.695313 120.589844 271.019531 120.96875 271.445313 120.96875 L 275.019531 120.96875 C 275.589844 120.96875 276.070313 120.558594 276.15625 119.996094 L 278.304688 106.40625 C 278.371094 105.984375 278.046875 105.605469 277.621094 105.605469 Z M 277.621094 105.605469 "/>
<path style=" stroke:none;fill-rule:evenodd;fill:rgb(100%,100%,100%);fill-opacity:1;" d="M 331.234375 113.339844 C 330.851563 115.605469 329.050781 117.128906 326.753906 117.128906 C 325.601563 117.128906 324.679688 116.757813 324.089844 116.054688 C 323.503906 115.359375 323.277344 114.367188 323.464844 113.265625 C 323.820313 111.015625 325.652344 109.445313 327.914063 109.445313 C 329.046875 109.445313 329.960938 109.820313 330.5625 110.527344 C 331.171875 111.238281 331.410156 112.238281 331.234375 113.339844 Z M 336.769531 105.605469 L 332.796875 105.605469 C 332.460938 105.605469 332.171875 105.851563 332.117188 106.1875 L 331.941406 107.300781 L 331.664063 106.898438 C 330.804688 105.648438 328.886719 105.230469 326.972656 105.230469 C 322.589844 105.230469 318.839844 108.554688 318.109375 113.21875 C 317.730469 115.546875 318.269531 117.769531 319.589844 119.320313 C 320.800781 120.746094 322.527344 121.339844 324.589844 121.339844 C 328.128906 121.339844 330.089844 119.066406 330.089844 119.066406 L 329.910156 120.171875 C 329.84375 120.589844 330.171875 120.96875 330.589844 120.96875 L 334.171875 120.96875 C 334.734375 120.96875 335.214844 120.558594 335.304688 119.996094 L 337.453125 106.40625 C 337.519531 105.984375 337.195313 105.605469 336.769531 105.605469 Z M 336.769531 105.605469 "/>
<path style=" stroke:none;fill-rule:evenodd;fill:rgb(100%,100%,100%);fill-opacity:1;" d="M 298.769531 105.605469 L 294.78125 105.605469 C 294.398438 105.605469 294.039063 105.792969 293.828125 106.113281 L 288.320313 114.21875 L 285.988281 106.429688 C 285.84375 105.9375 285.394531 105.605469 284.882813 105.605469 L 280.964844 105.605469 C 280.484375 105.605469 280.152344 106.070313 280.308594 106.519531 L 284.699219 119.421875 L 280.566406 125.253906 C 280.242188 125.714844 280.570313 126.34375 281.132813 126.34375 L 285.117188 126.34375 C 285.496094 126.34375 285.851563 126.15625 286.066406 125.847656 L 299.339844 106.691406 C 299.65625 106.230469 299.328125 105.605469 298.769531 105.605469 Z M 298.769531 105.605469 "/>
<path style=" stroke:none;fill-rule:evenodd;fill:rgb(100%,100%,100%);fill-opacity:1;" d="M 341.449219 98.519531 L 338.046875 120.171875 C 337.980469 120.589844 338.304688 120.96875 338.730469 120.96875 L 342.152344 120.96875 C 342.71875 120.96875 343.203125 120.558594 343.289063 119.996094 L 346.644531 98.734375 C 346.714844 98.3125 346.386719 97.933594 345.964844 97.933594 L 342.132813 97.933594 C 341.796875 97.933594 341.503906 98.179688 341.449219 98.519531 Z M 341.449219 98.519531 "/>
</g>
</svg>
