<svg width="19" height="19" viewBox="0 0 19 19" fill="none" xmlns="http://www.w3.org/2000/svg">
<g clip-path="url(#clip0_1272_407)">
<path d="M15.5442 1.90391H14.9012V1.27891C14.9029 1.11153 14.8404 0.94988 14.7266 0.827141C14.6127 0.704402 14.4563 0.629893 14.2892 0.618912C14.2023 0.614716 14.1154 0.62821 14.0339 0.658577C13.9523 0.688944 13.8778 0.735552 13.8148 0.795576C13.7517 0.855601 13.7016 0.927793 13.6673 1.00778C13.633 1.08777 13.6153 1.17388 13.6152 1.26091V1.90391H4.61523V1.27891C4.61687 1.11153 4.55437 0.94988 4.44056 0.827141C4.32674 0.704402 4.17026 0.629893 4.00323 0.618912C3.91631 0.614716 3.82943 0.62821 3.74787 0.658577C3.66631 0.688944 3.59177 0.735552 3.52875 0.795576C3.46574 0.855601 3.41556 0.927793 3.38126 1.00778C3.34697 1.08777 3.32927 1.17388 3.32923 1.26091V1.90391H2.68623C2.34852 1.90391 2.01412 1.97045 1.70212 2.09971C1.39013 2.22898 1.10666 2.41845 0.867909 2.65729C0.629157 2.89614 0.439799 3.17968 0.310653 3.49173C0.181507 3.80377 0.115103 4.1382 0.115235 4.47591V16.0469C0.115235 16.7288 0.386107 17.3827 0.868263 17.8649C1.35042 18.347 2.00436 18.6179 2.68623 18.6179H15.5442C15.8819 18.6179 16.2162 18.5514 16.5281 18.4222C16.84 18.293 17.1235 18.1036 17.3622 17.8649C17.6009 17.6261 17.7903 17.3427 17.9195 17.0308C18.0487 16.7189 18.1152 16.3845 18.1152 16.0469V4.47591C18.1154 4.1382 18.049 3.80377 17.9198 3.49173C17.7907 3.17968 17.6013 2.89614 17.3626 2.65729C17.1238 2.41845 16.8403 2.22898 16.5283 2.09971C16.2164 1.97045 15.8819 1.90391 15.5442 1.90391ZM4.29423 16.0469C4.10338 16.0469 3.9168 15.9903 3.75811 15.8843C3.59942 15.7782 3.47573 15.6275 3.40269 15.4512C3.32965 15.2749 3.31054 15.0808 3.34778 14.8937C3.38501 14.7065 3.47692 14.5345 3.61188 14.3996C3.74683 14.2646 3.91878 14.1727 4.10597 14.1355C4.29316 14.0982 4.48719 14.1173 4.66352 14.1904C4.83985 14.2634 4.99057 14.3871 5.0966 14.5458C5.20264 14.7045 5.25923 14.8911 5.25923 15.0819C5.25923 15.3378 5.15757 15.5833 4.97659 15.7643C4.79562 15.9452 4.55017 16.0469 4.29423 16.0469ZM4.29423 12.8329C4.10338 12.8329 3.9168 12.7763 3.75811 12.6703C3.59942 12.5642 3.47573 12.4135 3.40269 12.2372C3.32965 12.0609 3.31054 11.8668 3.34778 11.6797C3.38501 11.4925 3.47692 11.3205 3.61188 11.1856C3.74683 11.0506 3.91878 10.9587 4.10597 10.9215C4.29316 10.8842 4.48719 10.9033 4.66352 10.9764C4.83985 11.0494 4.99057 11.1731 5.0966 11.3318C5.20264 11.4905 5.25923 11.6771 5.25923 11.8679C5.25923 12.1238 5.15757 12.3693 4.97659 12.5503C4.79562 12.7312 4.55017 12.8329 4.29423 12.8329ZM7.50823 16.0469C7.31738 16.0469 7.1308 15.9903 6.97211 15.8843C6.81342 15.7782 6.68973 15.6275 6.61669 15.4512C6.54365 15.2749 6.52454 15.0808 6.56178 14.8937C6.59901 14.7065 6.69092 14.5345 6.82588 14.3996C6.96083 14.2646 7.13278 14.1727 7.31997 14.1355C7.50716 14.0982 7.70119 14.1173 7.87752 14.1904C8.05385 14.2634 8.20457 14.3871 8.3106 14.5458C8.41664 14.7045 8.47323 14.8911 8.47323 15.0819C8.47323 15.3378 8.37157 15.5833 8.19059 15.7643C8.00962 15.9452 7.76417 16.0469 7.50823 16.0469ZM7.50823 12.8329C7.31738 12.8329 7.1308 12.7763 6.97211 12.6703C6.81342 12.5642 6.68973 12.4135 6.61669 12.2372C6.54365 12.0609 6.52454 11.8668 6.56178 11.6797C6.59901 11.4925 6.69092 11.3205 6.82588 11.1856C6.96083 11.0506 7.13278 10.9587 7.31997 10.9215C7.50716 10.8842 7.70119 10.9033 7.87752 10.9764C8.05385 11.0494 8.20457 11.1731 8.3106 11.3318C8.41664 11.4905 8.47323 11.6771 8.47323 11.8679C8.47323 12.1238 8.37157 12.3693 8.19059 12.5503C8.00962 12.7312 7.76417 12.8329 7.50823 12.8329ZM10.7222 16.0469C10.5314 16.0469 10.3448 15.9903 10.1861 15.8843C10.0274 15.7782 9.90373 15.6275 9.83069 15.4512C9.75765 15.2749 9.73854 15.0808 9.77578 14.8937C9.81301 14.7065 9.90492 14.5345 10.0399 14.3996C10.1748 14.2646 10.3468 14.1727 10.534 14.1355C10.7212 14.0982 10.9152 14.1173 11.0915 14.1904C11.2679 14.2634 11.4186 14.3871 11.5246 14.5458C11.6306 14.7045 11.6872 14.8911 11.6872 15.0819C11.6872 15.3377 11.5857 15.583 11.4049 15.7639C11.2242 15.9449 10.978 16.0466 10.7222 16.0469ZM10.7222 12.8329C10.5314 12.8329 10.3448 12.7763 10.1861 12.6703C10.0274 12.5642 9.90373 12.4135 9.83069 12.2372C9.75765 12.0609 9.73854 11.8668 9.77578 11.6797C9.81301 11.4925 9.90492 11.3205 10.0399 11.1856C10.1748 11.0506 10.3468 10.9587 10.534 10.9215C10.7212 10.8842 10.9152 10.9033 11.0915 10.9764C11.2679 11.0494 11.4186 11.1731 11.5246 11.3318C11.6306 11.4905 11.6872 11.6771 11.6872 11.8679C11.6872 12.1237 11.5857 12.369 11.4049 12.5499C11.2242 12.7309 10.978 12.8326 10.7222 12.8329ZM10.7222 9.61891C10.5314 9.61891 10.3448 9.56232 10.1861 9.45628C10.0274 9.35025 9.90373 9.19953 9.83069 9.0232C9.75765 8.84687 9.73854 8.65284 9.77578 8.46565C9.81301 8.27846 9.90492 8.10651 10.0399 7.97155C10.1748 7.8366 10.3468 7.74469 10.534 7.70745C10.7212 7.67022 10.9152 7.68933 11.0915 7.76237C11.2679 7.83541 11.4186 7.95909 11.5246 8.11779C11.6306 8.27648 11.6872 8.46305 11.6872 8.65391C11.6872 8.90967 11.5857 9.15497 11.4049 9.33592C11.2242 9.51686 10.978 9.61865 10.7222 9.61891ZM13.9362 12.8329C13.7454 12.8329 13.5588 12.7763 13.4001 12.6703C13.2414 12.5642 13.1177 12.4135 13.0447 12.2372C12.9717 12.0609 12.9525 11.8668 12.9898 11.6797C13.027 11.4925 13.1189 11.3205 13.2539 11.1856C13.3888 11.0506 13.5608 10.9587 13.748 10.9215C13.9352 10.8842 14.1292 10.9033 14.3055 10.9764C14.4819 11.0494 14.6326 11.1731 14.7386 11.3318C14.8446 11.4905 14.9012 11.6771 14.9012 11.8679C14.9012 12.1237 14.7997 12.369 14.6189 12.5499C14.4382 12.7309 14.193 12.8326 13.9372 12.8329H13.9362ZM13.9362 9.61891C13.7454 9.61891 13.5588 9.56232 13.4001 9.45628C13.2414 9.35025 13.1177 9.19953 13.0447 9.0232C12.9717 8.84687 12.9525 8.65284 12.9898 8.46565C13.027 8.27846 13.1189 8.10651 13.2539 7.97155C13.3888 7.8366 13.5608 7.74469 13.748 7.70745C13.9352 7.67022 14.1292 7.68933 14.3055 7.76237C14.4819 7.83541 14.6326 7.95909 14.7386 8.11779C14.8446 8.27648 14.9012 8.46305 14.9012 8.65391C14.9012 8.90967 14.7997 9.15497 14.6189 9.33592C14.4382 9.51686 14.193 9.61865 13.9372 9.61891H13.9362ZM16.8292 4.79691V5.43991C16.8292 5.52531 16.7953 5.60721 16.7349 5.6676C16.6745 5.72799 16.5926 5.76191 16.5072 5.76191H1.72223C1.63683 5.76191 1.55493 5.72799 1.49455 5.6676C1.43416 5.60721 1.40023 5.52531 1.40023 5.43991V4.47491C1.40103 4.13409 1.53677 3.80745 1.77777 3.56645C2.01877 3.32545 2.34541 3.1897 2.68623 3.18891H15.5442C15.8851 3.1897 16.2117 3.32545 16.4527 3.56645C16.6937 3.80745 16.8294 4.13409 16.8302 4.47491L16.8292 4.79691Z" fill="#313201"/>
</g>
<defs>
<clipPath id="clip0_1272_407">
<rect width="18" height="18" fill="white" transform="translate(0.115234 0.619141)"/>
</clipPath>
</defs>
</svg>
