<svg xmlns="http://www.w3.org/2000/svg" width="18" height="18" viewBox="0 0 18 18">
  <g id="Group_3225" data-name="Group 3225" transform="translate(-35.46 -413)">
    <path id="chat" d="M15.75,14.625V18q-.123-.07-.351-.211a9.734,9.734,0,0,1-.949-.773,14.512,14.512,0,0,1-1.441-1.477,7.363,7.363,0,0,1-1.758.211,9.981,9.981,0,0,1-2.364-.264,6.984,6.984,0,0,1-1.767-.65,5.574,5.574,0,0,1-1.169-.862,3.443,3.443,0,0,1-.685-.879,1.657,1.657,0,0,1-.2-.72H6.75a9.776,9.776,0,0,0,4.034-.791,6.492,6.492,0,0,0,2.8-2.338,6.344,6.344,0,0,0,1.037-3.621Q18,7.33,18,10.406a5.123,5.123,0,0,1-2.25,4.219ZM14.625,5.625ZM6.75,11.25a7.363,7.363,0,0,1-1.758-.211A15.3,15.3,0,0,1,3.586,12.5a7.3,7.3,0,0,1-1.02.808L2.25,13.5V10.125A5.122,5.122,0,0,1,0,5.907,5.246,5.246,0,0,1,.905,2.945,6.337,6.337,0,0,1,3.366.791,7.374,7.374,0,0,1,6.759,0a7.374,7.374,0,0,1,3.393.791A6.276,6.276,0,0,1,12.6,2.945a5.273,5.273,0,0,1,.9,2.962,4.629,4.629,0,0,1-.914,2.83,5.722,5.722,0,0,1-2.444,1.872A8.693,8.693,0,0,1,6.75,11.25Zm0-10.125a6.639,6.639,0,0,0-2.822.6A5.14,5.14,0,0,0,1.881,3.358a3.752,3.752,0,0,0,0,4.518A5.209,5.209,0,0,0,3.929,9.519a6.572,6.572,0,0,0,2.821.606,6.537,6.537,0,0,0,2.821-.606,5.224,5.224,0,0,0,2.048-1.643,3.752,3.752,0,0,0,0-4.518A5.172,5.172,0,0,0,9.571,1.723,6.6,6.6,0,0,0,6.75,1.125Z" transform="translate(35.46 413)" fill="#101276"/>
  </g>
</svg>
