<svg xmlns="http://www.w3.org/2000/svg" width="12" height="12" viewBox="0 0 12 12">
  <g id="Group_3225" data-name="Group 3225" transform="translate(-48 -392)">
    <g id="check-circle-fill" transform="translate(48 392)">
      <path id="Path_12409" data-name="Path 12409" d="M12,6A6,6,0,1,1,6,0,6,6,0,0,1,12,6ZM9.022,3.728a.563.563,0,0,0-.81.016l-2.6,3.319-1.57-1.57a.563.563,0,0,0-.8.8L5.227,8.272a.563.563,0,0,0,.809-.015L9.031,4.515a.563.563,0,0,0-.007-.788Z" fill="#f60" fill-rule="evenodd"/>
    </g>
  </g>
</svg>
