<svg xmlns="http://www.w3.org/2000/svg" width="13.516" height="14.417" viewBox="0 0 13.516 14.417">
  <g id="Group_3224" data-name="Group 3224" transform="translate(-47 -389.292)">
    <g id="user-solid-badged" transform="translate(42 388.292)">
      <path id="Path_12406" data-name="Path 12406" d="M16.538,21.486a7.731,7.731,0,0,0-11.362,0A.68.68,0,0,0,5,21.937v2.7a.676.676,0,0,0,.676.667H16.038a.676.676,0,0,0,.676-.676v-2.7a.68.68,0,0,0-.176-.442Z" transform="translate(0 -9.89)" fill="#f60"/>
      <path id="Path_12407" data-name="Path 12407" d="M14.142,9.307a3.154,3.154,0,0,0,3.086-2.5,3.334,3.334,0,0,1-1.009-3.014,3.154,3.154,0,1,0-2.077,5.519Z" transform="translate(-3.286 -1.099)" fill="#f60"/>
      <path id="Path_12408" data-name="Path 12408" d="M29.505,3.253A2.253,2.253,0,1,1,27.253,1,2.253,2.253,0,0,1,29.505,3.253Z" transform="translate(-10.99)" fill="#f60"/>
    </g>
  </g>
</svg>
