<svg xmlns="http://www.w3.org/2000/svg" width="16.2" height="18" viewBox="0 0 16.2 18">
  <g id="bx-trash" transform="translate(-3.003 -2)">
    <path id="Path_2363" data-name="Path 2363" d="M16,18.4V7.6H7V18.4Zm-3.6-9h1.8v7.2H12.4Zm-3.6,0h1.8v7.2H8.8ZM8.8,4h5.4V5.8H8.8Z" transform="translate(-0.4 -0.2)" fill="none"/>
    <path id="Path_2364" data-name="Path 2364" d="M4.8,18.2A1.8,1.8,0,0,0,6.6,20h9a1.8,1.8,0,0,0,1.8-1.8V7.4h1.8V5.6H15.6V3.8A1.8,1.8,0,0,0,13.8,2H8.4A1.8,1.8,0,0,0,6.6,3.8V5.6H3V7.4H4.8V18.2ZM8.4,3.8h5.4V5.6H8.4ZM7.5,7.4h8.1V18.2h-9V7.4Z" fill="#cc3131"/>
    <path id="Path_2365" data-name="Path 2365" d="M9,10h1.8v7.2H9Zm3.6,0h1.8v7.2H12.6Z" transform="translate(-0.6 -0.8)" fill="#cc3131"/>
  </g>
</svg>
