<svg width="22" height="21" viewBox="0 0 22 21" fill="none" xmlns="http://www.w3.org/2000/svg">
<g clip-path="url(#clip0_1272_485)">
<path opacity="0.8" d="M18.8134 20.9624H18.6784C3.04142 20.0644 0.823414 6.87139 0.513414 2.84539C0.488426 2.53205 0.525572 2.21686 0.62272 1.91792C0.719868 1.61897 0.875105 1.34215 1.07952 1.10336C1.28393 0.86457 1.5335 0.668503 1.81389 0.526417C2.09428 0.384331 2.39997 0.299024 2.71341 0.275393H7.09341C7.41185 0.274825 7.72313 0.369826 7.98699 0.548106C8.25084 0.726385 8.45513 0.97974 8.57341 1.27539L9.78241 4.25139C9.89899 4.54069 9.92797 4.85786 9.86574 5.16349C9.80351 5.46912 9.65283 5.74971 9.43241 5.97039L7.74141 7.68339C8.00609 9.18779 8.72651 10.5746 9.80518 11.6561C10.8839 12.7376 12.2687 13.4617 13.7724 13.7304L15.4984 12.0194C15.7223 11.8016 16.0054 11.6546 16.3123 11.5966C16.6193 11.5386 16.9365 11.5723 17.2244 11.6934L20.2244 12.8934C20.5163 13.0148 20.7654 13.2204 20.94 13.484C21.1145 13.7476 21.2066 14.0572 21.2044 14.3734V18.5734C21.2044 19.2065 20.9529 19.8136 20.5053 20.2613C20.0576 20.7089 19.4505 20.9604 18.8174 20.9604L18.8134 20.9624ZM2.90041 1.86639C2.68824 1.86639 2.48476 1.95068 2.33473 2.10071C2.1847 2.25074 2.10041 2.45422 2.10041 2.66639V2.73039C2.46641 7.44039 4.81341 18.5804 18.7624 19.3754C18.9734 19.3874 19.1805 19.3155 19.3386 19.1754C19.4968 19.0353 19.593 18.8383 19.6064 18.6274V14.3744L16.6064 13.1744L14.3264 15.4404L13.9444 15.3924C7.02241 14.5254 6.08341 7.60239 6.08341 7.53139L6.03541 7.14939L8.29541 4.86539L7.10141 1.86539L2.90041 1.86639Z" fill="#313201"/>
</g>
<defs>
<clipPath id="clip0_1272_485">
<rect width="20.695" height="20.687" fill="white" transform="translate(0.505859 0.275391)"/>
</clipPath>
</defs>
</svg>
