<svg width="22" height="17" viewBox="0 0 22 17" fill="none" xmlns="http://www.w3.org/2000/svg">
<g clip-path="url(#clip0_1272_470)">
<path d="M3.65586 0.569336V14.3943C3.65586 14.6264 3.56367 14.849 3.39958 15.0131C3.23548 15.1771 3.01292 15.2693 2.78086 15.2693C2.54879 15.2693 2.32624 15.1771 2.16214 15.0131C1.99805 14.849 1.90586 14.6264 1.90586 14.3943V4.06934H0.505859V14.3943C0.506389 14.9975 0.746246 15.5759 1.17278 16.0024C1.59931 16.4289 2.17765 16.6688 2.78086 16.6693H19.2309C19.8341 16.6688 20.4124 16.4289 20.8389 16.0024C21.2655 15.5759 21.5053 14.9975 21.5059 14.3943V0.569336H3.65586ZM20.1059 14.3943C20.1056 14.6263 20.0133 14.8487 19.8493 15.0128C19.6852 15.1768 19.4628 15.2691 19.2309 15.2693H4.88086C4.99669 14.9922 5.05618 14.6947 5.05586 14.3943V1.96934H20.1059V14.3943Z" fill="#313201"/>
<path d="M12.7551 3.36914H6.45508V10.3691H12.7551V3.36914ZM11.3551 8.96914H7.85508V4.76914H11.3551V8.96914Z" fill="#313201"/>
<path d="M14.1562 3.36914H18.7063V4.76914H14.1562V3.36914Z" fill="#313201"/>
<path d="M14.1562 6.16895H18.7063V7.56895H14.1562V6.16895Z" fill="#313201"/>
<path d="M14.1562 8.96973H18.7063V10.3697H14.1562V8.96973Z" fill="#313201"/>
</g>
<defs>
<clipPath id="clip0_1272_470">
<rect width="21" height="16.1" fill="white" transform="translate(0.505859 0.569336)"/>
</clipPath>
</defs>
</svg>
