<svg width="22" height="22" viewBox="0 0 22 22" fill="none" xmlns="http://www.w3.org/2000/svg">
<g clip-path="url(#clip0_1272_463)">
<path d="M7.46484 5.36914H9.56484V10.6191H14.8148V12.7191H7.46484V5.36914Z" fill="#313201"/>
<path fill-rule="evenodd" clip-rule="evenodd" d="M21.1152 10.6191C21.1152 12.6958 20.4994 14.7259 19.3457 16.4526C18.1919 18.1793 16.552 19.5252 14.6334 20.3199C12.7148 21.1146 10.6036 21.3225 8.56679 20.9174C6.52999 20.5122 4.65907 19.5122 3.19062 18.0438C1.72217 16.5753 0.722138 14.7044 0.316994 12.6676C-0.0881512 10.6308 0.119784 8.51959 0.914504 6.60096C1.70922 4.68234 3.05504 3.04246 4.78175 1.88871C6.50847 0.734955 8.53854 0.119141 10.6152 0.119141C13.4 0.119141 16.0707 1.22539 18.0399 3.19452C20.009 5.16365 21.1152 7.83437 21.1152 10.6191ZM19.0152 10.6191C19.0152 12.2805 18.5226 13.9046 17.5996 15.2859C16.6766 16.6673 15.3647 17.744 13.8298 18.3797C12.2949 19.0155 10.6059 19.1819 8.97648 18.8577C7.34704 18.5336 5.8503 17.7336 4.67554 16.5588C3.50078 15.3841 2.70076 13.8873 2.37664 12.2579C2.05253 10.6285 2.21887 8.9395 2.85465 7.4046C3.49043 5.8697 4.56708 4.5578 5.94845 3.6348C7.32982 2.71179 8.95388 2.21914 10.6152 2.21914C12.8431 2.21914 14.9796 3.10414 16.5549 4.67944C18.1302 6.25475 19.0152 8.39132 19.0152 10.6191Z" fill="#313201"/>
</g>
<defs>
<clipPath id="clip0_1272_463">
<rect width="21" height="21" fill="white" transform="translate(0.115234 0.119141)"/>
</clipPath>
</defs>
</svg>
