<svg width="20" height="21" viewBox="0 0 20 21" fill="none" xmlns="http://www.w3.org/2000/svg">
<g clip-path="url(#clip0_1272_488)">
<path d="M19.4142 8.78191L10.6972 1.14291C10.4083 0.893874 10.0376 0.760316 9.65632 0.767883C9.27501 0.77545 8.90992 0.92361 8.63117 1.18391L0.612172 8.81991L0.201172 9.21192V20.4699H7.92717V13.4459H12.1412V20.4699H19.8672V9.17992L19.4142 8.78191ZM9.68517 2.10591C9.69717 2.10591 9.68517 2.10591 9.68517 2.11391C9.68517 2.12191 9.67317 2.10591 9.68517 2.10591ZM18.4642 19.1319H13.5512V13.4459C13.542 13.0832 13.3896 12.7388 13.1272 12.4881C12.8649 12.2373 12.514 12.1007 12.1512 12.1079H7.92717C7.56436 12.1007 7.21344 12.2373 6.9511 12.4881C6.68876 12.7388 6.53635 13.0832 6.52717 13.4459V19.1319H1.60617V9.76591L9.68517 2.12591L18.4622 9.76292L18.4642 19.1319Z" fill="#313201"/>
</g>
<defs>
<clipPath id="clip0_1272_488">
<rect width="19.667" height="19.702" fill="white" transform="translate(0.201172 0.767578)"/>
</clipPath>
</defs>
</svg>
