<svg width="22" height="19" viewBox="0 0 22 19" fill="none" xmlns="http://www.w3.org/2000/svg">
<g clip-path="url(#clip0_1272_501)">
<path d="M3.97963 3.97656H18.5726C19.3916 3.97736 20.1769 4.30306 20.756 4.88219C21.3351 5.46131 21.6608 6.24655 21.6616 7.06556V15.8216C21.6608 16.6406 21.3351 17.4258 20.756 18.0049C20.1769 18.5841 19.3916 18.9098 18.5726 18.9106H3.97963C3.16062 18.9098 2.37538 18.5841 1.79625 18.0049C1.21712 17.4258 0.891419 16.6406 0.890625 15.8216V7.06556C0.891419 6.24655 1.21712 5.46131 1.79625 4.88219C2.37538 4.30306 3.16062 3.97736 3.97963 3.97656ZM18.5726 17.1106C18.9144 17.1103 19.2421 16.9744 19.4838 16.7327C19.7255 16.4911 19.8614 16.1633 19.8616 15.8216V7.06556C19.8614 6.72378 19.7255 6.39607 19.4838 6.15439C19.2421 5.91272 18.9144 5.77683 18.5726 5.77656H3.97963C3.63784 5.77683 3.31013 5.91272 3.06846 6.15439C2.82678 6.39607 2.69089 6.72378 2.69063 7.06556V15.8216C2.69089 16.1633 2.82678 16.4911 3.06846 16.7327C3.31013 16.9744 3.63784 17.1103 3.97963 17.1106H18.5726Z" fill="#313201"/>
<path d="M2.69063 7.79508H0.890625V5.56108C0.890655 4.82085 1.14868 4.10378 1.62029 3.53324C2.09191 2.96271 2.74762 2.57438 3.47463 2.43508H3.49163L15.4916 0.386078C15.9508 0.299532 16.4234 0.31524 16.8758 0.432083C17.3282 0.548926 17.7493 0.764034 18.1092 1.0621C18.469 1.36017 18.7588 1.73388 18.9578 2.15664C19.1568 2.5794 19.2602 3.04082 19.2606 3.50808V4.87708H17.4606V3.50908C17.4606 3.30595 17.4156 3.10533 17.3291 2.92156C17.2425 2.73779 17.1165 2.57539 16.9599 2.44596C16.8034 2.31653 16.6202 2.22326 16.4234 2.1728C16.2266 2.12235 16.0211 2.11595 15.8216 2.15408H15.8046L3.80463 4.20308C3.49048 4.26518 3.20764 4.43444 3.00446 4.68195C2.80127 4.92946 2.69034 5.23985 2.69063 5.56008V7.79508Z" fill="#313201"/>
<path d="M16.3828 12.9034C16.0943 12.9034 15.8122 12.8178 15.5723 12.6575C15.3323 12.4972 15.1453 12.2693 15.0349 12.0027C14.9245 11.7361 14.8956 11.4427 14.9519 11.1597C15.0082 10.8767 15.1471 10.6167 15.3512 10.4127C15.5552 10.2086 15.8152 10.0697 16.0982 10.0134C16.3812 9.95709 16.6746 9.98598 16.9412 10.0964C17.2078 10.2068 17.4356 10.3938 17.5959 10.6338C17.7563 10.8737 17.8418 11.1558 17.8418 11.4444C17.8418 11.8313 17.6881 12.2024 17.4145 12.476C17.1409 12.7496 16.7698 12.9034 16.3828 12.9034Z" fill="#313201"/>
</g>
<defs>
<clipPath id="clip0_1272_501">
<rect width="20.771" height="18.582" fill="white" transform="translate(0.890625 0.328125)"/>
</clipPath>
</defs>
</svg>
