<svg width="18" height="21" viewBox="0 0 18 21" fill="none" xmlns="http://www.w3.org/2000/svg">
<g clip-path="url(#clip0_1272_498)">
<path d="M11.8984 0.275391H1.51039C1.14461 0.28509 0.797438 0.438726 0.544288 0.702923C0.291138 0.96712 0.152461 1.32054 0.158385 1.68639V19.5514C0.152461 19.9172 0.291138 20.2707 0.544288 20.5349C0.797438 20.7991 1.14461 20.9527 1.51039 20.9624H16.5384C16.9042 20.9527 17.2513 20.7991 17.5045 20.5349C17.7576 20.2707 17.8963 19.9172 17.8904 19.5514V6.12739L11.8984 0.275391ZM11.6764 2.11539L16.1094 6.47539H11.6764V2.11539ZM1.63639 19.4854V1.75339H10.5024V7.66439H16.4134V19.4854H1.63639Z" fill="#313201"/>
</g>
<defs>
<clipPath id="clip0_1272_498">
<rect width="17.733" height="20.688" fill="white" transform="translate(0.158203 0.275391)"/>
</clipPath>
</defs>
</svg>
