<svg width="11" height="21" viewBox="0 0 11 21" fill="none" xmlns="http://www.w3.org/2000/svg">
<g clip-path="url(#clip0_1272_467)">
<path d="M1.41776 7.45091L8.21776 0.65091C8.49794 0.382078 8.87244 0.233947 9.26071 0.238378C9.64898 0.242808 10.02 0.399447 10.294 0.674602C10.568 0.949758 10.723 1.32145 10.7258 1.70974C10.7285 2.09802 10.5788 2.47188 10.3088 2.75091L3.50876 9.55091C3.37052 9.6886 3.26083 9.85224 3.18599 10.0324C3.11115 10.2126 3.07262 10.4058 3.07262 10.6009C3.07262 10.796 3.11115 10.9892 3.18599 11.1694C3.26083 11.3496 3.37052 11.5132 3.50876 11.6509L10.3088 18.4509C10.5872 18.7294 10.7437 19.1071 10.7437 19.5009C10.7437 19.8947 10.5872 20.2724 10.3088 20.5509C10.0303 20.8294 9.65259 20.9858 9.25876 20.9858C8.86493 20.9858 8.48724 20.8294 8.20876 20.5509L1.41476 13.7509C1.00012 13.3377 0.67119 12.8467 0.44684 12.306C0.22249 11.7653 0.107144 11.1857 0.107422 10.6003C0.107701 10.0149 0.223599 9.43536 0.448464 8.8949C0.673329 8.35444 1.00273 7.86372 1.41776 7.45091Z" fill="#313201"/>
</g>
<defs>
<clipPath id="clip0_1272_467">
<rect width="10.626" height="20.693" fill="white" transform="translate(0.115234 0.272461)"/>
</clipPath>
</defs>
</svg>
