<svg width="22" height="22" viewBox="0 0 22 22" fill="none" xmlns="http://www.w3.org/2000/svg">
<g clip-path="url(#clip0_1272_479)">
<path d="M8.00586 0.119141H2.00586C1.60803 0.119141 1.2265 0.277176 0.945199 0.55848C0.663894 0.839785 0.505859 1.22132 0.505859 1.61914V7.61914C0.505859 8.01697 0.663894 8.3985 0.945199 8.6798C1.2265 8.96111 1.60803 9.11914 2.00586 9.11914H8.00586C8.40368 9.11914 8.78522 8.96111 9.06652 8.6798C9.34782 8.3985 9.50586 8.01697 9.50586 7.61914V1.61914C9.50586 1.22132 9.34782 0.839785 9.06652 0.55848C8.78522 0.277176 8.40368 0.119141 8.00586 0.119141ZM2.00586 7.61914V1.61914H8.00586V7.61914H2.00586Z" fill="#313201"/>
<path d="M20.0059 0.119141H14.0059C13.608 0.119141 13.2265 0.277176 12.9452 0.55848C12.6639 0.839785 12.5059 1.22132 12.5059 1.61914V7.61914C12.5059 8.01697 12.6639 8.3985 12.9452 8.6798C13.2265 8.96111 13.608 9.11914 14.0059 9.11914H20.0059C20.4037 9.11914 20.7852 8.96111 21.0665 8.6798C21.3478 8.3985 21.5059 8.01697 21.5059 7.61914V1.61914C21.5059 1.22132 21.3478 0.839785 21.0665 0.55848C20.7852 0.277176 20.4037 0.119141 20.0059 0.119141ZM14.0059 7.61914V1.61914H20.0059V7.61914H14.0059Z" fill="#313201"/>
<path d="M8.00586 12.1191H2.00586C1.60803 12.1191 1.2265 12.2772 0.945199 12.5585C0.663894 12.8398 0.505859 13.2213 0.505859 13.6191V19.6191C0.505859 20.017 0.663894 20.3985 0.945199 20.6798C1.2265 20.9611 1.60803 21.1191 2.00586 21.1191H8.00586C8.40368 21.1191 8.78522 20.9611 9.06652 20.6798C9.34782 20.3985 9.50586 20.017 9.50586 19.6191V13.6191C9.50586 13.2213 9.34782 12.8398 9.06652 12.5585C8.78522 12.2772 8.40368 12.1191 8.00586 12.1191ZM2.00586 19.6191V13.6191H8.00586V19.6191H2.00586Z" fill="#313201"/>
<path d="M20.0059 12.1191H14.0059C13.608 12.1191 13.2265 12.2772 12.9452 12.5585C12.6639 12.8398 12.5059 13.2213 12.5059 13.6191V19.6191C12.5059 20.017 12.6639 20.3985 12.9452 20.6798C13.2265 20.9611 13.608 21.1191 14.0059 21.1191H20.0059C20.4037 21.1191 20.7852 20.9611 21.0665 20.6798C21.3478 20.3985 21.5059 20.017 21.5059 19.6191V13.6191C21.5059 13.2213 21.3478 12.8398 21.0665 12.5585C20.7852 12.2772 20.4037 12.1191 20.0059 12.1191ZM14.0059 19.6191V13.6191H20.0059V19.6191H14.0059Z" fill="#313201"/>
</g>
<defs>
<clipPath id="clip0_1272_479">
<rect width="21" height="21" fill="white" transform="translate(0.505859 0.119141)"/>
</clipPath>
</defs>
</svg>
