<svg xmlns="http://www.w3.org/2000/svg" width="24.54" height="21.372" viewBox="0 0 24.54 21.372">
  <g id="first-aid-kit" transform="translate(0.5 0.502)">
    <g id="Group_40" data-name="Group 40" transform="translate(6.926 6.783)">
      <g id="Group_39" data-name="Group 39" transform="translate(0 0)">
        <path id="Path_295" data-name="Path 295" d="M123.366,140.919h-1.976v-1.976a.722.722,0,0,0-.717-.727H117.82a.722.722,0,0,0-.722.722v1.976h-1.971a.722.722,0,0,0-.727.717v2.853a.722.722,0,0,0,.722.722H117.1v1.971a.722.722,0,0,0,.717.727h2.848a.722.722,0,0,0,.722-.722h0v-1.976h1.976a.722.722,0,0,0,.727-.717V141.64A.722.722,0,0,0,123.366,140.919Zm-.247,3.318h-2.214a.484.484,0,0,0-.484.484v2.214h-2.354v-2.214a.484.484,0,0,0-.484-.484h-2.214v-2.349h2.214a.484.484,0,0,0,.484-.484v-2.218h2.349V141.4a.484.484,0,0,0,.484.484h2.218Z" transform="translate(-114.4 -138.216)" fill="#fff" stroke="#fff" stroke-width="1"/>
      </g>
    </g>
    <g id="Group_42" data-name="Group 42" transform="translate(0 0)">
      <g id="Group_41" data-name="Group 41">
        <path id="Path_296" data-name="Path 296" d="M20.2,29.344H16.207v-1.7a1.41,1.41,0,0,0-1.363-1.454q-.059,0-.119,0H8.815A1.41,1.41,0,0,0,7.334,27.52q0,.059,0,.119v1.7H3.342A3.141,3.141,0,0,0,0,32.676V43.211a3.141,3.141,0,0,0,3.342,3.342H20.2a3.141,3.141,0,0,0,3.342-3.342V32.686A3.139,3.139,0,0,0,20.2,29.344Zm-11.9-1.7a.454.454,0,0,1,.518-.518h5.9c.518,0,.518.373.518.518v1.7H8.3ZM22.571,43.211A2.176,2.176,0,0,1,20.2,45.585H3.342A2.178,2.178,0,0,1,.969,43.211V32.686a2.176,2.176,0,0,1,2.373-2.373H20.2a2.178,2.178,0,0,1,2.373,2.373V43.211Z" transform="translate(0 -26.184)" fill="#fff" stroke="#fff" stroke-width="1"/>
      </g>
    </g>
  </g>
</svg>
