<svg id="repair" xmlns="http://www.w3.org/2000/svg" width="21.846" height="21.847" viewBox="0 0 21.846 21.847">
  <g id="Group_46" data-name="Group 46">
    <g id="Group_45" data-name="Group 45" transform="translate(0 0)">
      <path id="Path_297" data-name="Path 297" d="M20.921,16.388,16.337,11.8a3.233,3.233,0,0,0-1.781-.9l2.021-2.021a4.479,4.479,0,0,0,4.831-6.338.64.64,0,0,0-1.029-.177L18.91,3.838h-.9v-.9l1.467-1.467A.64.64,0,0,0,19.3.437a4.479,4.479,0,0,0-6.338,4.831L10.475,7.751,6.982,4.258l.452-.452a.64.64,0,0,0-.123-1L2.788.091a.64.64,0,0,0-.781.1L.2,2a.64.64,0,0,0-.1.781L2.815,7.3a.64.64,0,0,0,1,.123l.452-.452,3.493,3.493L5.277,12.949A4.479,4.479,0,0,0,.447,19.287a.64.64,0,0,0,1.029.177L2.943,18h.9v.9L2.381,20.368A.64.64,0,0,0,2.557,21.4,4.479,4.479,0,0,0,8.9,16.567l2.021-2.021a3.234,3.234,0,0,0,.9,1.782L16.4,20.911a3.2,3.2,0,1,0,4.523-4.523ZM3.491,5.941,1.455,2.548l1.1-1.1L5.95,3.481Zm1.682.127.9-.9L9.57,8.656l-.9.9Zm2.57,9.842a.64.64,0,0,0-.166.617,3.2,3.2,0,0,1-3.542,4l.905-.905a.64.64,0,0,0,.187-.452V17.356a.64.64,0,0,0-.64-.64H2.678a.64.64,0,0,0-.452.187l-.905.905a3.2,3.2,0,0,1,4-3.542.64.64,0,0,0,.617-.166l8.177-8.177a.64.64,0,0,0,.166-.617,3.2,3.2,0,0,1,3.542-4l-.905.905a.64.64,0,0,0-.187.452V4.478a.64.64,0,0,0,.64.64h1.809a.64.64,0,0,0,.452-.187l.905-.905a3.2,3.2,0,0,1-4,3.542.64.64,0,0,0-.617.166Zm12.274,4.1a1.922,1.922,0,0,1-2.714,0l-4.583-4.583a1.919,1.919,0,0,1,2.714-2.715l4.583,4.583A1.922,1.922,0,0,1,20.017,20.006Z" transform="translate(-0.01 0)" fill="#fff"/>
    </g>
  </g>
  <g id="Group_48" data-name="Group 48" transform="translate(13.475 13.475)">
    <g id="Group_47" data-name="Group 47">
      <path id="Path_298" data-name="Path 298" d="M321.43,320.515l-4.52-4.52a.64.64,0,0,0-.9.9l4.52,4.52a.64.64,0,0,0,.9-.9Z" transform="translate(-315.818 -315.807)" fill="#fff"/>
    </g>
  </g>
</svg>
