<svg width="256" height="194" viewBox="0 0 256 194" fill="none" xmlns="http://www.w3.org/2000/svg">
<path d="M14.7099 103.54C6.95994 103.54 0.189941 108.32 0.189941 116.22V126.56C0.189941 134.47 7.08994 139.5 14.5099 139.5C17.6299 139.5 22.4899 139.37 27.3499 136.06C27.8599 135.68 27.4799 134.65 26.9599 133.5C26.4399 132.36 25.7999 131.46 25.2199 131.78C21.4599 133.88 18.9099 134.96 14.4999 134.96C10.2899 134.96 6.56994 131.72 6.56994 127.17V123.87H28.7999V116.08C28.8199 106.72 22.2999 103.54 14.7099 103.54ZM22.6299 119.34H6.45994V115.76C6.45994 111.3 9.78994 108.05 14.7699 108.05C18.9299 108.05 22.6299 111.37 22.6299 115.97V119.34ZM241.9 103.54C236.02 103.54 230.97 105.89 230.72 106.02C230.14 106.27 230.53 107.17 231.16 108.69C231.74 110.1 232.26 110.8 232.82 110.55C234.88 109.65 238.32 108.05 241.58 108.05C242.73 108.05 248.81 107.92 248.81 116.15L244.08 116.22C238.46 116.28 227.33 116.85 227.33 126.17V129.36C227.33 135.49 231.99 139.5 238.97 139.5C242.6 139.5 246.24 137.72 248.87 134.65C248.87 136.38 248.87 138.35 248.87 138.35C248.87 138.98 250.6 138.98 251.87 138.98C253.16 138.98 254.87 138.98 254.87 138.35V116.27C254.87 106.52 248.99 103.54 241.9 103.54ZM248.81 129.81C247.13 131.53 244.01 134.15 240.56 134.85C236.15 135.68 233.28 132.88 233.28 129.68V126.82C233.28 122.87 236.66 121.65 240.68 121.21C244.38 120.83 248.8 120.95 248.8 120.95V129.81H248.81ZM170.11 103.54C164.22 103.54 159.19 105.89 158.93 106.02C158.36 106.27 158.74 107.17 159.38 108.69C159.95 110.1 160.47 110.8 161.04 110.55C163.08 109.65 166.52 108.05 169.79 108.05C170.93 108.05 177.02 107.92 177.02 116.15L172.29 116.22C166.66 116.28 155.54 116.85 155.54 126.17V129.36C155.54 135.49 160.21 139.5 167.17 139.5C170.81 139.5 174.45 137.72 177.08 134.65C177.08 136.38 177.08 138.35 177.08 138.35C177.08 138.98 178.81 138.98 180.08 138.98C181.35 138.98 183.07 138.98 183.07 138.35V116.27C183.07 106.52 177.2 103.54 170.11 103.54ZM177.02 129.81C175.35 131.53 172.22 134.15 168.78 134.85C164.37 135.68 161.49 132.88 161.49 129.68V126.82C161.49 122.87 164.88 121.65 168.9 121.21C172.62 120.83 177.03 120.95 177.03 120.95V129.81H177.02ZM196.29 104.75V138.36C196.29 138.99 194.5 138.99 193.22 138.99C191.94 138.99 190.17 138.99 190.17 138.36V104.75C190.17 104.1 192.01 104.1 193.29 104.1C194.57 104.1 196.29 104.1 196.29 104.75ZM223.9 131.21C222.62 136.83 217.58 139.5 211.5 139.5C205.42 139.5 200.5 136.51 199.93 135.99C199.42 135.55 200.07 134.47 200.57 133.44C201.09 132.42 201.73 131.28 202.29 131.59C204.98 133.13 207.92 134.97 211.31 134.97C214.38 134.97 216.87 134.27 217.81 131.15C218.79 128.03 217.05 125.66 214.38 124.57L206.45 121.45C202.43 119.85 199.99 116.21 200.57 111.95C201.46 105.3 206.76 103.53 211.69 103.53C216.22 103.53 220.38 105.12 221.65 105.63C222.3 105.88 221.91 107.22 221.53 108.31C221.15 109.39 220.51 110.67 219.93 110.41C218.85 109.96 215.4 108.05 212.07 108.05C210.16 108.05 207.35 108.24 206.45 110.8C205.81 112.65 206.39 114.82 209.14 115.9L217.57 119.23C222.49 121.14 225.24 125.41 223.9 131.21ZM120.99 104.75L103.23 151.56C102.97 152.2 101.82 152.2 100.24 152.2C98.6299 152.2 97.1599 152.2 97.4199 151.56L102.09 138.47L89.6299 104.74C89.3699 104.09 91.2899 104.09 92.8899 104.09C94.4799 104.09 95.8999 104.09 96.1399 104.74L105.15 130.24C105.35 130.76 105.41 131.46 105.41 131.46C105.41 131.46 105.47 130.76 105.65 130.24L114.6 104.74C114.85 104.09 116.52 104.09 117.79 104.09C119.08 104.1 121.25 104.1 120.99 104.75ZM138.94 103.54C136.2 103.67 132.42 104.23 129.61 108.38V104.75C129.61 104.1 127.83 104.1 126.54 104.1C125.27 104.1 123.48 104.1 123.48 104.75V151.56C123.48 152.2 125.27 152.2 126.54 152.2C127.83 152.2 129.61 152.2 129.61 151.56V135.87C131.72 137.97 134.53 139.5 137.98 139.5C147.11 139.5 151.91 134.21 151.91 125.53V117.37C151.91 108.69 147.81 103.08 138.94 103.54ZM145.51 125.85C145.51 131.91 142.51 134.97 137.98 134.97C133.51 134.97 129.61 132.3 129.61 125.66V116.59C129.61 113.21 133.51 108.05 138.23 108.05C141.87 108.05 145.51 109.72 145.51 116.08V125.85ZM196.42 92.56V97.4C196.42 98.04 194.57 98.36 193.3 98.36C192.02 98.36 190.1 98.04 190.1 97.4V92.56C190.1 91.91 192.08 91.73 193.36 91.73C194.63 91.72 196.42 91.91 196.42 92.56ZM88.2199 131.21C86.9499 136.83 81.9099 139.5 75.8299 139.5C69.7599 139.5 64.8399 136.51 64.2699 135.99C63.7499 135.55 64.3799 134.47 64.8899 133.44C65.3999 132.42 66.0399 131.28 66.6299 131.59C69.3199 133.13 72.2399 134.97 75.6299 134.97C78.6999 134.97 81.1999 134.27 82.1499 131.15C83.1099 128.03 81.3899 125.66 78.6999 124.57L70.7799 121.45C66.7499 119.85 64.3299 116.21 64.8999 111.95C65.7999 105.3 71.0999 103.53 76.0199 103.53C80.5499 103.53 84.7099 105.12 85.9799 105.63C86.6299 105.88 86.2399 107.22 85.8599 108.31C85.4799 109.39 84.8399 110.67 84.2599 110.41C83.1799 109.96 79.7299 108.05 76.3999 108.05C74.4899 108.05 71.6799 108.24 70.7799 110.8C70.1299 112.65 70.7099 114.82 73.4599 115.9L81.8999 119.23C86.8199 121.14 89.5699 125.41 88.2199 131.21ZM46.7699 103.54C40.8899 103.54 35.8299 105.89 35.5899 106.02C35.0099 106.27 35.3999 107.17 36.0399 108.69C36.6099 110.09 37.1199 110.8 37.6899 110.55C39.7399 109.65 43.1899 108.06 46.4499 108.06C47.5999 108.06 53.6499 107.93 53.6499 116.16L48.9299 116.23C43.3099 116.29 32.2099 116.86 32.2099 126.18V129.37C32.2099 135.5 36.8599 139.51 43.8299 139.51C47.4699 139.51 51.1099 137.73 53.7399 134.66C53.7399 136.39 53.7399 138.36 53.7399 138.36C53.7399 138.99 55.4599 138.99 56.7399 138.99C58.0199 138.99 59.7399 138.99 59.7399 138.36V116.28C59.7399 106.52 53.8599 103.54 46.7699 103.54ZM53.6599 129.81C52.0199 131.53 48.8799 134.15 45.4299 134.85C41.0199 135.68 38.1499 132.88 38.1499 129.68V126.82C38.1499 122.87 41.5399 121.65 45.5599 121.21C49.2599 120.83 53.6599 120.95 53.6599 120.95V129.81V129.81Z" fill="#47555F"/>
<path d="M255.07 41.7C225.55 74.52 203.96 49.72 180.67 55.43C196.2 42.35 221.1 33.86 255.07 41.7ZM200.59 29.02C139.92 20.78 143.05 63.39 115.43 77.38C143.51 79.35 176.29 66.6 200.59 29.02ZM114.02 77.6C109.15 81.25 103.21 84.11 96.07 86.21C89.3 88.2 82.56 88.72 76 88.28C67.79 87.71 60.28 85 53.47 80.12C46.49 75.13 41.52 68.8 38.46 61.18C24.98 59.29 9.37 50.92 0 42.48C11.65 46.79 25.36 49.34 35.54 48.44C34.1 41.31 36.39 27.53 43.15 18.07C50.34 8.02 59.89 0.950004 72.21 0.120004C91.67 -1.2 100.59 8.95 103.28 15.77C112.66 39.53 89.86 62.74 62.65 62.54C65.3 67.17 70.21 72.25 79.46 75.81C88.12 79.12 101.76 79.63 114.02 77.6ZM56.75 47.97C56.75 47.97 76.82 46.54 83.24 32.53C87.26 23.75 81.51 17.97 74.7 18.7C66.12 19.6 51.54 27.51 56.75 47.97Z" fill="#A7C539"/>
<path fill-rule="evenodd" clip-rule="evenodd" d="M21.6001 187.88C20.3401 187.71 18.0101 187.68 17.3301 186.34C17.3301 181.48 20.1301 180.31 24.0301 178.06C24.3001 177.79 24.5801 177.51 24.8501 177.27C24.9001 176.36 25.0401 172.14 26.5601 172.46C26.6501 172.73 26.6501 174.64 26.8301 175.63C27.4501 177.37 28.8601 177.89 30.6001 177.07C30.5501 175.97 30.3801 175.24 30.3801 174.59C30.6501 173.76 30.9501 172.95 31.2501 172.15C31.2501 172.15 31.4201 172.15 31.5201 172.15C31.6201 172.92 31.7401 173.69 31.8601 174.51C32.6501 177.16 33.1101 177.44 36.1201 177.01C35.8701 176.29 35.5001 175.65 35.0301 175.08C35.0301 173.94 35.5301 173.02 36.0301 172.03C36.1701 172.03 36.3201 172.03 36.4901 172.05C38.2301 174.68 37.7601 177.16 36.3801 179.69C34.9401 180.56 33.1801 180.61 31.7901 179.54C31.5001 179.14 31.5001 179.14 31.2701 179.05C31.1501 180.56 26.8601 181.38 25.8101 179.02C25.3401 180.06 24.5801 180.63 23.6301 181.16C22.1101 181.98 20.6301 182.67 19.3201 183.84C19.6301 184.33 20.9201 184.44 21.5001 184.48L55.6301 184.73C55.0601 186.09 54.3101 187.18 53.3201 187.85L21.6001 187.88Z" fill="#A7C539"/>
<path fill-rule="evenodd" clip-rule="evenodd" d="M231.67 193.98C230.66 193.58 229.69 192.84 228.84 192.17C229.59 191.35 230.53 189.72 230.87 189.57C231.71 190.09 232.62 190.76 233.48 191.29C233.65 192.19 232.48 193.67 231.67 193.98Z" fill="#A7C539"/>
<path fill-rule="evenodd" clip-rule="evenodd" d="M170.91 190.88C171.06 191.08 181 187.8 182.14 185.17C182.14 183.36 181.59 182.22 180.36 180.98C180.41 180.69 181.42 178.31 182.19 178.01C184.62 182.13 183.61 188.18 180.26 190.68C177.58 192.67 174.83 192.11 170.91 190.88Z" fill="#A7C539"/>
<path fill-rule="evenodd" clip-rule="evenodd" d="M121.12 184.19C120.79 179.9 122.35 177.44 124.91 176.18C128.74 174.29 134.76 175.14 139.67 176.48C139.37 177.77 138.92 178.88 138.25 179.77C135.27 178.31 128.28 177.48 124.46 179.22C121.56 180.51 121.9 182.67 123.96 184.75C129.32 190.23 145.66 187.67 150.17 184.6C152.15 182.22 145.12 181.67 144.02 181.64C143.86 180.36 144.21 179.09 144.41 178.5C145.75 178.77 148.25 178.55 148.8 177.38C147.53 174.63 143.94 174.05 143.17 174.08C143.17 172.42 143.61 171.3 144.48 169.99C146.74 168.95 155.94 163.99 158.62 163.24C158.62 164.71 157.65 166.27 156.83 166.69C153.36 168.42 147.06 171.4 147.01 171.52C150.5 173.38 150.71 175.84 149.99 178.86C153.86 181.41 151.53 186.5 148.33 188.23C142.35 191.51 130.5 192.77 124.38 188.8C122.4 187.53 121.84 186.34 121.12 184.19Z" fill="#A7C539"/>
<path fill-rule="evenodd" clip-rule="evenodd" d="M116.8 190.33C116.38 188 116.9 179.14 116.75 174.8C116.7 172.48 117 171.86 118.37 169.8C118.42 169.72 118.47 169.72 118.54 169.8C119.26 175.23 118.71 180.66 118.61 185.69C118.44 187.01 118.19 188.92 116.8 190.33Z" fill="#A7C539"/>
<path fill-rule="evenodd" clip-rule="evenodd" d="M212.57 189.17C212.74 189.69 222.36 184.53 222.86 182.55C222.1 180.67 221.12 178.78 219.98 177.1C220.06 176.11 220.03 174.99 220.41 173.88C221.35 173.93 222.81 177.42 224.08 180.42C225.12 182.83 225.12 184.46 227.8 184.63C230.32 184.8 233.03 184.63 235.54 184.63C235.79 184.61 236.04 184.61 236.31 184.45C236.65 183.19 234.75 181.85 233.96 181.31C234.1 180.22 234.4 179.25 234.7 178.19C238.47 178.58 238.12 185.4 236.91 187.51C233.66 188.35 230.08 188.06 226.69 187.91C224.33 187.81 224.03 184.89 223.74 184.69C221.28 189.86 217.64 191.25 212.57 189.17Z" fill="#A7C539"/>
<path fill-rule="evenodd" clip-rule="evenodd" d="M90.2199 183.52C90.1399 179.5 90.1199 175.31 89.9199 171.34C90.0499 170.99 91.6599 168.04 91.7599 168.15C91.8399 172.41 91.9599 177.47 91.8899 181.88C91.8899 182.92 91.6699 183.94 92.7299 184.61C94.1699 185.53 96.9899 185.06 98.6999 184.93C98.7499 184.76 98.7299 184.66 98.6499 184.12C99.0299 183.12 99.3999 182.26 100.04 181.44C100.12 181.36 100.21 181.24 100.29 181.56C100.38 182.55 100.43 183.67 100.81 184.58C101.8 185.32 104.03 184.88 105.15 184.76C105.03 183.44 105.6 182.23 106.17 181.09C106.34 180.96 106.49 180.89 106.64 181.11C106.74 181.46 106.74 181.61 107.06 184.31C108.05 185.48 110.48 184.74 111.87 184.66C111.72 183.04 110.83 182.13 110.11 181.59C110.43 180.57 110.98 179.48 111.27 178.61C114.55 179.82 113.77 185.66 112.51 187.59C110.92 188.09 108.27 188.31 106.61 187.92C106.11 187.47 106.11 187.47 105.77 187.05C105.55 187.38 105.5 187.59 104.93 187.92C103.52 188.05 100.94 188.39 99.5499 187.77C99.3299 187.35 99.1099 186.95 98.8799 186.55C98.5599 187.24 98.3799 187.77 97.6099 187.97C93.2499 188.22 90.3199 188.65 90.2199 183.52Z" fill="#A7C539"/>
<path fill-rule="evenodd" clip-rule="evenodd" d="M185.22 187.83C183.98 187.21 185.46 184.53 186.04 183.81C186.21 183.73 186.68 183.12 187.97 182C189.19 181.15 190.47 180.41 191.76 179.69C191.86 177.46 191.63 171.43 191.69 169.2C191.84 168.9 193.33 165.95 193.4 165.95C194.17 168.49 193.67 175.77 193.78 178.37C193.51 179.63 192.81 181.25 191.35 182.29C188.37 183.93 188.37 184.18 187.7 184.65C187.7 184.7 187.7 184.75 187.7 184.83L214.85 185.05C214.85 185.74 213.69 187.61 213.14 187.92C204.12 187.8 192.66 188.15 185.22 187.83Z" fill="#A7C539"/>
<path fill-rule="evenodd" clip-rule="evenodd" d="M111.52 169.13C111.45 165.94 114.84 164.3 116.28 164.3C119.24 165.54 122.76 165.36 125.21 163.13C125.58 162.91 125.63 162.91 125.74 163.35C124.52 168.19 117.97 168.9 114.97 167.42C113.24 167.44 112.41 168.31 111.52 169.13Z" fill="#A7C539"/>
<path fill-rule="evenodd" clip-rule="evenodd" d="M143.27 168.71C143.32 167.17 143.82 166.03 144.29 165.43L157.35 158.95C157.3 159.92 156.39 161.86 155.75 162.5C152.66 163.92 144.95 167.97 143.27 168.71Z" fill="#A7C539"/>
<path fill-rule="evenodd" clip-rule="evenodd" d="M181.42 176.4C180.41 176 179.44 175.25 178.59 174.59C179.34 173.76 180.29 172.13 180.63 171.96C181.47 172.48 182.39 173.17 183.26 173.69C183.43 174.61 182.24 176.1 181.42 176.4Z" fill="#A7C539"/>
<path fill-rule="evenodd" clip-rule="evenodd" d="M151.62 189.17C151.82 189.69 161.41 184.53 161.91 182.55C161.14 180.67 160.18 178.78 159.04 177.1C159.11 176.11 159.11 174.99 159.46 173.88C160.4 173.93 161.86 177.42 163.15 180.42C164.17 182.83 164.2 184.46 166.85 184.63C169.4 184.8 172.1 184.63 174.59 184.63C174.84 184.61 175.08 184.61 175.35 184.45C175.7 183.19 173.79 181.85 173 181.31C173.15 180.22 173.45 179.25 173.75 178.19C177.52 178.58 177.17 185.4 175.96 187.51C172.73 188.35 169.16 188.06 165.75 187.91C163.38 187.81 163.11 184.89 162.78 184.69C160.35 189.86 156.68 191.25 151.62 189.17Z" fill="#A7C539"/>
<path fill-rule="evenodd" clip-rule="evenodd" d="M168.7 177.44C167.68 177.04 166.71 176.3 165.87 175.63C166.61 174.81 167.56 173.15 167.91 173C168.75 173.52 169.67 174.21 170.54 174.74C170.72 175.66 169.52 177.14 168.7 177.44Z" fill="#A7C539"/>
<path fill-rule="evenodd" clip-rule="evenodd" d="M57.26 183.94C56.92 179.64 58.51 177.19 61.06 175.96C64.9 174.04 70.93 174.89 75.84 176.25C75.54 177.52 75.09 178.63 74.42 179.53C71.44 178.06 64.45 177.27 60.61 178.98C57.71 180.27 58.06 182.45 60.12 184.53C65.5 190.01 81.82 187.43 86.36 184.36C88.34 181.98 81.3 181.44 80.21 181.41C80.06 180.11 80.4 178.85 80.6 178.25C82.04 178.55 84.02 178.35 85.11 177.24C84.25 175.13 82.16 174.73 81.09 174.6C81.17 173.39 81.54 172.45 82.06 171.35C84.94 171.5 86.27 173.06 86.58 174.95C86.77 176.19 86.45 177.43 86.18 178.62C90.05 181.2 87.72 186.26 84.52 188.02C78.52 191.27 66.69 192.53 60.54 188.57C58.55 187.29 57.98 186.09 57.26 183.94Z" fill="#A7C539"/>
<path fill-rule="evenodd" clip-rule="evenodd" d="M79.1301 171.58C78.1101 171.19 77.1701 170.45 76.3301 169.77C77.0701 168.95 77.9901 167.32 78.3701 167.14C79.2101 167.66 80.1101 168.35 80.9701 168.88C81.1401 169.8 79.9501 171.29 79.1301 171.58Z" fill="#A7C539"/>
</svg>
