<svg width="18" height="17" viewBox="0 0 18 17" fill="none" xmlns="http://www.w3.org/2000/svg">
<g clip-path="url(#clip0_1272_544)">
<path d="M0.662109 15.2812H17.6191V16.4923H0.662109V15.2812Z" fill="#313201"/>
<path d="M14.833 4.98481C14.9485 4.87539 15.0405 4.74359 15.1033 4.59745C15.1662 4.45131 15.1986 4.2939 15.1986 4.13481C15.1986 3.97573 15.1662 3.81832 15.1033 3.67218C15.0405 3.52604 14.9485 3.39423 14.833 3.28481L12.653 1.10481C12.5436 0.989339 12.4118 0.897371 12.2657 0.834522C12.1195 0.771672 11.9621 0.739258 11.803 0.739258C11.644 0.739258 11.4866 0.771672 11.3404 0.834522C11.1943 0.897371 11.0625 0.989339 10.953 1.10481L1.87305 10.1958V14.0718H5.74905L14.833 4.98481ZM11.805 1.95681L13.985 4.13681L12.173 5.95381L9.99305 3.77381L11.805 1.95681ZM3.08405 12.8568V10.6768L9.14005 4.62081L11.32 6.80081L5.26405 12.8578L3.08405 12.8568Z" fill="#313201"/>
</g>
<defs>
<clipPath id="clip0_1272_544">
<rect width="16.957" height="15.746" fill="white" transform="translate(0.662109 0.746094)"/>
</clipPath>
</defs>
</svg>
