<svg width="22" height="23" viewBox="0 0 22 23" fill="none" xmlns="http://www.w3.org/2000/svg">
<g clip-path="url(#clip0_1272_548)">
<path d="M11.3031 0.935547C9.19005 0.935547 7.12441 1.56215 5.36743 2.73613C3.61046 3.9101 2.24106 5.57871 1.43242 7.53096C0.62377 9.4832 0.412191 11.6314 0.824436 13.7039C1.23668 15.7764 2.25423 17.6801 3.74842 19.1743C5.2426 20.6685 7.14631 21.686 9.2188 22.0983C11.2913 22.5105 13.4395 22.2989 15.3917 21.4903C17.344 20.6816 19.0126 19.3122 20.1866 17.5553C21.3605 15.7983 21.9871 13.7326 21.9871 11.6195C21.9871 8.78597 20.8615 6.06846 18.8579 4.06482C16.8542 2.06118 14.1367 0.935547 11.3031 0.935547ZM6.72414 19.5405V18.0145C6.69092 17.3703 6.9123 16.7388 7.34053 16.2563C7.76876 15.7738 8.3695 15.479 9.01315 15.4355H13.5921C14.2372 15.479 14.8392 15.7749 15.2677 16.2592C15.6961 16.7434 15.9165 17.3769 15.8811 18.0225V19.5485C14.4909 20.3581 12.9109 20.7845 11.3021 20.7845C9.69339 20.7845 8.11339 20.3581 6.72315 19.5485L6.72414 19.5405ZM17.4081 18.4255V17.9605C17.4289 16.9201 17.0409 15.913 16.3274 15.1555C15.614 14.3979 14.6319 13.9502 13.5921 13.9085H9.01415C7.97346 13.9482 6.99008 14.3954 6.27618 15.1536C5.56227 15.9119 5.17508 16.9204 5.19815 17.9615V18.4115C3.81563 17.1751 2.84113 15.548 2.4036 13.7456C1.96607 11.9432 2.08614 10.0504 2.74792 8.31771C3.40969 6.58503 4.58198 5.09412 6.10966 4.04229C7.63734 2.99046 9.44838 2.42728 11.3031 2.42728C13.1579 2.42728 14.969 2.99046 16.4966 4.04229C18.0243 5.09412 19.1966 6.58503 19.8584 8.31771C20.5202 10.0504 20.6402 11.9432 20.2027 13.7456C19.7652 15.548 18.7907 17.1751 17.4081 18.4115V18.4255Z" fill="#313201"/>
<path d="M11.3023 4.75195C10.5476 4.75195 9.80981 4.97576 9.18227 5.39507C8.55474 5.81437 8.06563 6.41035 7.77681 7.10763C7.48798 7.80492 7.41241 8.57219 7.55965 9.31242C7.70689 10.0526 8.07033 10.7326 8.60401 11.2663C9.13769 11.7999 9.81763 12.1634 10.5579 12.3106C11.2981 12.4579 12.0654 12.3823 12.7626 12.0935C13.4599 11.8047 14.0559 11.3155 14.4752 10.688C14.8945 10.0605 15.1183 9.32269 15.1183 8.56795C15.1183 7.55589 14.7163 6.58527 14.0007 5.86963C13.285 5.15399 12.3144 4.75195 11.3023 4.75195ZM11.3023 10.857C10.8496 10.857 10.4071 10.7227 10.0306 10.4712C9.65421 10.2197 9.36082 9.86218 9.18757 9.44392C9.01432 9.02566 8.96899 8.56541 9.05731 8.12139C9.14563 7.67737 9.36364 7.26951 9.68376 6.94939C10.0039 6.62926 10.4117 6.41126 10.8558 6.32294C11.2998 6.23461 11.76 6.27994 12.1783 6.45319C12.5966 6.62644 12.954 6.91983 13.2056 7.29625C13.4571 7.67268 13.5913 8.11523 13.5913 8.56795C13.5913 9.17503 13.3502 9.75725 12.9209 10.1865C12.4916 10.6158 11.9094 10.857 11.3023 10.857Z" fill="#313201"/>
</g>
<defs>
<clipPath id="clip0_1272_548">
<rect width="21.368" height="21.368" fill="white" transform="translate(0.619141 0.935547)"/>
</clipPath>
</defs>
</svg>
