<svg width="20" height="17" viewBox="0 0 20 17" fill="none" xmlns="http://www.w3.org/2000/svg">
<g clip-path="url(#clip0_1272_554)">
<path d="M3.57762 2.79121H16.5236C16.6748 2.79125 16.8257 2.80093 16.9756 2.82021C16.9248 2.46311 16.8022 2.12 16.6152 1.81157C16.4282 1.50314 16.1807 1.23579 15.8875 1.02562C15.5944 0.815462 15.2617 0.666851 14.9096 0.588753C14.5574 0.510655 14.1931 0.504688 13.8386 0.571212L3.18962 2.38921H3.17763C2.50874 2.51771 1.91421 2.89689 1.51562 3.44921C2.11753 3.02022 2.83849 2.79015 3.57762 2.79121Z" fill="#313201"/>
<path d="M16.5245 3.7627H3.57047C2.8838 3.76349 2.22549 4.03662 1.73994 4.52217C1.25439 5.00771 0.981263 5.66603 0.980469 6.3527V14.1227C0.981263 14.8094 1.25439 15.4677 1.73994 15.9532C2.22549 16.4388 2.8838 16.7119 3.57047 16.7127H16.5245C17.2111 16.7119 17.8695 16.4388 18.355 15.9532C18.8405 15.4677 19.1137 14.8094 19.1145 14.1227V6.3527C19.1137 5.66603 18.8405 5.00771 18.355 4.52217C17.8695 4.03662 17.2111 3.76349 16.5245 3.7627ZM14.6025 11.5327C14.3463 11.5327 14.096 11.4567 13.883 11.3144C13.67 11.1722 13.5041 10.9699 13.406 10.7333C13.308 10.4966 13.2824 10.2363 13.3324 9.98505C13.3823 9.73385 13.5057 9.5031 13.6868 9.32199C13.8679 9.14088 14.0986 9.01755 14.3498 8.96758C14.601 8.91761 14.8614 8.94326 15.098 9.04127C15.3347 9.13929 15.5369 9.30527 15.6792 9.51823C15.8215 9.73119 15.8975 9.98157 15.8975 10.2377C15.8975 10.5812 15.761 10.9105 15.5182 11.1534C15.2753 11.3963 14.9459 11.5327 14.6025 11.5327Z" fill="#313201"/>
<path d="M1.00455 9.08305V5.05705C0.99064 4.42729 1.20151 3.81318 1.59935 3.32481C1.9972 2.83644 2.55599 2.50575 3.17555 2.39205C4.11566 2.2251 5.06782 2.13513 6.02255 2.12305C6.02255 2.12305 6.95455 2.77105 6.18455 2.77105C6.11413 2.76209 6.04261 2.76822 5.97474 2.78905C5.90687 2.80988 5.84422 2.84492 5.79095 2.89184C5.73768 2.93876 5.69501 2.99649 5.66578 3.06119C5.63655 3.12588 5.62143 3.19606 5.62143 3.26705C5.62143 3.33804 5.63655 3.40821 5.66578 3.47291C5.69501 3.5376 5.73768 3.59533 5.79095 3.64225C5.84422 3.68918 5.90687 3.72422 5.97474 3.74504C6.04261 3.76587 6.11413 3.77201 6.18455 3.76305C6.93355 3.76305 6.18455 4.71405 6.18455 4.71405L3.16955 8.13405L1.00455 9.08305Z" fill="#313201"/>
</g>
<defs>
<clipPath id="clip0_1272_554">
<rect width="18.129" height="16.186" fill="white" transform="translate(0.986328 0.526367)"/>
</clipPath>
</defs>
</svg>
