<svg xmlns="http://www.w3.org/2000/svg" width="33.753" height="31.033" viewBox="0 0 33.753 31.033">
  <g id="house-fill" transform="translate(-1.123 -2.717)">
    <path id="Path_12487" data-name="Path 12487" d="M18,7.409l13.5,13.5v9.466a3.375,3.375,0,0,1-3.375,3.375H7.875A3.375,3.375,0,0,1,4.5,30.375V20.909L18,7.409ZM29.25,5.625V13.5L24.75,9V5.625A1.125,1.125,0,0,1,25.875,4.5h2.25A1.125,1.125,0,0,1,29.25,5.625Z" fill="#101276" fill-rule="evenodd"/>
    <path id="Path_12488" data-name="Path 12488" d="M16.409,3.375a2.25,2.25,0,0,1,3.181,0L34.546,18.329a1.126,1.126,0,1,1-1.593,1.593L18,4.966,3.046,19.921a1.126,1.126,0,0,1-1.593-1.593Z" fill="#101276" fill-rule="evenodd"/>
  </g>
</svg>
