<svg width="33" height="31" viewBox="0 0 33 31" fill="none" xmlns="http://www.w3.org/2000/svg">
<g clip-path="url(#clip0_1272_3767)">
<path d="M32.1253 28.1071L25.7973 12.7791C25.6805 12.4959 25.4822 12.2539 25.2276 12.0835C24.973 11.9132 24.6736 11.8223 24.3673 11.8223C24.061 11.8223 23.7616 11.9132 23.507 12.0835C23.2524 12.2539 23.0542 12.4959 22.9373 12.7791L16.6093 28.1071C16.4527 28.4863 16.4532 28.9123 16.6106 29.2912C16.768 29.6701 17.0696 29.971 17.4488 30.1276C17.8281 30.2842 18.254 30.2837 18.6329 30.1263C19.0118 29.9689 19.3127 29.6673 19.4693 29.2881L20.7573 26.1661H27.9763L29.2653 29.2871C29.3428 29.4748 29.4565 29.6454 29.5999 29.7892C29.7433 29.933 29.9137 30.0471 30.1012 30.1251C30.2887 30.203 30.4898 30.2433 30.6929 30.2436C30.8959 30.2438 31.0971 30.2041 31.2848 30.1266C31.4725 30.0491 31.6432 29.9354 31.7869 29.792C31.9307 29.6486 32.0449 29.4782 32.1228 29.2907C32.2008 29.1032 32.241 28.9021 32.2413 28.699C32.2415 28.496 32.2028 28.2948 32.1253 28.1071ZM22.0353 23.0721L24.3673 17.4191L26.6993 23.0681L22.0353 23.0721Z" fill="#313201"/>
<path d="M17.3251 21.7311C17.5655 21.3991 17.6643 20.9853 17.5998 20.5805C17.5353 20.1757 17.3128 19.813 16.9811 19.5721C16.0559 18.8349 15.1972 18.0178 14.4151 17.1301C16.6007 14.0486 18.2914 10.6446 19.4261 7.04114H21.6931C22.1034 7.04114 22.4969 6.87815 22.787 6.58803C23.0771 6.29792 23.2401 5.90443 23.2401 5.49414C23.2401 5.08385 23.0771 4.69037 22.787 4.40025C22.4969 4.11013 22.1034 3.94714 21.6931 3.94714H13.5401V2.54114C13.5401 2.13085 13.3771 1.73737 13.087 1.44725C12.7969 1.15713 12.4034 0.994141 11.9931 0.994141C11.5828 0.994141 11.1893 1.15713 10.8992 1.44725C10.6091 1.73737 10.4461 2.13085 10.4461 2.54114V3.94714H2.29309C1.8828 3.94714 1.48932 4.11013 1.1992 4.40025C0.909081 4.69037 0.746094 5.08385 0.746094 5.49414C0.746094 5.90443 0.909081 6.29792 1.1992 6.58803C1.48932 6.87815 1.8828 7.04114 2.29309 7.04114H16.1591C15.2268 9.73099 13.9559 12.2912 12.3771 14.6601C11.194 13.1605 10.1764 11.5374 9.34209 9.81914C9.16904 9.46384 8.86658 9.18825 8.49676 9.0489C8.12695 8.90955 7.71782 8.91702 7.35334 9.06977C6.98886 9.22253 6.69665 9.50898 6.53669 9.87036C6.37672 10.2317 6.36112 10.6406 6.49309 11.0131C7.49463 13.1198 8.74233 15.1002 10.2101 16.9131L10.4031 17.1601C8.50398 19.3765 6.27848 21.2908 3.80309 22.8371C3.62111 22.9324 3.45991 23.0629 3.32889 23.221C3.19788 23.3792 3.09967 23.5619 3.04001 23.7584C2.98034 23.955 2.9604 24.1614 2.98136 24.3657C3.00232 24.57 3.06376 24.7681 3.16209 24.9485C3.26041 25.1288 3.39367 25.2877 3.55407 25.416C3.71447 25.5443 3.89881 25.6393 4.09633 25.6956C4.29386 25.7519 4.50062 25.7683 4.70454 25.7438C4.90847 25.7194 5.10548 25.6545 5.28409 25.5531C7.9627 23.9284 10.3733 21.8983 12.4301 19.5351C13.266 20.46 14.1819 21.3093 15.1671 22.0731C15.3317 22.1926 15.5181 22.2784 15.7159 22.3257C15.9137 22.373 16.1188 22.3809 16.3196 22.3489C16.5204 22.3168 16.7129 22.2455 16.8861 22.139C17.0594 22.0325 17.2099 21.8929 17.3291 21.7281L17.3251 21.7311Z" fill="#313201"/>
</g>
<defs>
<clipPath id="clip0_1272_3767">
<rect width="31.499" height="29.251" fill="white" transform="translate(0.742188 0.994141)"/>
</clipPath>
</defs>
</svg>
