<svg xmlns="http://www.w3.org/2000/svg" width="122.4" height="87.429" viewBox="0 0 122.4 87.429">
  <g id="video-chat" transform="translate(-2.25 -6.75)">
    <path id="Path_1" data-name="Path 1" d="M9,13.5H48.343v8.743H9Z" transform="translate(19.479 19.479)"/>
    <path id="Path_2" data-name="Path 2" d="M9,19.125H30.857v8.743H9Z" transform="translate(19.479 35.711)"/>
    <path id="Path_3" data-name="Path 3" d="M85.307,94.179H10.993A8.751,8.751,0,0,1,2.25,85.436V15.493A8.751,8.751,0,0,1,10.993,6.75H85.307a8.751,8.751,0,0,1,8.743,8.743V33.227l23.687-16.918a4.371,4.371,0,0,1,6.913,3.555v61.2a4.371,4.371,0,0,1-6.913,3.559L94.05,67.705V85.436A8.751,8.751,0,0,1,85.307,94.179ZM10.993,15.493V85.44l74.314,0V59.207a4.371,4.371,0,0,1,6.913-3.559l23.687,16.918v-44.2L92.22,45.281a4.371,4.371,0,0,1-6.913-3.559V15.493Z" transform="translate(0 0)"/>
  </g>
</svg>
