<svg id="location" xmlns="http://www.w3.org/2000/svg" width="17.286" height="22" viewBox="0 0 17.286 22">
  <path id="Path_12402" data-name="Path 12402" d="M16.3,16.857a3.929,3.929,0,1,1,3.929-3.929A3.929,3.929,0,0,1,16.3,16.857Zm0-6.286a2.357,2.357,0,1,0,2.357,2.357A2.357,2.357,0,0,0,16.3,10.571Z" transform="translate(-7.661 -4.286)" fill="#3eabf4"/>
  <path id="Path_12403" data-name="Path 12403" d="M14.268,24.25,7.639,16.433q-.138-.176-.273-.354a8.556,8.556,0,0,1-1.741-5.186,8.643,8.643,0,0,1,17.286,0,8.552,8.552,0,0,1-1.74,5.184v0s-.235.309-.271.351ZM8.62,15.132s.184.242.226.294l5.422,6.4,5.429-6.4c.034-.043.219-.287.219-.288a6.994,6.994,0,0,0,1.423-4.237,7.071,7.071,0,0,0-14.143,0,7,7,0,0,0,1.425,4.239Z" transform="translate(-5.625 -2.25)" fill="#3eabf4"/>
</svg>
