<svg width="19" height="15" viewBox="0 0 19 15" fill="none" xmlns="http://www.w3.org/2000/svg">
<g clip-path="url(#clip0_1272_3779)">
<path d="M17.4674 0.758789H1.45941C1.15626 0.758789 0.865537 0.879212 0.651183 1.09357C0.436829 1.30792 0.316406 1.59865 0.316406 1.90179V13.3358C0.316406 13.6389 0.436829 13.9297 0.651183 14.144C0.865537 14.3584 1.15626 14.4788 1.45941 14.4788H17.4674C17.7705 14.4788 18.0613 14.3584 18.2756 14.144C18.49 13.9297 18.6104 13.6389 18.6104 13.3358V1.90179C18.6104 1.59865 18.49 1.30792 18.2756 1.09357C18.0613 0.879212 17.7705 0.758789 17.4674 0.758789ZM16.5874 13.3358H2.40841L6.40841 9.19679L5.58541 8.40179L1.45941 12.6728V2.77279L8.56541 9.84479C8.77958 10.0578 9.06935 10.1773 9.37141 10.1773C9.67346 10.1773 9.96324 10.0578 10.1774 9.84479L17.4664 2.59579V12.5958L13.2584 8.38779L12.4524 9.19379L16.5874 13.3358ZM2.20841 1.90179H16.5414L9.37241 9.03079L2.20841 1.90179Z" fill="#313201"/>
</g>
<defs>
<clipPath id="clip0_1272_3779">
<rect width="18.294" height="13.721" fill="white" transform="translate(0.316406 0.758789)"/>
</clipPath>
</defs>
</svg>
