<svg width="30" height="30" viewBox="0 0 30 30" fill="none" xmlns="http://www.w3.org/2000/svg">
<path d="M27.5 9.2876V16.7876C27.5 18.6626 26.875 20.2251 25.775 21.3251C24.6875 22.4126 23.125 23.0376 21.25 23.0376V25.7001C21.25 26.7001 20.1375 27.3001 19.3125 26.7501L13.75 23.0376H11.1C11.2 22.6626 11.25 22.2751 11.25 21.8751C11.25 20.6001 10.7625 19.4251 9.9625 18.5376C9.0625 17.5126 7.725 16.8751 6.25 16.8751C4.85 16.8751 3.57501 17.4501 2.66251 18.3876C2.55001 17.8876 2.5 17.3501 2.5 16.7876V9.2876C2.5 5.5376 5 3.0376 8.75 3.0376H21.25C25 3.0376 27.5 5.5376 27.5 9.2876Z" stroke="#292D32" stroke-width="1.5" stroke-miterlimit="10" stroke-linecap="round" stroke-linejoin="round"/>
<path d="M11.25 21.875C11.25 23.375 10.5875 24.7125 9.55002 25.625C8.66252 26.4 7.5125 26.875 6.25 26.875C3.4875 26.875 1.25 24.6375 1.25 21.875C1.25 20.3 1.975 18.8875 3.125 17.975C3.9875 17.2875 5.075 16.875 6.25 16.875C9.0125 16.875 11.25 19.1125 11.25 21.875Z" stroke="#292D32" stroke-width="1.5" stroke-miterlimit="10" stroke-linecap="round" stroke-linejoin="round"/>
<path d="M6.5625 20.3125V22.1875L5 23.125" stroke="#292D32" stroke-width="1.5" stroke-miterlimit="10" stroke-linecap="round" stroke-linejoin="round"/>
<path d="M10.625 13.125H19.375" stroke="#292D32" stroke-width="1.5" stroke-miterlimit="10" stroke-linecap="round" stroke-linejoin="round"/>
</svg>
