<svg xmlns="http://www.w3.org/2000/svg" width="21.731" height="21.731" viewBox="0 0 21.731 21.731">
  <g id="Group_3224" data-name="Group 3224" transform="translate(-58 -824.76)">
    <g id="ios-sunny" transform="translate(54.625 821.385)">
      <path id="Path_12410" data-name="Path 12410" d="M17.722,27.211a.8.8,0,0,0-.8.8v2.413a.8.8,0,0,0,1.609,0V28.016A.8.8,0,0,0,17.722,27.211Z" transform="translate(-3.481 -6.127)" fill="#f60"/>
      <path id="Path_12411" data-name="Path 12411" d="M17.722,3.375a.8.8,0,0,0-.8.8V6.593a.8.8,0,0,0,1.609,0V4.18a.8.8,0,0,0-.8-.8Z" transform="translate(-3.481)" fill="#f60"/>
      <path id="Path_12412" data-name="Path 12412" d="M7.4,17.722a.8.8,0,0,0-.8-.8H4.18a.8.8,0,0,0,0,1.609H6.593a.8.8,0,0,0,.8-.8Z" transform="translate(0 -3.481)" fill="#f60"/>
      <path id="Path_12413" data-name="Path 12413" d="M30.429,16.917H28.016a.8.8,0,1,0,0,1.609h2.413a.8.8,0,0,0,0-1.609Z" transform="translate(-6.127 -3.481)" fill="#f60"/>
      <path id="Path_12414" data-name="Path 12414" d="M9.854,24.195a.8.8,0,0,0-.569.235L7.577,26.138a.8.8,0,0,0,1.138,1.138l1.708-1.708a.8.8,0,0,0-.569-1.374Z" transform="translate(-1.02 -5.352)" fill="#f60"/>
      <path id="Path_12415" data-name="Path 12415" d="M25,10.658a.8.8,0,0,0,.569-.235l1.708-1.708a.8.8,0,0,0-1.138-1.138L24.43,9.285A.8.8,0,0,0,25,10.658Z" transform="translate(-5.352 -1.02)" fill="#f60"/>
      <path id="Path_12416" data-name="Path 12416" d="M8.715,7.576A.8.8,0,0,0,7.577,8.714l1.708,1.708a.8.8,0,0,0,1.138-1.138L8.715,7.576Z" transform="translate(-1.02 -1.02)" fill="#f60"/>
      <path id="Path_12417" data-name="Path 12417" d="M25.569,24.43a.805.805,0,0,0-1.138,1.139l1.708,1.708a.8.8,0,0,0,1.138-1.138l-1.708-1.708Z" transform="translate(-5.352 -5.352)" fill="#f60"/>
      <path id="Path_12418" data-name="Path 12418" d="M16.265,11.25a5.015,5.015,0,1,0,5.015,5.015A5.022,5.022,0,0,0,16.265,11.25Z" transform="translate(-2.024 -2.024)" fill="#f60"/>
    </g>
  </g>
</svg>
