<svg width="18" height="20" viewBox="0 0 18 20" fill="none" xmlns="http://www.w3.org/2000/svg">
<g clip-path="url(#clip0_1272_3923)">
<path d="M17.736 11.2331L16.174 5.61207C15.7164 3.96514 14.7215 2.51842 13.3473 1.50187C11.9731 0.485306 10.2986 -0.0427577 8.58985 0.00160715C6.88111 0.045972 5.23623 0.66022 3.91666 1.74672C2.59708 2.83322 1.67854 4.32961 1.30703 5.99807L0.097028 11.4381C-0.0358546 12.0389 -0.0322037 12.6619 0.107712 13.2611C0.247627 13.8603 0.520239 14.4204 0.905452 14.9003C1.29066 15.3801 1.77866 15.7674 2.33345 16.0335C2.88824 16.2997 3.4957 16.4379 4.11103 16.4381H5.02703C5.21603 17.3673 5.72041 18.2027 6.45475 18.8027C7.18908 19.4027 8.10823 19.7305 9.05653 19.7305C10.0048 19.7305 10.924 19.4027 11.6583 18.8027C12.3926 18.2027 12.897 17.3673 13.086 16.4381H13.775C14.4089 16.438 15.0341 16.2915 15.602 16.0099C16.1698 15.7282 16.6649 15.3191 17.0484 14.8145C17.432 14.3099 17.6938 13.7235 17.8132 13.101C17.9327 12.4785 17.9066 11.8368 17.737 11.2261L17.736 11.2331ZM9.05603 18.0901C8.54752 18.088 8.05207 17.9288 7.63749 17.6344C7.22291 17.3399 6.90946 16.9245 6.74003 16.4451H11.372C11.2026 16.9245 10.8891 17.3399 10.4746 17.6344C10.06 17.9288 9.56454 18.088 9.05603 18.0901ZM15.738 13.8261C15.5088 14.13 15.2118 14.3763 14.8707 14.5454C14.5296 14.7145 14.1537 14.8017 13.773 14.8001H4.11303C3.74385 14.8 3.37941 14.717 3.04656 14.5573C2.71371 14.3976 2.42095 14.1652 2.18986 13.8773C1.95877 13.5894 1.79524 13.2533 1.71133 12.8938C1.62742 12.5343 1.62527 12.1605 1.70503 11.8001L2.91303 6.35807C3.20423 5.0473 3.92529 3.87151 4.96155 3.01765C5.99781 2.16379 7.28978 1.68088 8.63205 1.64571C9.97431 1.61054 11.2898 2.02511 12.3694 2.82353C13.4489 3.62194 14.2306 4.75835 14.59 6.05207L16.152 11.6741C16.2553 12.0403 16.2717 12.4256 16.2 12.7994C16.1283 13.1731 15.9705 13.525 15.739 13.8271L15.738 13.8261Z" fill="#313201"/>
</g>
<defs>
<clipPath id="clip0_1272_3923">
<rect width="17.888" height="19.739" fill="white"/>
</clipPath>
</defs>
</svg>
