<svg xmlns="http://www.w3.org/2000/svg" width="77.388" height="19.777" viewBox="0 0 77.388 19.777">
  <g id="Group_3468" data-name="Group 3468" transform="translate(-0.5 -24)">
    <path id="Path_12559" data-name="Path 12559" d="M50.41,28.2H46.234a.816.816,0,0,0-.614.491L43.9,39.5a.326.326,0,0,0,.369.369H46.48a.326.326,0,0,0,.369-.369l.491-3.071a.562.562,0,0,1,.614-.491H49.3q4.238,0,4.791-4.054a3.22,3.22,0,0,0-.491-2.7A4.954,4.954,0,0,0,50.41,28.2m.491,4.054c-.246,1.474-1.351,1.474-2.457,1.474h-.737L48.2,30.9c0-.123.123-.246.369-.246h.246c.737,0,1.474,0,1.843.491.246.123.246.491.246,1.106" transform="translate(9.912 0.959)" fill="#139ad6"/>
    <path id="Path_12560" data-name="Path 12560" d="M25.91,28.2H21.734a.816.816,0,0,0-.614.491L19.4,39.5a.326.326,0,0,0,.369.369h1.965a.816.816,0,0,0,.614-.491l.491-2.948a.562.562,0,0,1,.614-.491H24.8q4.238,0,4.791-4.054a3.22,3.22,0,0,0-.491-2.7A4.721,4.721,0,0,0,25.91,28.2m.491,4.054c-.246,1.474-1.351,1.474-2.457,1.474h-.614l.491-2.825c0-.123.123-.246.369-.246h.246c.737,0,1.474,0,1.843.491a1.316,1.316,0,0,1,.123,1.106" transform="translate(4.316 0.959)" fill="#263b80"/>
    <path id="Path_12561" data-name="Path 12561" d="M36.773,31.446H34.807c-.123,0-.369.123-.369.246l-.123.614-.123-.246a2.89,2.89,0,0,0-2.334-.86,4.72,4.72,0,0,0-4.545,4.054,3.661,3.661,0,0,0,.737,3.071,3.1,3.1,0,0,0,2.58.983A3.926,3.926,0,0,0,33.456,38.2l-.123.614a.326.326,0,0,0,.369.369h1.843a.816.816,0,0,0,.614-.491l1.106-6.879c-.123-.123-.369-.369-.491-.369m-2.825,3.931a2.376,2.376,0,0,1-2.334,1.965,1.964,1.964,0,0,1-1.351-.491,2.62,2.62,0,0,1-.369-1.474A2.191,2.191,0,0,1,33.456,33.9a2.145,2.145,0,0,1,.491,1.474" transform="translate(6.106 1.644)" fill="#263b80"/>
    <path id="Path_12562" data-name="Path 12562" d="M61.173,31.446H59.207c-.123,0-.369.123-.369.246l-.123.614-.123-.246a2.89,2.89,0,0,0-2.334-.86,4.72,4.72,0,0,0-4.545,4.054,3.661,3.661,0,0,0,.737,3.071,3.1,3.1,0,0,0,2.58.983A3.926,3.926,0,0,0,57.856,38.2l-.123.614a.326.326,0,0,0,.369.369h1.843a.816.816,0,0,0,.614-.491l1.106-6.879c-.123-.123-.246-.369-.491-.369m-2.825,3.931a2.376,2.376,0,0,1-2.334,1.965,1.964,1.964,0,0,1-1.351-.491,2.62,2.62,0,0,1-.369-1.474A2.191,2.191,0,0,1,57.856,33.9a1.41,1.41,0,0,1,.491,1.474" transform="translate(11.679 1.644)" fill="#139ad6"/>
    <path id="Path_12563" data-name="Path 12563" d="M45.459,31.4H43.37a.638.638,0,0,0-.491.246l-2.7,4.177-1.228-3.931a.567.567,0,0,0-.614-.369H36.369c-.246,0-.369.246-.369.491l2.211,6.51-2.088,2.948c-.123.246,0,.614.246.614h1.965a.638.638,0,0,0,.491-.246l6.756-9.7c.369-.369.123-.737-.123-.737" transform="translate(8.108 1.69)" fill="#263b80"/>
    <path id="Path_12564" data-name="Path 12564" d="M61.62,28.555,59.9,39.61a.326.326,0,0,0,.369.369h1.72a.816.816,0,0,0,.614-.491l1.72-10.81a.326.326,0,0,0-.369-.369H61.988c-.123-.123-.246,0-.369.246" transform="translate(13.566 0.973)" fill="#139ad6"/>
    <path id="Path_12565" data-name="Path 12565" d="M14.626,25.474C13.767,24.491,12.17,24,9.959,24H3.817a1.054,1.054,0,0,0-.86.737L.5,40.829a.562.562,0,0,0,.491.614H4.8l.983-6.019v.246a1.054,1.054,0,0,1,.86-.737H8.484c3.562,0,6.265-1.474,7.125-5.528v-.369h0a4.29,4.29,0,0,0-.983-3.562" fill="#263b80"/>
    <g id="Group_3464" data-name="Group 3464" transform="translate(4.431 29.036)">
      <path id="Path_12566" data-name="Path 12566" d="M14.755,28.1v.369C13.9,32.645,11.193,34,7.631,34H5.788a1.054,1.054,0,0,0-.86.737L3.7,42.226a.45.45,0,0,0,.491.491H7.385a.688.688,0,0,0,.737-.614v-.123l.614-3.808v-.246a.688.688,0,0,1,.737-.614h.491c3.071,0,5.528-1.228,6.142-4.914a4.516,4.516,0,0,0-.614-3.685,1.258,1.258,0,0,0-.737-.614" transform="translate(-3.7 -28.1)" fill="#139ad6"/>
    </g>
    <g id="Group_3465" data-name="Group 3465" transform="translate(5.782 28.299)">
      <path id="Path_12567" data-name="Path 12567" d="M13.644,27.869c-.123,0-.246-.123-.369-.123a.451.451,0,0,1-.369-.123,6.489,6.489,0,0,0-1.6-.123H6.52a.451.451,0,0,0-.369.123.676.676,0,0,0-.369.614L4.8,34.625v.246a1.054,1.054,0,0,1,.86-.737H7.5c3.562,0,6.265-1.474,7.125-5.528a.451.451,0,0,1,.123-.369c-.246-.123-.369-.246-.614-.246-.369-.123-.369-.123-.491-.123" transform="translate(-4.8 -27.5)" fill="#232c65"/>
    </g>
  </g>
</svg>
