<svg xmlns="http://www.w3.org/2000/svg" width="180.391" height="58.16" viewBox="0 0 180.391 58.16">
  <g id="Group_132" data-name="Group 132" transform="translate(148.685 -210.276)">
    <path id="Path_245" data-name="Path 245" d="M208.607,236.173l1.492-1.194c5.186-4.4,11.827-3.917,16.267,1.306.448.522.672.56,1.119.112.3-.336.634-.6.933-.933a11.292,11.292,0,0,1,19.326,8.021c.075,10.708.037,21.378.037,32.086,0,3.806-2.35,6.193-6.119,6.193-1.492,0-2.985-.112-4.477.037-1.53.149-1.977-.336-1.977-1.94.075-10.446.037-20.893.037-31.339v-1.306c-.037-2.425-1.007-3.432-3.32-3.544a3.4,3.4,0,0,0-3.768,3.283c-.037.485,0,1.007,0,1.492V275.5c0,3.955-2.276,6.268-6.231,6.231-2.015-.037-4.738.9-5.895-.41-1.007-1.119-.336-3.768-.336-5.746v-27.8c0-3.283-2.127-4.962-4.887-3.843-1.716.709-2.276,2.089-2.276,3.88.037,8.656,0,17.274,0,25.93V275.8a5.7,5.7,0,0,1-6.007,5.932c-1.492.037-2.985-.112-4.477.037-1.6.149-2.089-.3-2.052-2.015.075-14.662.037-29.325.037-44.024,0-.634.037-1.231,0-1.865-.075-.821.261-1.082,1.082-1.082,3.432.037,6.828.037,10.26,0,.858,0,1.268.224,1.194,1.157A15.482,15.482,0,0,0,208.607,236.173Z" transform="translate(-216.084 -13.613)" fill="#02b9ef"/>
    <path id="Path_246" data-name="Path 246" d="M-31.979,257.629v15.3c-.037,6.641-3.507,10.073-10.148,10.111-2.91,0-5.857.037-8.768,0-5.895-.075-10.223-3.992-10.521-9.887a119.888,119.888,0,0,1-.037-12.685c.3-6.044,4.925-10.3,11.043-10.372,1.6-.037,3.246,0,4.85,0,1.567-.037,2.164-.933,2.127-2.425,0-1.492-.672-2.164-2.164-2.089q-2.518.056-5.037,0c-4.1-.075-6.38-2.313-6.342-6.342,0-1.642-.746-3.843.336-4.813.933-.821,3.059-.3,4.664-.3,4.179-.037,8.32,0,12.5,0a7.148,7.148,0,0,1,7.5,7.5C-31.941,246.922-31.979,252.294-31.979,257.629ZM-43.4,266.1v-1.865c0-3.806,0-3.806-3.806-3.656a2.757,2.757,0,0,0-2.985,3.022c-.037,1.567-.037,3.1,0,4.664.037,2.686,1.231,3.4,5.111,3.507,2.873.075,1.418-1.94,1.679-3.059A20.333,20.333,0,0,0-43.4,266.1Z" transform="translate(-54.592 -14.848)" fill="#06306f"/>
    <path id="Path_247" data-name="Path 247" d="M57.124,253.827c0,5.708.075,11.454-.037,17.162-.075,4.4-1.119,8.395-5.372,10.745a11.991,11.991,0,0,1-5.522,1.492c-4.291.075-8.581,0-12.872.075-1.045,0-1.269-.373-1.231-1.306.075-1.567-.037-3.1.037-4.664a5.44,5.44,0,0,1,5.335-5.372c1.94-.075,3.843-.037,5.783,0,1.567,0,2.425-.634,2.425-2.313,0-1.716-.821-2.313-2.388-2.35-2.612-.075-5.223.3-7.8-.448a10.4,10.4,0,0,1-7.8-9.588c-.224-7.275-.075-14.55-.112-21.826,0-.821.261-1.082,1.082-1.045,3.059.037,6.081.075,9.141,0,1.343-.037,1.157.709,1.157,1.53v16.416c0,2.388,1.119,3.656,3.209,3.731,2.462.075,3.544-.933,3.544-3.432,0-5.522.037-11.081-.037-16.6,0-1.306.336-1.679,1.642-1.642,2.724.112,5.484.149,8.208,0,1.492-.075,1.716.485,1.679,1.791C57.087,242.037,57.124,247.932,57.124,253.827Z" transform="translate(-110.49 -15.112)" fill="#06306f"/>
    <path id="Path_248" data-name="Path 248" d="M-148.429,262.1V243.823c0-5.969,3.656-9.7,9.663-9.626,3.917.037,7.835-.448,11.715.3a9.736,9.736,0,0,1,8.133,9.924c.037,5.41,0,10.82,0,16.229,0,6.79-3.992,10.931-10.782,11.118-2.052.075-4.1.037-6.156,0-.933-.037-1.343.261-1.306,1.268.075,1.492.037,2.985,0,4.477a5.448,5.448,0,0,1-5.522,5.559c-1.865.037-4.216.783-5.41-.3-1.119-1.007-.3-3.4-.336-5.186C-148.466,272.439-148.429,267.253-148.429,262.1Zm11.267-9.141v3.544c0,4.216,0,4.216,4.216,3.843a2.588,2.588,0,0,0,2.724-2.873c.037-2.089-.075-4.216.037-6.305.224-6.044-.9-5.447-5.82-5.484-.9,0-1.194.261-1.194,1.157C-137.125,248.859-137.162,250.911-137.162,252.963Z" transform="translate(0 -14.92)" fill="#06306f"/>
    <path id="Path_249" data-name="Path 249" d="M123.414,247.258c0-4.962-.037-9.961.037-14.924,0-1.157-.261-1.642-1.53-1.6-1.679.075-3.917.56-4.85-.261-1.157-1.082-.261-3.4-.41-5.186v-.373c0-1.754-.56-3.805.187-5.111s3.022-.485,4.626-.9a13.517,13.517,0,0,0,7.5-5.186,8.539,8.539,0,0,1,5.186-3.358c1.157-.224,1.865-.075,1.791,1.418-.112,2.089,0,4.216-.037,6.342-.037.9.3,1.194,1.194,1.157,1.492-.037,2.985.037,4.477-.037.9-.037,1.194.3,1.157,1.194-.037,3.059-.037,6.081,0,9.141,0,.858-.224,1.306-1.157,1.194a2.8,2.8,0,0,0-.56,0c-1.642.149-3.917-.746-4.776.373-.821,1.045-.3,3.209-.3,4.887,0,10.148-.037,20.259.037,30.407,0,1.418-.373,1.865-1.791,1.754-1.343-.112-2.724,0-4.1-.037a6.545,6.545,0,0,1-6.678-6.9Z" transform="translate(-166.222 0)" fill="#02b9ef"/>
  </g>
</svg>
