<svg xmlns="http://www.w3.org/2000/svg" width="16" height="15" viewBox="0 0 16 15">
  <path id="Polygon_2" data-name="Polygon 2" d="M6.66,2.662a1.5,1.5,0,0,1,2.68,0l.789,1.568a1.5,1.5,0,0,0,1.124.81l1.72.25A1.5,1.5,0,0,1,13.8,7.853L12.584,9.026a1.5,1.5,0,0,0-.437,1.333l.288,1.674a1.5,1.5,0,0,1-2.166,1.587l-1.582-.815a1.5,1.5,0,0,0-1.375,0l-1.582.815a1.5,1.5,0,0,1-2.166-1.587l.288-1.674a1.5,1.5,0,0,0-.437-1.333L2.2,7.853a1.5,1.5,0,0,1,.826-2.564l1.72-.25a1.5,1.5,0,0,0,1.124-.81Z" fill="#f60"/>
</svg>
