<svg width="19" height="21" viewBox="0 0 19 21" fill="none" xmlns="http://www.w3.org/2000/svg">
<g clip-path="url(#clip0_1272_3804)">
<path fill-rule="evenodd" clip-rule="evenodd" d="M5.65433 2.5502H13.7233V0.533203H15.7403V2.5502H16.7493C17.2843 2.5502 17.7973 2.76271 18.1756 3.14097C18.5538 3.51923 18.7663 4.03226 18.7663 4.5672V18.6872C18.7663 19.2221 18.5538 19.7352 18.1756 20.1134C17.7973 20.4917 17.2843 20.7042 16.7493 20.7042H2.62833C2.09339 20.7042 1.58035 20.4917 1.20209 20.1134C0.823833 19.7352 0.611328 19.2221 0.611328 18.6872V4.5672C0.611328 4.03226 0.823833 3.51923 1.20209 3.14097C1.58035 2.76271 2.09339 2.5502 2.62833 2.5502H3.63733V0.533203H5.65433V2.5502ZM2.62833 6.5842V18.6842H16.7483V6.5842H2.62833ZM4.64533 9.6102H6.66233V11.6272H4.64533V9.6102ZM8.67933 9.6102H10.6963V11.6272H8.68033L8.67933 9.6102ZM12.7133 9.6102H14.7313V11.6272H12.7113L12.7133 9.6102ZM12.7133 13.6442H14.7313V15.6612H12.7113L12.7133 13.6442ZM8.67933 13.6442H10.6963V15.6612H8.68033L8.67933 13.6442ZM4.64533 13.6442H6.66233V15.6612H4.64533V13.6442Z" fill="#313201"/>
</g>
<defs>
<clipPath id="clip0_1272_3804">
<rect width="18.154" height="20.171" fill="white" transform="translate(0.611328 0.533203)"/>
</clipPath>
</defs>
</svg>
