<svg width="32" height="33" viewBox="0 0 32 33" fill="none" xmlns="http://www.w3.org/2000/svg">
<g clip-path="url(#clip0_1272_3808)">
<path d="M28.4249 17.4744V15.7534L30.5849 13.8634C30.983 13.5124 31.2443 13.0319 31.3224 12.5069C31.4005 11.9819 31.2905 11.4461 31.0119 10.9944L28.3569 6.49438C28.0953 6.04614 27.688 5.70115 27.2028 5.51697C26.7176 5.3328 26.184 5.32059 25.6909 5.48238L22.9569 6.40438C22.4848 6.09064 21.9924 5.80869 21.4829 5.56038L20.9089 2.72538C20.8049 2.2084 20.5227 1.74436 20.1114 1.41428C19.7002 1.08419 19.1861 0.90903 18.6589 0.919379H13.3939C12.8659 0.90925 12.3513 1.08512 11.9399 1.4162C11.5286 1.74728 11.2468 2.21248 11.1439 2.73038L10.5699 5.56038C10.0568 5.80863 9.56071 6.09058 9.08487 6.40438L6.40787 5.43638C6.17338 5.37548 5.93058 5.35286 5.68887 5.36938C5.29435 5.36983 4.90688 5.474 4.56532 5.67146C4.22377 5.86892 3.94013 6.15271 3.74287 6.49438L1.08787 10.9944C0.82504 11.4457 0.727399 11.9744 0.811692 12.4898C0.895985 13.0053 1.15696 13.4753 1.54987 13.8194L3.67587 15.7654V17.4864L1.54987 19.3754C1.14628 19.7219 0.87852 20.2003 0.794126 20.7255C0.709731 21.2507 0.814158 21.7888 1.08887 22.2444L3.74387 26.7444C4.0054 27.1926 4.41275 27.5376 4.89793 27.7218C5.38311 27.906 5.91678 27.9182 6.40987 27.7564L9.14387 26.8344C9.61593 27.1481 10.1084 27.4301 10.6179 27.6784L11.1919 30.5134C11.2948 31.0313 11.5766 31.4965 11.9879 31.8276C12.3993 32.1586 12.9139 32.3345 13.4419 32.3244H18.7499C19.2778 32.3345 19.7925 32.1586 20.2038 31.8276C20.6152 31.4965 20.8969 31.0313 20.9999 30.5134L21.5739 27.6784C22.087 27.4301 22.583 27.1482 23.0589 26.8344L25.7819 27.7564C26.2752 27.9187 26.8094 27.9067 27.295 27.7225C27.7806 27.5383 28.1883 27.1931 28.4499 26.7444L31.0149 22.2444C31.2774 21.7927 31.3745 21.2638 31.2897 20.7484C31.2048 20.2329 30.9433 19.7631 30.5499 19.4194L28.4249 17.4744ZM26.4109 25.6194L22.5499 24.3144C21.6465 25.0794 20.614 25.6775 19.5009 26.0804L18.7009 30.1194H13.3909L12.5909 26.1254C11.4864 25.711 10.4595 25.1141 9.55287 24.3594L5.68887 25.6194L3.03387 21.1194L6.09387 18.4194C5.8859 17.2549 5.8859 16.0628 6.09387 14.8984L3.03387 12.1194L5.68887 7.61938L9.54987 8.92438C10.4533 8.15931 11.4857 7.5613 12.5989 7.15838L13.3989 3.11938H18.7089L19.5089 7.11338C20.6133 7.52773 21.6403 8.12471 22.5469 8.87938L26.4109 7.61938L29.0659 12.1194L26.0059 14.8194C26.2138 15.9838 26.2138 17.1759 26.0059 18.3404L29.0659 21.1194L26.4109 25.6194Z" fill="#313201"/>
<path d="M16.0491 23.3696C14.506 23.354 13.0157 22.8048 11.8315 21.8153C10.6472 20.8257 9.84193 19.4568 9.55233 17.941C9.26273 16.4252 9.50667 14.8558 10.2427 13.4994C10.9788 12.143 12.1616 11.0831 13.5904 10.4998C15.0191 9.91641 16.6057 9.8455 18.0808 10.2991C19.5559 10.7527 20.8286 11.7028 21.6827 12.9881C22.5368 14.2735 22.9198 15.8148 22.7666 17.3504C22.6134 18.8861 21.9334 20.3213 20.8421 21.4126C20.2113 22.0381 19.4632 22.533 18.6407 22.8688C17.8182 23.2047 16.9375 23.3748 16.0491 23.3696ZM16.0491 12.1196C15.4544 12.1059 14.8632 12.2129 14.311 12.4342C13.7589 12.6555 13.2573 12.9865 12.8367 13.4071C12.4161 13.8278 12.0851 14.3293 11.8638 14.8814C11.6425 15.4336 11.5355 16.0249 11.5491 16.6196C11.5355 17.2143 11.6425 17.8055 11.8638 18.3577C12.0851 18.9098 12.4161 19.4114 12.8367 19.832C13.2573 20.2526 13.7589 20.5836 14.311 20.8049C14.8632 21.0262 15.4544 21.1332 16.0491 21.1196C16.6438 21.1332 17.2351 21.0262 17.7873 20.8049C18.3394 20.5836 18.8409 20.2526 19.2616 19.832C19.6822 19.4114 20.0132 18.9098 20.2345 18.3577C20.4558 17.8055 20.5628 17.2143 20.5491 16.6196C20.5628 16.0249 20.4558 15.4336 20.2345 14.8814C20.0132 14.3293 19.6822 13.8278 19.2616 13.4071C18.8409 12.9865 18.3394 12.6555 17.7873 12.4342C17.2351 12.2129 16.6438 12.1059 16.0491 12.1196Z" fill="#313201"/>
</g>
<defs>
<clipPath id="clip0_1272_3808">
<rect width="30.582" height="31.41" fill="white" transform="translate(0.765625 0.914062)"/>
</clipPath>
</defs>
</svg>
