<svg width="17" height="17" viewBox="0 0 17 17" fill="none" xmlns="http://www.w3.org/2000/svg">
<g clip-path="url(#clip0_1272_3812)">
<path d="M13.812 5.92506C14.3588 5.92516 14.8927 5.75878 15.3427 5.44806C15.7927 5.13734 16.1374 4.69699 16.331 4.18559C16.5246 3.67419 16.558 3.11597 16.4266 2.58515C16.2952 2.05434 16.0054 1.57609 15.5956 1.21401C15.1859 0.851927 14.6756 0.623171 14.1326 0.558163C13.5897 0.493154 13.0398 0.594974 12.5561 0.85008C12.0724 1.10519 11.6779 1.50149 11.4249 1.98629C11.172 2.47109 11.0726 3.02141 11.14 3.56406L4.91001 6.67907C4.5296 6.31223 4.04968 6.06543 3.53002 5.9694C3.01035 5.87337 2.47392 5.93236 1.98754 6.13902C1.50117 6.34567 1.08634 6.69087 0.79474 7.13159C0.50314 7.57232 0.347656 8.0891 0.347656 8.61756C0.347656 9.14603 0.50314 9.66281 0.79474 10.1035C1.08634 10.5443 1.50117 10.8895 1.98754 11.0961C2.47392 11.3028 3.01035 11.3618 3.53002 11.2657C4.04968 11.1697 4.5296 10.9229 4.91001 10.5561L11.14 13.6711C11.0624 14.3016 11.2101 14.9393 11.5572 15.4715C11.9043 16.0036 12.4283 16.3959 13.0367 16.579C13.6451 16.7621 14.2986 16.7242 14.8817 16.472C15.4648 16.2198 15.94 15.7696 16.2233 15.201C16.5066 14.6323 16.5797 13.9818 16.4297 13.3644C16.2797 12.7471 15.9163 12.2026 15.4036 11.8273C14.891 11.452 14.2622 11.27 13.6284 11.3135C12.9946 11.357 12.3965 11.6232 11.94 12.0651L5.71001 8.95006C5.73712 8.72956 5.73712 8.50657 5.71001 8.28606L11.946 5.17207C12.4465 5.656 13.1158 5.92607 13.812 5.92506Z" fill="#313201"/>
</g>
<defs>
<clipPath id="clip0_1272_3812">
<rect width="16.158" height="16.159" fill="white" transform="translate(0.347656 0.539062)"/>
</clipPath>
</defs>
</svg>
