<svg width="30" height="30" viewBox="0 0 30 30" fill="none" xmlns="http://www.w3.org/2000/svg">
<g clip-path="url(#clip0_1272_3821)">
<path d="M15.0059 29.1191C23.014 29.1191 29.5059 22.6273 29.5059 14.6191C29.5059 6.61101 23.014 0.119141 15.0059 0.119141C6.99773 0.119141 0.505859 6.61101 0.505859 14.6191C0.505859 22.6273 6.99773 29.1191 15.0059 29.1191Z" fill="#313201"/>
<path d="M17.4764 13.1545L13.4164 9.09752C13.2475 8.94746 13.0277 8.86764 12.8019 8.87442C12.5761 8.8812 12.3615 8.97406 12.2019 9.13399C12.0424 9.29391 11.95 9.50878 11.9438 9.73459C11.9376 9.96039 12.0179 10.18 12.1684 10.3485L16.2254 14.4055C16.3912 14.5715 16.4843 14.7964 16.4843 15.031C16.4843 15.2656 16.3912 15.4906 16.2254 15.6565L12.1684 19.7135C12.0847 19.7954 12.0181 19.893 11.9725 20.0008C11.9268 20.1086 11.903 20.2244 11.9024 20.3414C11.9017 20.4585 11.9244 20.5745 11.9689 20.6828C12.0134 20.791 12.079 20.8894 12.1618 20.9721C12.2446 21.0548 12.343 21.1203 12.4513 21.1648C12.5596 21.2092 12.6756 21.2317 12.7927 21.231C12.9097 21.2303 13.0255 21.2064 13.1332 21.1607C13.241 21.1149 13.3386 21.0482 13.4204 20.9645L17.4764 16.9075C17.974 16.4098 18.2535 15.7348 18.2535 15.031C18.2535 14.3272 17.974 13.6522 17.4764 13.1545Z" fill="#F0DF20"/>
</g>
<defs>
<clipPath id="clip0_1272_3821">
<rect width="29" height="29" fill="white" transform="translate(0.505859 0.119141)"/>
</clipPath>
</defs>
</svg>
