<svg xmlns="http://www.w3.org/2000/svg" width="42.344" height="12.355" viewBox="0 0 42.344 12.355">
  <g id="Group_3225" data-name="Group 3225" transform="translate(-90.404 -768.75)">
    <path id="fi-rr-angle-small-right" d="M14.674,9.32l-4.06-4.057A.885.885,0,0,0,9.366,6.514l4.057,4.057a.885.885,0,0,1,0,1.251L9.366,15.879a.885.885,0,1,0,1.252,1.251l4.056-4.057A2.654,2.654,0,0,0,14.674,9.32Z" transform="translate(81.296 763.715)" fill="#fff" opacity="0.2"/>
    <path id="fi-rr-angle-small-right-2" data-name="fi-rr-angle-small-right" d="M14.674,9.32l-4.06-4.057A.885.885,0,0,0,9.366,6.514l4.057,4.057a.885.885,0,0,1,0,1.251L9.366,15.879a.885.885,0,1,0,1.252,1.251l4.056-4.057A2.654,2.654,0,0,0,14.674,9.32Z" transform="translate(93.296 763.715)" fill="#fff" opacity="0.3"/>
    <path id="fi-rr-angle-small-right-3" data-name="fi-rr-angle-small-right" d="M14.674,9.32l-4.06-4.057A.885.885,0,0,0,9.366,6.514l4.057,4.057a.885.885,0,0,1,0,1.251L9.366,15.879a.885.885,0,1,0,1.252,1.251l4.056-4.057A2.654,2.654,0,0,0,14.674,9.32Z" transform="translate(105.296 763.715)" fill="#fff" opacity="0.4"/>
    <path id="fi-rr-angle-small-right-4" data-name="fi-rr-angle-small-right" d="M14.674,9.32l-4.06-4.057A.885.885,0,0,0,9.366,6.514l4.057,4.057a.885.885,0,0,1,0,1.251L9.366,15.879a.885.885,0,1,0,1.252,1.251l4.056-4.057A2.654,2.654,0,0,0,14.674,9.32Z" transform="translate(117.296 763.715)" fill="#fff" opacity="0.5"/>
  </g>
</svg>
