<svg xmlns="http://www.w3.org/2000/svg" width="24" height="10" viewBox="0 0 24 10">
  <g id="Group_3459" data-name="Group 3459" transform="translate(0 -7)">
    <rect id="Rectangle_2982" data-name="Rectangle 2982" width="1.673" height="5.805" transform="translate(11.319 9.242)" fill="#646fde"/>
    <path id="Path_12525" data-name="Path 12525" d="M4.226,13.355c0-2.005-2.547-1.644-2.547-2.4v0c0-.262.218-.364.567-.368a3.7,3.7,0,0,1,1.658.432V9.434a4.4,4.4,0,0,0-1.654-.307C.9,9.127,0,9.839,0,11.029c0,1.864,2.532,1.561,2.532,2.365,0,.31-.266.413-.638.413a4.171,4.171,0,0,1-1.823-.538v1.516a4.591,4.591,0,0,0,1.819.382C3.274,15.166,4.226,14.567,4.226,13.355Z" fill="#646fde"/>
    <path id="Path_12526" data-name="Path 12526" d="M11.314,8.732l1.673-.36V7l-1.673.36Z" fill="#646fde"/>
    <path id="Path_12527" data-name="Path 12527" d="M16.468,9.129a1.861,1.861,0,0,0-1.305.527l-.086-.417H13.61V17l1.665-.357,0-1.9a1.855,1.855,0,0,0,1.178.425c1.193,0,2.28-.879,2.28-3.016C18.741,10.194,17.639,9.129,16.468,9.129Zm-.4,4.641h0a.99.99,0,0,1-.784-.318l-.011-2.5a1,1,0,0,1,.8-.334c.607,0,1.027.69,1.027,1.569C17.1,13.092,16.69,13.77,16.071,13.77Zm5.521-4.641c-1.583,0-2.547,1.36-2.547,3.074,0,2.027,1.136,2.964,2.757,2.964a3.7,3.7,0,0,0,1.845-.436V13.465a3.5,3.5,0,0,1-1.635.371c-.649,0-1.219-.231-1.294-1.019h3.259c.007-.087.022-.44.022-.6h0C24,10.49,23.175,9.129,21.592,9.129ZM20.7,11.577c0-.758.462-1.076.878-1.076s.844.319.844,1.076Zm-13.251-.9V9.242H6.188l0-1.459-1.625.349-.007,5.4a1.614,1.614,0,0,0,1.729,1.641,2.575,2.575,0,0,0,1.171-.224V13.664c-.214.087-1.264.4-1.264-.6V10.674H7.452Zm3.465.114V9.243a1.132,1.132,0,0,0-1.391.5l-.1-.5H7.984v5.805H9.646V11.141A1.177,1.177,0,0,1,10.917,10.789Z" fill="#646fde"/>
  </g>
</svg>
