<svg xmlns="http://www.w3.org/2000/svg" width="24" height="8.703" viewBox="0 0 24 8.703">
  <g id="surface1" transform="translate(-0.055 0.059)">
    <path id="Path_12528" data-name="Path 12528" d="M.055,8.645h24v-8.7h-24Zm0,0" transform="translate(0 0)" fill="#1b1918" fill-rule="evenodd"/>
    <path id="Path_12529" data-name="Path 12529" d="M29.91,43.717v-.361H30.2V41.615H29.91v-.361h1.145c.525,0,.845.242.845.662a.543.543,0,0,1-.367.527.612.612,0,0,1,.5.573c0,.45-.351.7-.923.7h-1.2Zm.679-2.1v.671h.427c.32,0,.487-.119.487-.336s-.171-.336-.491-.336Zm0,1.742h.487c.376,0,.564-.123.564-.361s-.2-.361-.594-.361h-.457Zm0,0" transform="translate(-28.26 -39.104)" fill="#fff" fill-rule="evenodd"/>
    <path id="Path_12530" data-name="Path 12530" d="M78.287,52.957a.3.3,0,0,0-.29-.229.639.639,0,0,0-.641.684v.467h.632v.361H76.578v-.361h.4V52.792h-.316v-.361h.688v.306a.728.728,0,0,1,.662-.366.6.6,0,0,1,.632.484Zm0,0" transform="translate(-72.433 -49.627)" fill="#fff" fill-rule="evenodd"/>
    <path id="Path_12531" data-name="Path 12531" d="M121.051,53.187v-.1c0-.255-.205-.361-.427-.361a.785.785,0,0,0-.534.217l-.248-.267a1.1,1.1,0,0,1,.782-.3c.457,0,.812.242.812.7v.807h.265v.361h-.649v-.191a.762.762,0,0,1-.624.251c-.376,0-.7-.191-.7-.569,0-.446.44-.616.841-.616A1.776,1.776,0,0,1,121.051,53.187Zm0,.323a1.5,1.5,0,0,0-.466-.076c-.239,0-.47.076-.47.293,0,.161.145.238.346.238.278,0,.589-.148.589-.4v-.051Zm0,0" transform="translate(-113.275 -49.627)" fill="#fff" fill-rule="evenodd"/>
    <path id="Path_12532" data-name="Path 12532" d="M166.79,38.764v.361h-1.837v-.361h.76V37.676h-.581v-.361h.957v1.449Zm-1.123-1.81h.423V36.4h-.423Zm0,0" transform="translate(-156.083 -34.512)" fill="#fff" fill-rule="evenodd"/>
    <path id="Path_12533" data-name="Path 12533" d="M207.785,53.879h.278V52.792H207.8v-.361h.632v.233a.715.715,0,0,1,.624-.293.644.644,0,0,1,.7.667v.841h.278v.361h-.944v-.361h.29V53.14a.35.35,0,0,0-.368-.4.556.556,0,0,0-.572.539v.6h.29v.361h-.944Zm0,0" transform="translate(-196.626 -49.627)" fill="#fff" fill-rule="evenodd"/>
    <path id="Path_12534" data-name="Path 12534" d="M251.087,42.269h-.474v-.361h.474v-.654h.376v.654h.884v.361h-.884v.76a.378.378,0,0,0,.423.395.762.762,0,0,0,.526-.251l.252.259a1.045,1.045,0,0,1-.777.344.715.715,0,0,1-.8-.735v-.773Zm0,0" transform="translate(-237.164 -39.104)" fill="#fff" fill-rule="evenodd"/>
    <path id="Path_12535" data-name="Path 12535" d="M297.068,52.957a.3.3,0,0,0-.29-.229.639.639,0,0,0-.641.684v.467h.632v.361h-1.41v-.361h.4V52.792h-.316v-.361h.687v.306a.729.729,0,0,1,.662-.366.6.6,0,0,1,.632.484Zm0,0" transform="translate(-279.518 -49.627)" fill="#fff" fill-rule="evenodd"/>
    <path id="Path_12536" data-name="Path 12536" d="M340.439,53.964a1.264,1.264,0,0,1-.893.336.966.966,0,0,1-1.038-.964.946.946,0,0,1,.991-.964.969.969,0,0,1,.974,1.032v.064h-1.568a.616.616,0,0,0,.645.484.878.878,0,0,0,.636-.25Zm-1.516-.815h1.119a.551.551,0,0,0-.542-.433A.574.574,0,0,0,338.923,53.149Zm0,0" transform="translate(-320.361 -49.627)" fill="#fff" fill-rule="evenodd"/>
    <path id="Path_12537" data-name="Path 12537" d="M384.15,53.964a1.263,1.263,0,0,1-.893.336.966.966,0,0,1-1.038-.964.946.946,0,0,1,.991-.964.969.969,0,0,1,.974,1.032v.064h-1.568a.617.617,0,0,0,.645.484.878.878,0,0,0,.636-.25Zm-1.516-.815h1.119a.551.551,0,0,0-.542-.433A.574.574,0,0,0,382.633,53.149Zm0,0" transform="translate(-361.735 -49.627)" fill="#fff" fill-rule="evenodd"/>
    <path id="Path_12538" data-name="Path 12538" d="M217.233,105.916l-.2.382h.278Zm-.248.477-.1.185h-.118l.431-.808h.106l.175.808h-.113l-.039-.185Zm0,0" transform="translate(-205.131 -100.171)" fill="#fff" fill-rule="evenodd"/>
    <path id="Path_12539" data-name="Path 12539" d="M354.739,106.3a.208.208,0,0,0,.105-.024.153.153,0,0,0,.062-.062.161.161,0,0,0,.02-.077.1.1,0,0,0-.019-.06.185.185,0,0,0-.066-.048l-.1-.043a.339.339,0,0,1-.125-.084.167.167,0,0,1-.038-.111.221.221,0,0,1,.036-.126.233.233,0,0,1,.1-.084.359.359,0,0,1,.149-.029.407.407,0,0,1,.123.019.261.261,0,0,1,.092.055l-.018.109a.306.306,0,0,0-.21-.083.186.186,0,0,0-.119.036.112.112,0,0,0-.046.092.074.074,0,0,0,.023.054.33.33,0,0,0,.084.05l.1.044a.3.3,0,0,1,.114.086.183.183,0,0,1,.033.11.3.3,0,0,1-.032.136.243.243,0,0,1-.1.1.363.363,0,0,1-.18.039.349.349,0,0,1-.238-.076l.019-.116A.342.342,0,0,0,354.739,106.3Zm0,0" transform="translate(-335.487 -99.96)" fill="#fff" fill-rule="evenodd"/>
    <path id="Path_12540" data-name="Path 12540" d="M366.236,110.066a.244.244,0,0,0-.076.118h.34a.208.208,0,0,0,0-.025.144.144,0,0,0-.035-.1.129.129,0,0,0-.1-.037A.193.193,0,0,0,366.236,110.066Zm.308-.073a.238.238,0,0,1,.058.166.375.375,0,0,1,0,.056c0,.015-.006.033-.011.053h-.441a.17.17,0,0,0,.046.135.185.185,0,0,0,.134.047.363.363,0,0,0,.107-.015.393.393,0,0,0,.095-.044l-.014.088a.371.371,0,0,1-.213.061.273.273,0,0,1-.14-.035.229.229,0,0,1-.09-.1.3.3,0,0,1-.031-.137.365.365,0,0,1,.037-.155.351.351,0,0,1,.114-.135.315.315,0,0,1,.188-.054A.215.215,0,0,1,366.544,109.994Zm0,0" transform="translate(-346.42 -104.109)" fill="#fff" fill-rule="evenodd"/>
    <path id="Path_12541" data-name="Path 12541" d="M377.487,110.306a.156.156,0,0,0-.117.05.26.26,0,0,0-.063.145l-.046.289h-.1l.09-.572h.1l-.015.1a.2.2,0,0,1,.169-.1.284.284,0,0,1,.046,0l-.014.091A.285.285,0,0,0,377.487,110.306Zm0,0" transform="translate(-356.943 -104.379)" fill="#fff" fill-rule="evenodd"/>
    <path id="Path_12542" data-name="Path 12542" d="M385.073,110.853h-.1l-.136-.572h.1l.1.446.238-.446h.109Zm0,0" transform="translate(-364.216 -104.441)" fill="#fff" fill-rule="evenodd"/>
    <path id="Path_12543" data-name="Path 12543" d="M394.445,106.167a.056.056,0,0,1-.016-.041.071.071,0,0,1,.023-.053.076.076,0,0,1,.054-.022.055.055,0,0,1,.041.016.059.059,0,0,1,.016.041.071.071,0,0,1-.024.052.075.075,0,0,1-.054.023A.054.054,0,0,1,394.445,106.167Zm-.012.682h-.1l.088-.572h.105Zm0,0" transform="translate(-373.197 -100.437)" fill="#fff" fill-rule="evenodd"/>
    <path id="Path_12544" data-name="Path 12544" d="M398.67,110.507a.249.249,0,0,1-.09-.1.274.274,0,0,1-.033-.133.364.364,0,0,1,.042-.171.323.323,0,0,1,.121-.128.346.346,0,0,1,.185-.049.261.261,0,0,1,.167.052l-.018.106a.2.2,0,0,0-.156-.063.217.217,0,0,0-.121.034.235.235,0,0,0-.082.091.258.258,0,0,0-.029.121.179.179,0,0,0,.045.127.156.156,0,0,0,.122.048.278.278,0,0,0,.1-.018.256.256,0,0,0,.085-.051l-.016.108a.331.331,0,0,1-.091.043.368.368,0,0,1-.1.013A.244.244,0,0,1,398.67,110.507Zm0,0" transform="translate(-377.19 -104.109)" fill="#fff" fill-rule="evenodd"/>
    <path id="Path_12545" data-name="Path 12545" d="M408.632,110.066a.244.244,0,0,0-.076.118h.34a.207.207,0,0,0,0-.025.145.145,0,0,0-.035-.1.129.129,0,0,0-.1-.037A.193.193,0,0,0,408.632,110.066Zm.308-.073a.238.238,0,0,1,.058.166.375.375,0,0,1,0,.056.445.445,0,0,1-.012.053h-.441a.169.169,0,0,0,.046.135.185.185,0,0,0,.134.047.364.364,0,0,0,.107-.015.4.4,0,0,0,.095-.044l-.014.088a.371.371,0,0,1-.213.061.272.272,0,0,1-.14-.035.227.227,0,0,1-.09-.1.3.3,0,0,1-.031-.137.367.367,0,0,1,.038-.155.345.345,0,0,1,.114-.135.315.315,0,0,1,.187-.054A.215.215,0,0,1,408.94,109.994Zm0,0" transform="translate(-386.549 -104.109)" fill="#fff" fill-rule="evenodd"/>
    <path id="Path_12546" data-name="Path 12546" d="M299.926,98.349c-.024.159-.146.159-.263.159H299.6l.047-.3a.037.037,0,0,1,.037-.031h.031c.08,0,.156,0,.194.046A.147.147,0,0,1,299.926,98.349Zm-.051-.415h-.443a.062.062,0,0,0-.061.052l-.179,1.137a.037.037,0,0,0,.037.043h.227a.043.043,0,0,0,.043-.036l.051-.322a.062.062,0,0,1,.061-.052h.14a.456.456,0,0,0,.5-.421.341.341,0,0,0-.057-.286A.411.411,0,0,0,299.874,97.934Zm0,0" transform="translate(-283.145 -92.754)" fill="#fff" fill-rule="evenodd"/>
    <path id="Path_12547" data-name="Path 12547" d="M240.777,98.349c-.024.159-.146.159-.264.159h-.067l.047-.3a.037.037,0,0,1,.037-.031h.031c.08,0,.155,0,.194.046A.148.148,0,0,1,240.777,98.349Zm-.051-.415h-.443a.062.062,0,0,0-.061.052l-.179,1.137a.037.037,0,0,0,.036.043h.212a.062.062,0,0,0,.061-.052l.048-.307a.062.062,0,0,1,.061-.052h.14a.455.455,0,0,0,.5-.421.341.341,0,0,0-.057-.286A.411.411,0,0,0,240.726,97.934Zm0,0" transform="translate(-227.159 -92.754)" fill="#fff" fill-rule="evenodd"/>
    <path id="Path_12548" data-name="Path 12548" d="M259.554,105.664a.237.237,0,0,1-.24.2.165.165,0,0,1-.176-.206.238.238,0,0,1,.238-.2.179.179,0,0,1,.142.058A.183.183,0,0,1,259.554,105.664Zm.3-.413h-.212a.037.037,0,0,0-.036.031l-.009.059-.015-.022a.3.3,0,0,0-.251-.089.488.488,0,0,0-.474.427.4.4,0,0,0,.079.326.332.332,0,0,0,.267.108.406.406,0,0,0,.294-.122l-.009.059a.037.037,0,0,0,.036.043h.191a.061.061,0,0,0,.061-.052l.115-.726A.037.037,0,0,0,259.85,105.25Zm0,0" transform="translate(-244.957 -99.66)" fill="#fff" fill-rule="evenodd"/>
    <path id="Path_12549" data-name="Path 12549" d="M318.7,105.664a.237.237,0,0,1-.24.2.178.178,0,0,1-.142-.057.18.18,0,0,1-.033-.149.237.237,0,0,1,.238-.2.179.179,0,0,1,.142.058A.183.183,0,0,1,318.7,105.664Zm.3-.413h-.212a.037.037,0,0,0-.036.031l-.009.059-.015-.022a.3.3,0,0,0-.251-.089.488.488,0,0,0-.474.427.4.4,0,0,0,.079.326.332.332,0,0,0,.267.108.406.406,0,0,0,.294-.122l-.01.059a.037.037,0,0,0,.036.043h.191a.061.061,0,0,0,.061-.052l.115-.726A.037.037,0,0,0,318.994,105.25Zm0,0" transform="translate(-300.94 -99.66)" fill="#fff" fill-rule="evenodd"/>
    <path id="Path_12550" data-name="Path 12550" d="M281.259,105.6h-.213a.061.061,0,0,0-.051.027l-.294.433-.125-.416a.061.061,0,0,0-.059-.044h-.209a.037.037,0,0,0-.035.049l.235.69-.221.312a.037.037,0,0,0,.03.058h.213a.062.062,0,0,0,.051-.027l.71-1.024A.037.037,0,0,0,281.259,105.6Zm0,0" transform="translate(-265.236 -100.015)" fill="#fff" fill-rule="evenodd"/>
    <path id="Path_12551" data-name="Path 12551" d="M338.221,97.965l-.182,1.157a.037.037,0,0,0,.036.043h.183a.061.061,0,0,0,.061-.052l.179-1.137a.037.037,0,0,0-.036-.043h-.2A.037.037,0,0,0,338.221,97.965Zm0,0" transform="translate(-319.916 -92.754)" fill="#fff" fill-rule="evenodd"/>
  </g>
</svg>
