<svg width="18" height="19" viewBox="0 0 18 19" fill="none" xmlns="http://www.w3.org/2000/svg">
<g clip-path="url(#clip0_1272_3855)">
<path d="M9 0.828125C7.21997 0.828125 5.47991 1.35597 3.99987 2.3449C2.51983 3.33383 1.36628 4.73944 0.685088 6.38397C0.00389969 8.02851 -0.174331 9.83811 0.172936 11.5839C0.520203 13.3298 1.37737 14.9334 2.63604 16.1921C3.89472 17.4508 5.49836 18.3079 7.24419 18.6552C8.99002 19.0025 10.7996 18.8242 12.4442 18.143C14.0887 17.4619 15.4943 16.3083 16.4832 14.8283C17.4722 13.3482 18 11.6082 18 9.82812C18 7.44118 17.0518 5.15199 15.364 3.46416C13.6761 1.77634 11.387 0.828125 9 0.828125ZM13.154 11.2131H9C8.90913 11.2131 8.81914 11.1952 8.73519 11.1604C8.65123 11.1257 8.57494 11.0747 8.51069 11.0104C8.44643 10.9462 8.39546 10.8699 8.36068 10.7859C8.3259 10.702 8.308 10.612 8.308 10.5211V4.29012C8.308 4.10646 8.38096 3.93032 8.51083 3.80045C8.6407 3.67058 8.81684 3.59762 9.0005 3.59762C9.18417 3.59762 9.36031 3.67058 9.49018 3.80045C9.62004 3.93032 9.693 4.10646 9.693 4.29012V9.82812H13.155C13.3387 9.82812 13.5148 9.90108 13.6447 10.031C13.7745 10.1608 13.8475 10.337 13.8475 10.5206C13.8475 10.7043 13.7745 10.8804 13.6447 11.0103C13.5148 11.1402 13.3387 11.2131 13.155 11.2131H13.154Z" fill="#313201"/>
</g>
<defs>
<clipPath id="clip0_1272_3855">
<rect width="18" height="18" fill="white" transform="translate(0 0.828125)"/>
</clipPath>
</defs>
</svg>
