<svg width="22" height="21" viewBox="0 0 22 21" fill="none" xmlns="http://www.w3.org/2000/svg">
<g clip-path="url(#clip0_1272_3863)">
<path d="M22 3.1422C21.2119 3.54421 20.3592 3.80451 19.481 3.91119C20.3823 3.25417 21.0461 2.32257 21.373 1.2562C20.5188 1.81795 19.5523 2.18653 18.541 2.3362C18.1328 1.86549 17.6289 1.48726 17.063 1.2267C16.497 0.966144 15.882 0.829256 15.259 0.825195C14.0095 0.873115 12.8299 1.4146 11.9791 2.3309C11.1282 3.24721 10.6754 4.46355 10.72 5.7132C10.7206 6.0793 10.7598 6.44432 10.837 6.8022C8.96005 6.71665 7.12514 6.21778 5.46326 5.3412C3.80137 4.46462 2.35348 3.23196 1.22299 1.7312C0.653371 2.79692 0.479045 4.02978 0.730865 5.21165C0.982686 6.39353 1.64443 7.44823 2.599 8.18919C1.89238 8.26712 1.18291 8.06979 0.618011 7.6382C0.56011 8.71589 0.877077 9.78041 1.51511 10.6509C2.15314 11.5213 3.07287 12.144 4.11801 12.4132C3.51669 12.6471 2.86013 12.7003 2.229 12.5662C2.45509 13.4837 2.97261 14.3032 3.70392 14.9016C4.43523 15.5 5.3409 15.8452 6.285 15.8852C5.47972 16.7067 4.4872 17.3207 3.39255 17.6745C2.29789 18.0282 1.13376 18.1112 0 17.9162C2.1039 19.3166 4.57269 20.0683 7.10001 20.0782C14.422 20.0782 20.109 13.6882 19.8 5.8042C19.8 5.7952 19.8 5.78621 19.8 5.77721C19.8 5.76821 19.8 5.7352 19.8 5.7162C19.8 5.6972 19.8 5.6672 19.8 5.6422C20.6969 4.96849 21.4458 4.11753 22 3.1422Z" fill="#313201"/>
</g>
<defs>
<clipPath id="clip0_1272_3863">
<rect width="22" height="19.25" fill="white" transform="translate(0 0.828125)"/>
</clipPath>
</defs>
</svg>
