<svg xmlns="http://www.w3.org/2000/svg" width="25.89" height="23.683" viewBox="0 0 25.89 23.683">
  <g id="Group_3225" data-name="Group 3225" transform="translate(-147.555 -287.478)">
    <g id="Group_3224" data-name="Group 3224">
      <g id="upload" transform="translate(144.313 282.98)" opacity="0.5">
        <path id="Path_12427" data-name="Path 12427" d="M27.516,17.861H21.769a1.608,1.608,0,0,0-1.536,1.075,4.305,4.305,0,0,1-8.094,0A1.609,1.609,0,0,0,10.6,17.861H4.857a1.584,1.584,0,0,0-1.615,1.553v8.857a1.585,1.585,0,0,0,1.615,1.552H27.517a1.584,1.584,0,0,0,1.615-1.552V19.414a1.584,1.584,0,0,0-1.615-1.553Z" transform="translate(0 -1.643)" fill="#f60"/>
        <path id="Path_12428" data-name="Path 12428" d="M12.831,11.375h2.1V16.8a.426.426,0,0,0,.434.418h3.889a.426.426,0,0,0,.434-.418V11.375h2.1a.438.438,0,0,0,.386-.226.4.4,0,0,0-.032-.434L17.649,4.673A.441.441,0,0,0,17.3,4.5h0a.44.44,0,0,0-.353.176l-4.466,6.041a.407.407,0,0,0-.032.434A.437.437,0,0,0,12.831,11.375Z" transform="translate(-1.126 0)" fill="#f60"/>
      </g>
    </g>
  </g>
</svg>
