<svg xmlns="http://www.w3.org/2000/svg" width="19.95" height="12.469" viewBox="0 0 19.95 12.469">
  <path id="videocamerathree" d="M19.19,11.124l-4.228-3.6V9.975a2.494,2.494,0,0,1-2.494,2.494H2.494a2.4,2.4,0,0,1-1.763-.73A2.4,2.4,0,0,1,0,9.975V2.494A2.4,2.4,0,0,1,.73.73,2.4,2.4,0,0,1,2.494,0h9.975a2.4,2.4,0,0,1,1.763.73,2.4,2.4,0,0,1,.73,1.763V4.949l4.228-3.6q.312-.253.76.136v9.507Q19.5,11.377,19.19,11.124Zm-7.958-8.63a1.227,1.227,0,0,0-.887.36,1.177,1.177,0,0,0-.37.877,1.264,1.264,0,0,0,1.257,1.257,1.177,1.177,0,0,0,.877-.37,1.227,1.227,0,0,0,.36-.887,1.23,1.23,0,0,0-1.237-1.237Z" fill="#101276"/>
</svg>
