<svg width="30" height="30" viewBox="0 0 30 30" fill="none" xmlns="http://www.w3.org/2000/svg">
<path d="M27.5 15V21.25C27.5 25 25 27.5 21.25 27.5H8.75C5 27.5 2.5 25 2.5 21.25V15C2.5 11.6 4.55 9.225 7.7375 8.825C8.0625 8.775 8.4 8.75 8.75 8.75H21.25C21.575 8.75 21.8875 8.76248 22.1875 8.81248C25.4125 9.18748 27.5 11.575 27.5 15Z" stroke="#292D32" stroke-width="1.5" stroke-linecap="round" stroke-linejoin="round"/>
<path d="M22.1893 8.8125C21.8893 8.7625 21.5768 8.75001 21.2518 8.75001H8.75176C8.40176 8.75001 8.06426 8.77501 7.73926 8.82501C7.91426 8.47501 8.16426 8.15001 8.46426 7.85001L12.5268 3.775C14.2393 2.075 17.0143 2.075 18.7268 3.775L20.9143 5.98752C21.7143 6.77502 22.1393 7.775 22.1893 8.8125Z" stroke="#292D32" stroke-width="1.5" stroke-linecap="round" stroke-linejoin="round"/>
<path d="M27.5 15.625H23.75C22.375 15.625 21.25 16.75 21.25 18.125C21.25 19.5 22.375 20.625 23.75 20.625H27.5" stroke="#292D32" stroke-width="1.5" stroke-linecap="round" stroke-linejoin="round"/>
</svg>
