<svg xmlns="http://www.w3.org/2000/svg" width="13.131" height="9.675" viewBox="0 0 13.131 9.675">
  <g id="Group_3461" data-name="Group 3461" transform="translate(-5 -6.911)">
    <circle id="Ellipse_486" data-name="Ellipse 486" cx="1.209" cy="1.209" r="1.209" transform="translate(7.937 6.995)" fill="#c7e7df"/>
    <circle id="Ellipse_488" data-name="Ellipse 488" cx="0.691" cy="0.691" r="0.691" transform="translate(8.455 11.66)" fill="#c7e7df"/>
    <path id="XMLID_1423_" d="M17.058,21.142H7.382A1.386,1.386,0,0,0,6,22.524v6.22a1.386,1.386,0,0,0,1.382,1.382h9.675a1.386,1.386,0,0,0,1.382-1.382v-6.22A1.386,1.386,0,0,0,17.058,21.142Z" transform="translate(-0.654 -13.836)" fill="#d79480"/>
    <path id="XMLID_1325_" d="M33.147,35.906h-2.8A1.364,1.364,0,0,1,29,34.524h0a1.364,1.364,0,0,1,1.346-1.382h2.8" transform="translate(-15.707 -21.69)" fill="#ffd28e"/>
    <ellipse id="Ellipse_492" data-name="Ellipse 492" cx="0.337" cy="0.346" rx="0.337" ry="0.346" transform="translate(14.33 12.443)" fill="#444a54"/>
    <path id="Path_12558" data-name="Path 12558" d="M16.4,20H6.728A1.73,1.73,0,0,0,5,21.728v6.22a1.73,1.73,0,0,0,1.728,1.728H16.4a1.73,1.73,0,0,0,1.728-1.728v-6.22A1.73,1.73,0,0,0,16.4,20Zm0,8.984H6.728a1.038,1.038,0,0,1-1.037-1.037v-6.22a1.038,1.038,0,0,1,1.037-1.037H16.4a1.038,1.038,0,0,1,1.037,1.037V24.15H14.675a1.728,1.728,0,0,0,0,3.455H17.44v.342A1.038,1.038,0,0,1,16.4,28.984Zm1.037-4.143v2.073H14.675a1.037,1.037,0,1,1,0-2.073Z" transform="translate(0 -13.089)" fill="#444a54"/>
  </g>
</svg>
